<?xml version="1.0" encoding="utf-8" ?>
<svg baseProfile="tiny" height="100%" version="1.2" width="100%" xmlns="http://www.w3.org/2000/svg" xmlns:ev="http://www.w3.org/2001/xml-events" xmlns:xlink="http://www.w3.org/1999/xlink"><defs /><polyline fill="none" points="39.203,67.879 39.7343,68.4871 40.2776,69.0591 40.8323,69.5964 41.398,70.1006 41.9743,70.5732 42.5607,71.0155 43.1566,71.4291 43.7618,71.8154 44.3756,72.176 44.9976,72.5123 45.6273,72.8257 46.2644,73.1177 46.9083,73.3899 47.5585,73.6436 48.2146,73.8804 48.8762,74.1017 49.5427,74.3091 50.2138,74.5039 50.8888,74.6876 51.5674,74.8617 52.2491,75.0278 52.9335,75.1872 53.62,75.3415 54.3083,75.492 54.9978,75.6404 55.688,75.788 56.3786,75.9363 57.069,76.0868 57.7588,76.241 58.4476,76.4004 59.1348,76.5664 59.8199,76.7404 60.5026,76.9241 61.1824,77.1188 61.8587,77.326 62.5312,77.5471 63.1993,77.7838 63.8626,78.0373 64.5207,78.3093 65.173,78.6011 65.8192,78.9143 66.4586,79.2504 67.091,79.6107 67.7157,79.9968 68.3324,80.4101 68.9406,80.8521 69.5398,81.3244 70.1295,81.8283 70.7093,82.3653 71.2788,82.9369 71.8374,83.5446 72.3847,84.1899 72.9202,84.8742 73.4434,85.599 73.954,86.3657 74.4513,87.1759 74.9351,88.0311 75.4047,88.9326 75.8598,89.882 76.2999,90.8807 76.7244,91.9302 77.133,93.032 77.403,93.8459 77.6476,94.6915 77.8673,95.5669 78.0627,96.4703 78.2345,97.3999 78.3833,98.3539 78.5097,99.3305 78.6143,100.3278 78.6976,101.3441 78.7604,102.3775 78.8033,103.4262 78.8267,104.4885 78.8315,105.5624 78.8181,106.6463 78.7872,107.7382 78.7394,108.8363 78.6752,109.9389 78.5955,111.0442 78.5006,112.1503 78.3913,113.2554 78.2681,114.3576 78.1317,115.4553 77.9827,116.5465 77.8217,117.6295 77.6493,118.7025 77.466,119.7636 77.2727,120.811 77.0697,121.8429 76.8578,122.8575 76.6376,123.853 76.4097,124.8276 76.1746,125.7794 75.933,126.7067 75.6856,127.6076 75.4328,128.4803 75.1754,129.3231 74.914,130.134 74.532,131.2406 74.1365,132.2967 73.7278,133.3038 73.3062,134.263 72.872,135.1757 72.4255,136.0433 71.9669,136.867 71.4966,137.6482 71.0147,138.3881 70.5216,139.0882 70.0176,139.7496 69.5029,140.3739 68.9778,140.9621 68.4426,141.5157 67.8976,142.036 67.3431,142.5243 66.7793,142.9819 66.2064,143.4102 65.6249,143.8104 65.035,144.1839 64.4368,144.532 63.8308,144.856 63.2173,145.1572 62.5964,145.4369 61.9684,145.6965 61.3337,145.9372 60.6925,146.1605 60.0451,146.3675 59.3918,146.5597 58.7329,146.7384 58.0686,146.9047 57.3992,147.0602 56.7249,147.2061 56.0462,147.3436 55.3632,147.4742 54.6762,147.5992 53.9856,147.7198 53.2915,147.8373 52.5943,147.9532 51.8942,148.0687 51.1916,148.1851 50.4866,148.3038 49.7797,148.426 49.071,148.5531 48.3608,148.6864 47.6495,148.8273 46.9372,148.9769 46.2243,149.1367 45.5111,149.308 44.7978,149.4921 44.0848,149.6903 43.3722,149.9039 42.6604,150.1342 41.9496,150.3826 41.2401,150.6503 40.5323,150.9388 39.8263,151.2492 39.1226,151.583 38.4212,151.9414 37.7226,152.3257 37.0269,152.7374 36.3346,153.1776 35.6458,153.6477 34.9608,154.1491 34.28,154.683 33.13,155.656" stroke="black" /><polyline fill="none" points="170.739,69.348 170.1128,70.0882 169.4778,70.7879 168.8339,71.4481 168.1815,72.0702 167.5208,72.6552 166.8518,73.2043 166.1747,73.7187 165.4898,74.1994 164.7972,74.6478 164.0972,75.0649 163.3897,75.4519 162.6752,75.81 161.9536,76.1403 161.2252,76.444 160.4903,76.7223 159.7488,76.9763 159.0011,77.2071 158.2474,77.416 157.4877,77.6041 156.7222,77.7725 155.9512,77.9224 155.1748,78.0551 154.3932,78.1715 153.6066,78.273 152.8151,78.3607 152.0189,78.4356 151.2183,78.4991 150.4133,78.5522 149.6041,78.5961 148.791,78.632 147.9741,78.6609 147.1536,78.6842 146.3296,78.703 145.5024,78.7184 144.6721,78.7315 143.8389,78.7436 143.0029,78.7558 142.1644,78.7692 141.3235,78.785 140.4804,78.8045 139.6353,78.8287 138.7883,78.8587 137.9397,78.8959 137.0895,78.9413 136.2381,78.996 135.3855,79.0613 134.5319,79.1384 133.6775,79.2282 132.8226,79.3322 131.9672,79.4513 131.1115,79.5868 130.2558,79.7397 129.4001,79.9114 128.5448,80.1029 127.6899,80.3154 126.8356,80.5501 125.9821,80.8081 125.1296,81.0905 124.2782,81.3986 123.4282,81.7336 122.5797,82.0964 121.7329,82.4884 120.8879,82.9108 120.045,83.3645 119.2043,83.8509 118.366,84.371 117.5206,84.9273 116.6961,85.4971 115.8925,86.0799 115.1099,86.6756 114.348,87.2837 113.607,87.904 112.8868,88.536 112.1873,89.1796 111.5085,89.8343 110.8503,90.4998 110.2128,91.1758 109.5959,91.8621 108.9995,92.5581 108.4237,93.2637 107.8683,93.9785 107.3335,94.7022 106.819,95.4345 106.3249,96.1749 105.8511,96.9233 105.3977,97.6793 104.9645,98.4425 104.5515,99.2126 104.1588,99.9893 103.7862,100.7723 103.4338,101.5613 103.1014,102.3559 102.7891,103.1557 102.4968,103.9606 102.2245,104.7701 101.9722,105.5839 101.7398,106.4017 101.5272,107.2232 101.3345,108.048 101.1616,108.8759 101.0085,109.7064 100.8751,110.5394 100.7614,111.3743 100.6674,112.211 100.593,113.049 100.5382,113.8882 100.5029,114.7281 100.4872,115.5683 100.4909,116.4087 100.5141,117.2489 100.5568,118.0884 100.6188,118.9271 100.7001,119.7646 100.8007,120.6006 100.9206,121.4346 101.0598,122.2665 101.2181,123.0959 101.3956,123.9225 101.5923,124.7458 101.808,125.5657 102.0428,126.3818 102.2966,127.1937 102.5693,128.0011 102.8611,128.8038 103.1717,129.6014 103.5012,130.3935 103.8496,131.1798 104.2168,131.96 104.6027,132.7338 105.0074,133.5009 105.4307,134.2609 105.8727,135.0135 106.3334,135.7584 106.8126,136.4952 107.3104,137.2236 107.8268,137.9434 108.3615,138.6541 108.9148,139.3555 109.4864,140.0472 110.0765,140.7289 110.6848,141.4003 111.3115,142.061 111.9565,142.7108 112.6196,143.3492 113.301,143.976 114.007,144.5909 114.7271,145.1795 115.4607,145.7429 116.2073,146.2821 116.9663,146.7982 117.737,147.2923 118.5191,147.7654 119.3118,148.2185 120.1147,148.6527 120.9271,149.0691 121.7485,149.4686 122.5783,149.8524 123.4161,150.2215 124.2611,150.577 125.1129,150.9198 125.9708,151.2511 126.8344,151.5719 127.703,151.8833 128.576,152.1862 129.453,152.4818 130.3334,152.7711 131.2165,153.0552 132.1019,153.3351 132.9889,153.6118 133.877,153.8865 134.7657,154.1601 135.6543,154.4337 136.5423,154.7083 137.4291,154.9851 138.3142,155.2651 139.1971,155.5492 140.077,155.8386 140.9536,156.1344 141.8261,156.4375 142.6941,156.749 143.557,157.0699 144.4142,157.4014 145.2652,157.7445 146.1093,158.1002 146.9461,158.4695 147.7749,158.8536 148.5952,159.2534 149.4065,159.6701 150.2081,160.1046 150.9995,160.5581 151.7802,161.0315 152.5495,161.5259 153.3069,162.0425 154.0519,162.5821 154.7839,163.1459 155.5022,163.735 156.2065,164.3503 156.896,164.993 157.5702,165.664 158.2286,166.3645 158.8705,167.0955 159.4955,167.8579 160.103,168.653 160.739,169.349" stroke="black" /><polyline fill="none" points="21.5,114.5 21.5062,113.4937 21.5247,112.4876 21.5556,111.4818 21.5988,110.4765 21.6543,109.4717 21.7222,108.4677 21.8024,107.4646 21.8949,106.4626 21.9996,105.4618 22.1167,104.4623 22.246,103.4644 22.3875,102.4681 22.5413,101.4736 22.7072,100.4811 22.8854,99.4907 23.0756,98.5026 23.278,97.5169 23.4924,96.5337 23.7189,95.5532 23.9574,94.5756 24.2079,93.601 24.4704,92.6296 24.7447,91.6614 25.0309,90.6967 25.3289,89.7355 25.6387,88.7781 25.9602,87.8246 26.2934,86.875 26.6382,85.9297 26.9946,84.9886 27.3625,84.052 27.7419,83.12 28.1327,82.1927 28.5348,81.2702 28.9482,80.3528 29.3729,79.4405 29.8087,78.5335 30.2556,77.6319 30.7136,76.7358 31.1825,75.8455 31.6623,74.9609 32.1529,74.0823 32.6542,73.2099 33.1663,72.3436 33.6889,71.4836 34.222,70.6302 34.7656,69.7834 35.3195,68.9432 35.8837,68.11 36.458,67.2837 37.0425,66.4646 37.637,65.6527 38.2414,64.8481 38.8556,64.051 39.4795,63.2615 40.1131,62.4798 40.7563,61.7058 41.4089,60.9398 42.0708,60.1819 42.742,59.4322 43.4223,58.6907 44.1117,57.9577 44.8101,57.2331 45.5172,56.5172 46.2331,55.8101 46.9577,55.1117 47.6907,54.4223 48.4322,53.742 49.1819,53.0708 49.9398,52.4089 50.7058,51.7563 51.4798,51.1131 52.2615,50.4795 53.051,49.8556 53.8481,49.2414 54.6527,48.637 55.4646,48.0425 56.2837,47.458 57.11,46.8837 57.9432,46.3195 58.7834,45.7656 59.6302,45.222 60.4836,44.6889 61.3436,44.1663 62.2099,43.6542 63.0823,43.1529 63.9609,42.6623 64.8455,42.1825 65.7358,41.7136 66.6319,41.2556 67.5335,40.8087 68.4405,40.3729 69.3528,39.9482 70.2702,39.5348 71.1927,39.1327 72.12,38.7419 73.052,38.3625 73.9886,37.9946 74.9297,37.6382 75.875,37.2934 76.8246,36.9602 77.7781,36.6387 78.7355,36.3289 79.6967,36.0309 80.6614,35.7447 81.6296,35.4704 82.601,35.2079 83.5756,34.9574 84.5532,34.7189 85.5337,34.4924 86.5169,34.278 87.5026,34.0756 88.4907,33.8854 89.4811,33.7072 90.4736,33.5413 91.4681,33.3875 92.4644,33.246 93.4623,33.1167 94.4618,32.9996 95.4626,32.8949 96.4646,32.8024 97.4677,32.7222 98.4717,32.6543 99.4765,32.5988 100.4818,32.5556 101.4876,32.5247 102.4937,32.5062 103.5,32.5 104.5063,32.5062 105.5124,32.5247 106.5182,32.5556 107.5235,32.5988 108.5283,32.6543 109.5323,32.7222 110.5354,32.8024 111.5374,32.8949 112.5382,32.9996 113.5377,33.1167 114.5356,33.246 115.5319,33.3875 116.5264,33.5413 117.5189,33.7072 118.5093,33.8854 119.4974,34.0756 120.4831,34.278 121.4663,34.4924 122.4468,34.7189 123.4244,34.9574 124.399,35.2079 125.3704,35.4704 126.3386,35.7447 127.3033,36.0309 128.2645,36.3289 129.2219,36.6387 130.1754,36.9602 131.125,37.2934 132.0703,37.6382 133.0114,37.9946 133.948,38.3625 134.88,38.7419 135.8073,39.1327 136.7298,39.5348 137.6472,39.9482 138.5595,40.3729 139.4665,40.8087 140.3681,41.2556 141.2642,41.7136 142.1545,42.1825 143.0391,42.6623 143.9177,43.1529 144.7901,43.6542 145.6564,44.1663 146.5164,44.6889 147.3698,45.222 148.2166,45.7656 149.0568,46.3195 149.89,46.8837 150.7163,47.458 151.5354,48.0425 152.3473,48.637 153.1519,49.2414 153.949,49.8556 154.7385,50.4795 155.5202,51.1131 156.2942,51.7563 157.0602,52.4089 157.8181,53.0708 158.5678,53.742 159.3093,54.4223 160.0423,55.1117 160.7669,55.8101 161.4828,56.5172 162.1899,57.2331 162.8883,57.9577 163.5777,58.6907 164.258,59.4322 164.9292,60.1819 165.5911,60.9398 166.2437,61.7058 166.8869,62.4798 167.5205,63.2615 168.1444,64.051 168.7586,64.8481 169.363,65.6527 169.9575,66.4646 170.542,67.2837 171.1163,68.11 171.6805,68.9432 172.2344,69.7834 172.778,70.6302 173.3111,71.4836 173.8337,72.3436 174.3458,73.2099 174.8471,74.0823 175.3377,74.9609 175.8175,75.8455 176.2864,76.7358 176.7444,77.6319 177.1913,78.5335 177.6271,79.4405 178.0518,80.3528 178.4652,81.2702 178.8673,82.1927 179.2581,83.12 179.6375,84.052 180.0054,84.9886 180.3618,85.9297 180.7066,86.875 181.0398,87.8246 181.3613,88.7781 181.6711,89.7355 181.9691,90.6967 182.2553,91.6614 182.5296,92.6296 182.7921,93.601 183.0426,94.5756 183.2811,95.5532 183.5076,96.5337 183.722,97.5169 183.9244,98.5026 184.1146,99.4907 184.2928,100.4811 184.4587,101.4736 184.6125,102.4681 184.754,103.4644 184.8833,104.4623 185.0004,105.4618 185.1051,106.4626 185.1976,107.4646 185.2778,108.4677 185.3457,109.4717 185.4012,110.4765 185.4444,111.4818 185.4753,112.4876 185.4938,113.4937 185.5,114.5 185.4938,115.5063 185.4753,116.5124 185.4444,117.5182 185.4012,118.5235 185.3457,119.5283 185.2778,120.5323 185.1976,121.5354 185.1051,122.5374 185.0004,123.5382 184.8833,124.5377 184.754,125.5356 184.6125,126.5319 184.4587,127.5264 184.2928,128.5189 184.1146,129.5093 183.9244,130.4974 183.722,131.4831 183.5076,132.4663 183.2811,133.4468 183.0426,134.4244 182.7921,135.399 182.5296,136.3704 182.2553,137.3386 181.9691,138.3033 181.6711,139.2645 181.3613,140.2219 181.0398,141.1754 180.7066,142.125 180.3618,143.0703 180.0054,144.0114 179.6375,144.948 179.2581,145.88 178.8673,146.8073 178.4652,147.7298 178.0518,148.6472 177.6271,149.5595 177.1913,150.4665 176.7444,151.3681 176.2864,152.2642 175.8175,153.1545 175.3377,154.0391 174.8471,154.9177 174.3458,155.7901 173.8337,156.6564 173.3111,157.5164 172.778,158.3698 172.2344,159.2166 171.6805,160.0568 171.1163,160.89 170.542,161.7163 169.9575,162.5354 169.363,163.3473 168.7586,164.1519 168.1444,164.949 167.5205,165.7385 166.8869,166.5202 166.2437,167.2942 165.5911,168.0602 164.9292,168.8181 164.258,169.5678 163.5777,170.3093 162.8883,171.0423 162.1899,171.7669 161.4828,172.4828 160.7669,173.1899 160.0423,173.8883 159.3093,174.5777 158.5678,175.258 157.8181,175.9292 157.0602,176.5911 156.2942,177.2437 155.5202,177.8869 154.7385,178.5205 153.949,179.1444 153.1519,179.7586 152.3473,180.363 151.5354,180.9575 150.7163,181.542 149.89,182.1163 149.0568,182.6805 148.2166,183.2344 147.3698,183.778 146.5164,184.3111 145.6564,184.8337 144.7901,185.3458 143.9177,185.8471 143.0391,186.3377 142.1545,186.8175 141.2642,187.2864 140.3681,187.7444 139.4665,188.1913 138.5595,188.6271 137.6472,189.0518 136.7298,189.4652 135.8073,189.8673 134.88,190.2581 133.948,190.6375 133.0114,191.0054 132.0703,191.3618 131.125,191.7066 130.1754,192.0398 129.2219,192.3613 128.2645,192.6711 127.3033,192.9691 126.3386,193.2553 125.3704,193.5296 124.399,193.7921 123.4244,194.0426 122.4468,194.2811 121.4663,194.5076 120.4831,194.722 119.4974,194.9244 118.5093,195.1146 117.5189,195.2928 116.5264,195.4587 115.5319,195.6125 114.5356,195.754 113.5377,195.8833 112.5382,196.0004 111.5374,196.1051 110.5354,196.1976 109.5323,196.2778 108.5283,196.3457 107.5235,196.4012 106.5182,196.4444 105.5124,196.4753 104.5063,196.4938 103.5,196.5 102.4937,196.4938 101.4876,196.4753 100.4818,196.4444 99.4765,196.4012 98.4717,196.3457 97.4677,196.2778 96.4646,196.1976 95.4626,196.1051 94.4618,196.0004 93.4623,195.8833 92.4644,195.754 91.4681,195.6125 90.4736,195.4587 89.4811,195.2928 88.4907,195.1146 87.5026,194.9244 86.5169,194.722 85.5337,194.5076 84.5532,194.2811 83.5756,194.0426 82.601,193.7921 81.6296,193.5296 80.6614,193.2553 79.6967,192.9691 78.7355,192.6711 77.7781,192.3613 76.8246,192.0398 75.875,191.7066 74.9297,191.3618 73.9886,191.0054 73.052,190.6375 72.12,190.2581 71.1927,189.8673 70.2702,189.4652 69.3528,189.0518 68.4405,188.6271 67.5335,188.1913 66.6319,187.7444 65.7358,187.2864 64.8455,186.8175 63.9609,186.3377 63.0823,185.8471 62.2099,185.3458 61.3436,184.8337 60.4836,184.3111 59.6302,183.778 58.7834,183.2344 57.9432,182.6805 57.11,182.1163 56.2837,181.542 55.4646,180.9575 54.6527,180.363 53.8481,179.7586 53.051,179.1444 52.2615,178.5205 51.4798,177.8869 50.7058,177.2437 49.9398,176.5911 49.1819,175.9292 48.4322,175.258 47.6907,174.5777 46.9577,173.8883 46.2331,173.1899 45.5172,172.4828 44.8101,171.7669 44.1117,171.0423 43.4223,170.3093 42.742,169.5678 42.0708,168.8181 41.4089,168.0602 40.7563,167.2942 40.1131,166.5202 39.4795,165.7385 38.8556,164.949 38.2414,164.1519 37.637,163.3473 37.0425,162.5354 36.458,161.7163 35.8837,160.89 35.3195,160.0568 34.7656,159.2166 34.222,158.3698 33.6889,157.5164 33.1663,156.6564 32.6542,155.7901 32.1529,154.9177 31.6623,154.0391 31.1825,153.1545 30.7136,152.2642 30.2556,151.3681 29.8087,150.4665 29.3729,149.5595 28.9482,148.6472 28.5348,147.7298 28.1327,146.8073 27.7419,145.88 27.3625,144.948 26.9946,144.0114 26.6382,143.0703 26.2934,142.125 25.9602,141.1754 25.6387,140.2219 25.3289,139.2645 25.0309,138.3033 24.7447,137.3386 24.4704,136.3704 24.2079,135.399 23.9574,134.4244 23.7189,133.4468 23.4924,132.4663 23.278,131.4831 23.0756,130.4974 22.8854,129.5093 22.7072,128.5189 22.5413,127.5264 22.3875,126.5319 22.246,125.5356 22.1167,124.5377 21.9996,123.5382 21.8949,122.5374 21.8024,121.5354 21.7222,120.5323 21.6543,119.5283 21.5988,118.5235 21.5556,117.5182 21.5247,116.5124 21.5062,115.5063 21.5,114.5" stroke="black" /><polyline fill="none" points="1.5,1.5 216.5,1.5 216.5,226.5 1.5,226.5 1.5,1.5" stroke="black" /></svg>