<?xml version="1.0" encoding="utf-8" ?>
<svg baseProfile="tiny" height="100%" version="1.2" width="100%" xmlns="http://www.w3.org/2000/svg" xmlns:ev="http://www.w3.org/2001/xml-events" xmlns:xlink="http://www.w3.org/1999/xlink"><defs /><polyline fill="none" points="41.942,68.98 41.2596,69.8117 40.5888,70.6524 39.9296,71.502 39.2823,72.3604 38.6471,73.2277 38.0241,74.1037 37.4135,74.9885 36.8154,75.8819 36.2301,76.784 35.6577,77.6946 35.0983,78.6138 34.5521,79.5415 34.0194,80.4776 33.5002,81.4222 32.9948,82.375 32.5033,83.3362 32.0259,84.3056 31.5627,85.2832 31.114,86.269 30.7337,87.1391 30.3647,88.0183 30.0073,88.9062 29.6613,89.8025 29.3268,90.707 29.0038,91.6193 28.6925,92.5391 28.3927,93.4662 28.1046,94.4003 27.8282,95.341 27.5635,96.288 27.3106,97.2411 27.0694,98.2 26.8401,99.1643 26.6226,100.1337 26.417,101.1081 26.2233,102.0869 26.0416,103.0701 25.8718,104.0572 25.7141,105.048 25.5684,106.0421 25.4348,107.0393 25.3134,108.0393 25.204,109.0417 25.1069,110.0464 25.022,111.0528 24.9494,112.0609 24.889,113.0703 24.841,114.0806 24.8053,115.0916 24.782,116.103 24.7711,117.1145 24.7727,118.1257 24.7868,119.1365 24.8134,120.1464 24.8526,121.1553 24.9044,122.1627 24.9688,123.1684 25.0458,124.1721 25.1356,125.1735 25.238,126.1723 25.3533,127.1682 25.4813,128.1609 25.6222,129.1502 25.7759,130.1356 25.9425,131.1169 26.1221,132.0938 26.3146,133.0661 26.5201,134.0333 26.7387,134.9953 26.9703,135.9517 27.215,136.9022 27.4728,137.8465 27.7438,138.7844 28.0281,139.7154 28.3255,140.6394 28.6362,141.556 28.9602,142.465 29.2976,143.3659 29.6483,144.2586 30.0124,145.1427 30.39,146.018 30.8562,147.0536 31.3367,148.0797 31.8313,149.0963 32.3399,150.1033 32.8623,151.1008 33.3983,152.0885 33.9477,153.0665 34.5104,154.0347 35.0863,154.993 35.6751,155.9413 36.2768,156.8797 36.891,157.808" stroke="black" /><polyline fill="none" points="176.5,67.5 175.9031,66.6286 175.2991,65.7623 174.6878,64.9016 174.0688,64.047 173.442,63.1989 172.8071,62.3579 172.1639,61.5244 171.5122,60.6989 170.8517,59.8818 170.1821,59.0737 169.5033,58.275 168.8149,57.4862 168.1169,56.7077 167.4088,55.9401 166.6905,55.1838 165.9618,54.4393 165.2223,53.7071 164.4719,52.9876 163.7104,52.2813 162.9374,51.5888 162.1528,50.9104 161.3563,50.2466 160.5476,49.598 159.7266,48.965 158.893,48.348 158.1738,47.8346 157.4478,47.3321 156.7152,46.8405 155.9762,46.3596 155.2307,45.8896 154.4789,45.4303 153.721,44.9817 152.957,44.5438 152.1871,44.1166 151.4113,43.7 150.6298,43.2939 149.8427,42.8985 149.05,42.5136 148.252,42.1393 147.4486,41.7754 146.6401,41.422 145.8265,41.079 145.0079,40.7463 144.1845,40.4241 143.3563,40.1122 142.5235,39.8106 141.6862,39.5193 140.8444,39.2382 139.9984,38.9673 139.1481,38.7067 138.2938,38.4562 137.4355,38.2158 136.5733,37.9855 135.7074,37.7653 134.8378,37.5551 133.9647,37.355 133.0881,37.1648 132.2083,36.9846 131.3252,36.8142 130.439,36.6538 129.5498,36.5033 128.6578,36.3626 127.763,36.2316 126.8655,36.1105 125.9655,35.9991 125.0631,35.8974 124.1583,35.8054 123.2513,35.7231 122.3422,35.6503 121.431,35.5872 120.518,35.5337 119.6032,35.4896 118.6868,35.4551 117.7688,35.4301 116.8493,35.4145 115.9285,35.4083 115.0065,35.4115 114.0833,35.4241 113.1591,35.446 112.234,35.4772 111.3082,35.5177 110.3816,35.5674 109.4545,35.6264 108.5269,35.6945 107.599,35.7717 106.6708,35.8581 105.7424,35.9536 104.8141,36.0581 103.8858,36.1717 102.9578,36.2943 102.03,36.4258 101.1027,36.5663 100.1759,36.7157 99.2497,36.874 98.3242,37.0411 97.3997,37.2171 96.4761,37.4019 95.5535,37.5954 94.6321,37.7977 93.7121,38.0086 92.7934,38.2283 91.8763,38.4566 90.9607,38.6935 90.0469,38.939 89.135,39.1931 88.225,39.4557 87.317,39.7268 86.4113,40.0064 85.5078,40.2944 84.6067,40.5908 83.7081,40.8956 82.8121,41.2087 81.9189,41.5302 81.0284,41.86 80.1409,42.198 79.2565,42.5443 78.3752,42.8987 77.4972,43.2614 76.6226,43.6322 75.7514,44.0111 74.8839,44.3981 74.0201,44.7931 73.1601,45.1962 72.304,45.6072 71.4519,46.0262 70.604,46.4532 69.7604,46.8881 68.9211,47.3308 68.0863,47.7814 67.2561,48.2399 66.4306,48.7061 65.6099,49.18 64.7941,49.6617 63.9834,50.1511 63.1777,50.6482 62.3774,51.1529 61.5823,51.6652 60.7928,52.1851 60.0088,52.7126 59.2305,53.2475 58.458,53.79 57.6914,54.3399 56.9308,54.8973 56.1764,55.4621 55.4282,56.0342 54.6863,56.6137 53.9509,57.2005 53.222,57.7946 52.4998,58.3959 51.7844,59.0045 51.0759,59.6203 50.3744,60.2432 49.68,60.8733 48.9928,61.5104 48.313,62.1547 47.6406,62.806 46.9757,63.4643 46.3186,64.1296 45.6691,64.8019 45.0276,65.4811 44.3941,66.1672 43.7686,66.8602 43.1514,67.56 42.5425,68.2666 41.942,68.98" stroke="black" /><polyline fill="none" points="42.964,70.031 43.4953,70.6391 44.0386,71.2111 44.5933,71.7484 45.159,72.2526 45.7353,72.7252 46.3217,73.1675 46.9176,73.5811 47.5228,73.9674 48.1366,74.328 48.7586,74.6643 49.3883,74.9777 50.0254,75.2697 50.6693,75.5419 51.3195,75.7956 51.9757,76.0324 52.6372,76.2537 53.3037,76.4611 53.9748,76.6559 54.6498,76.8396 55.3284,77.0137 56.0102,77.1798 56.6945,77.3392 57.381,77.4935 58.0693,77.644 58.7588,77.7924 59.449,77.94 60.1396,78.0883 60.83,78.2388 61.5198,78.393 62.2086,78.5524 62.8957,78.7184 63.5809,78.8924 64.2636,79.0761 64.9434,79.2708 65.6197,79.478 66.2922,79.6991 66.9603,79.9358 67.6236,80.1893 68.2817,80.4613 68.934,80.7531 69.5802,81.0663 70.2196,81.4024 70.852,81.7627 71.4767,82.1488 72.0934,82.5621 72.7016,83.0041 73.3008,83.4764 73.8905,83.9803 74.4703,84.5173 75.0398,85.0889 75.5984,85.6966 76.1457,86.3419 76.6812,87.0262 77.2044,87.751 77.715,88.5177 78.2123,89.3279 78.6961,90.1831 79.1657,91.0846 79.6208,92.034 80.0609,93.0327 80.4854,94.0822 80.894,95.184 81.164,95.9979 81.4086,96.8435 81.6283,97.7189 81.8237,98.6223 81.9955,99.5519 82.1443,100.5059 82.2707,101.4825 82.3753,102.4798 82.4586,103.4961 82.5214,104.5295 82.5643,105.5782 82.5877,106.6405 82.5925,107.7144 82.5791,108.7983 82.5482,109.8902 82.5004,110.9883 82.4362,112.091 82.3565,113.1962 82.2616,114.3023 82.1523,115.4074 82.0291,116.5096 81.8927,117.6073 81.7437,118.6985 81.5827,119.7815 81.4103,120.8545 81.2271,121.9156 81.0337,122.963 80.8307,123.9949 80.6188,125.0095 80.3986,126.005 80.1707,126.9796 79.9356,127.9314 79.694,128.8587 79.4466,129.7596 79.1938,130.6323 78.9364,131.4751 78.675,132.286 78.293,133.3926 77.8974,134.4487 77.4888,135.4558 77.0672,136.415 76.633,137.3277 76.1865,138.1953 75.7279,139.019 75.2576,139.8002 74.7757,140.5401 74.2826,141.2402 73.7786,141.9016 73.2639,142.5258 72.7388,143.1141 72.2036,143.6677 71.6586,144.188 71.1041,144.6763 70.5403,145.134 69.9674,145.5622 69.3859,145.9624 68.796,146.3359 68.1978,146.684 67.5919,147.0079 66.9783,147.3091 66.3574,147.5889 65.7294,147.8485 65.0947,148.0892 64.4535,148.3125 63.8061,148.5195 63.1528,148.7117 62.4939,148.8904 61.8296,149.0567 61.1601,149.2122 60.4859,149.3581 59.8072,149.4956 59.1242,149.6262 58.4372,149.7512 57.7466,149.8717 57.0525,149.9893 56.3553,150.1052 55.6552,150.2207 54.9526,150.3371 54.2476,150.4558 53.5407,150.578 52.832,150.7051 52.1218,150.8384 51.4105,150.9793 50.6982,151.1289 49.9854,151.2887 49.2721,151.46 48.5588,151.6441 47.8458,151.8423 47.1332,152.0559 46.4214,152.2862 45.7106,152.5346 45.0011,152.8023 44.2933,153.0907 43.5873,153.4012 42.8836,153.735 42.1822,154.0934 41.4836,154.4777 40.7879,154.8894 40.0956,155.3296 39.4068,155.7997 38.7218,156.3011 38.041,156.835 36.891,157.808 37.3787,158.5248 37.8738,159.2354 38.3764,159.9398 38.8864,160.638 39.4037,161.3299 39.9281,162.0155 40.4597,162.6948 40.9984,163.3677 41.5441,164.0342 42.0966,164.6944 42.656,165.3481 43.2222,165.9953 43.795,166.636 44.3745,167.2702 44.9604,167.8978 45.5528,168.5188 46.1516,169.1333 46.7567,169.741 47.368,170.3421 47.9855,170.9365 48.609,171.5242 49.2385,172.1051 49.874,172.6792 50.5153,173.2465 51.1623,173.807 51.815,174.3605 52.4734,174.9072 53.1373,175.4469 53.8066,175.9797 54.4814,176.5055 55.1614,177.0242 55.8467,177.5359 56.5371,178.0405 57.2326,178.538 57.9331,179.0284 58.6386,179.5116 59.3489,179.9876 60.0639,180.4563 60.7837,180.9178 61.5081,181.3721 62.237,181.819 62.9704,182.2586 63.7082,182.6908 64.4503,183.1156 65.1967,183.5329 65.9472,183.9428 66.7018,184.3452 67.4605,184.7401 68.223,185.1275 68.9894,185.5073 69.7597,185.8795 70.5336,186.244 71.3111,186.6009 72.0922,186.9501 72.8768,187.2915 73.6648,187.6252 74.4561,187.9512 75.2507,188.2693 76.0485,188.5796 76.8493,188.882 77.6532,189.1766 78.46,189.4632 79.2697,189.7418 80.0822,190.0125 80.8974,190.2751 81.7152,190.5298 82.5356,190.7763 83.3585,191.0148 84.1838,191.2451 85.0115,191.4673 85.8414,191.6812 86.6735,191.887 87.5077,192.0845 88.3439,192.2738 89.1821,192.4547 90.0222,192.6273 90.8641,192.7916 91.7077,192.9474 92.5529,193.0949 93.3997,193.2339 94.2481,193.3644 95.0978,193.4864 95.9489,193.5999 96.8013,193.7048 97.6549,193.8011 98.5096,193.8888 99.3653,193.9679 100.222,194.0382 101.0796,194.0999 101.938,194.1528 102.7971,194.197 103.6569,194.2323 104.5173,194.2589 105.3782,194.2766 106.2395,194.2853 107.1012,194.2852 107.9631,194.2762 108.8253,194.2581 109.6876,194.2311 110.5499,194.195 111.4123,194.1499 112.2745,194.0957 113.1365,194.0324 113.9983,193.9599 114.8598,193.8783 115.7209,193.7874 116.5814,193.6874 117.4415,193.578 118.3008,193.4594 119.1595,193.3314 120.0174,193.1941 120.8744,193.0475 121.7305,192.8914 122.5856,192.7259 123.4396,192.5509 124.2924,192.3664 125.144,192.1724 125.9942,191.9688 126.8431,191.7557 127.6905,191.533 128.5363,191.3006 129.3805,191.0585 130.2231,190.8068 131.0638,190.5453 131.9027,190.2741 132.7396,189.993 133.5746,189.7022 134.4075,189.4015 135.2382,189.091 136.0667,188.7705 136.8928,188.4402 137.7166,188.0998 138.5379,187.7495 139.3567,187.3892 140.1729,187.0188 140.9864,186.6383 141.7971,186.2477 142.605,185.847 143.4099,185.4362 144.2119,185.0151 145.0108,184.5838 145.8065,184.1423 146.599,183.6905 147.3882,183.2284 148.1741,182.7559 148.9565,182.2731 149.7353,181.7799 150.5106,181.2762 151.2822,180.7622 152.05,180.2376 152.814,179.7025 153.574,179.1569 154.3301,178.6007 155.0821,178.0339 155.83,177.4565 156.5737,176.8684 157.3131,176.2696 158.0481,175.6601 158.7787,175.0399 159.5047,174.4089 160.2262,173.7671 160.943,173.1145 161.655,172.451 162.3622,171.7766 163.0646,171.0913 163.7619,170.3951 164.4542,169.6878 165.1414,168.9696 165.8233,168.2403 166.5,167.5" stroke="black" /><polyline fill="none" points="166.5,167.5 167.2776,166.5428 168.041,165.5923 168.7901,164.6482 169.5252,163.7104 170.2462,162.7785 170.9532,161.8524 171.6462,160.9318 172.3254,160.0165 172.9907,159.1063 173.6423,158.2009 174.2801,157.3 174.9043,156.4035 175.515,155.5112 176.1121,154.6227 176.6957,153.7378 177.2659,152.8564 177.8228,151.9781 178.3664,151.1028 178.8968,150.2302 179.414,149.3601 179.9181,148.4922 180.4091,147.6264 180.8872,146.7623 181.3523,145.8997 181.8046,145.0385 182.244,144.1784 182.6707,143.319 183.0847,142.4603 183.4861,141.602 183.8749,140.7438 184.2512,139.8855 184.6151,139.0269 184.9665,138.1677 185.3056,137.3078 185.6325,136.4468 185.9471,135.5845 186.2496,134.7208 186.54,133.8553 186.8184,132.9878 187.0848,132.1182 187.3393,131.2461 187.5819,130.3713 187.8127,129.4937 188.0318,128.6129 188.2393,127.7287 188.4351,126.841 188.6193,125.9494 188.7921,125.0537 188.9534,124.1538 189.1034,123.2493 189.242,122.34 189.3694,121.4257 189.4856,120.5062 189.5906,119.5812 189.6846,118.6505 189.7675,117.7139 189.8395,116.7711 189.9006,115.8219 189.9509,114.866 189.9904,113.9033 190.0191,112.9335 190.0372,111.9563 190.0448,110.9715 190.0417,109.9789 190.0282,108.9783 190.0043,107.9694 189.97,106.952 189.9238,105.921 189.8651,104.8969 189.7936,103.8793 189.7094,102.8681 189.6123,101.8629 189.5021,100.8635 189.3788,99.8696 189.2422,98.881 189.0922,97.8975 188.9287,96.9186 188.7515,95.9443 188.5606,94.9741 188.3559,94.008 188.1371,93.0455 187.9042,92.0865 187.657,91.1306 187.3955,90.1777 187.1196,89.2274 186.829,88.2794 186.5237,87.3337 186.2036,86.3898 185.8685,85.4474 185.5183,84.5065 185.153,83.5666 184.7723,82.6275 184.3762,81.689 183.9645,80.7508 183.5371,79.8126 183.094,78.8742 182.6349,77.9353 182.1598,76.9956 181.6685,76.0549 181.1609,75.113 180.637,74.1695 180.0965,73.2242 179.5394,72.2769 178.9655,71.3272 178.3748,70.3749 177.767,69.4198 177.1421,68.4616 176.5,67.5 175.8738,68.2402 175.2388,68.9399 174.5949,69.6001 173.9426,70.2222 173.2818,70.8072 172.6128,71.3563 171.9357,71.8707 171.2508,72.3514 170.5582,72.7998 169.8582,73.2169 169.1507,73.6039 168.4362,73.962 167.7146,74.2923 166.9862,74.596 166.2513,74.8743 165.5098,75.1283 164.7621,75.3591 164.0084,75.568 163.2487,75.7561 162.4832,75.9245 161.7122,76.0744 160.9358,76.2071 160.1542,76.3235 159.3676,76.425 158.5761,76.5127 157.7799,76.5876 156.9793,76.6511 156.1743,76.7042 155.3651,76.7481 154.552,76.784 153.7351,76.813 152.9146,76.8363 152.0906,76.855 151.2634,76.8704 150.4331,76.8835 149.5999,76.8956 148.7639,76.9078 147.9254,76.9212 147.0845,76.937 146.2414,76.9565 145.3963,76.9807 144.5493,77.0107 143.7007,77.0479 142.8505,77.0933 141.9991,77.148 141.1465,77.2133 140.2929,77.2904 139.4385,77.3802 138.5836,77.4842 137.7282,77.6033 136.8725,77.7388 136.0168,77.8917 135.1611,78.0634 134.3058,78.2549 133.4509,78.4674 132.5966,78.7021 131.7431,78.9601 130.8906,79.2425 130.0392,79.5506 129.1892,79.8856 128.3407,80.2484 127.4939,80.6404 126.6489,81.0628 125.806,81.5165 124.9653,82.0029 124.127,82.523 123.2816,83.0793 122.4571,83.6491 121.6535,84.2319 120.8709,84.8276 120.109,85.4357 119.368,86.056 118.6478,86.688 117.9483,87.3316 117.2695,87.9863 116.6113,88.6518 115.9738,89.3278 115.3569,90.0141 114.7605,90.7101 114.1847,91.4157 113.6293,92.1305 113.0944,92.8542 112.58,93.5865 112.0859,94.327 111.6121,95.0753 111.1586,95.8313 110.7255,96.5945 110.3125,97.3646 109.9198,98.1413 109.5472,98.9243 109.1948,99.7133 108.8624,100.5079 108.5501,101.3077 108.2578,102.1126 107.9855,102.9221 107.7332,103.7359 107.5008,104.5537 107.2882,105.3752 107.0955,106.2 106.9226,107.0279 106.7695,107.8584 106.6361,108.6914 106.5224,109.5263 106.4284,110.363 106.354,111.201 106.2992,112.0402 106.2639,112.8801 106.2482,113.7203 106.2519,114.5607 106.2751,115.4009 106.3178,116.2404 106.3797,117.0791 106.4611,117.9166 106.5617,118.7526 106.6816,119.5866 106.8208,120.4185 106.9791,121.2479 107.1566,122.0745 107.3533,122.8978 107.569,123.7177 107.8038,124.5338 108.0576,125.3457 108.3303,126.1532 108.6221,126.9558 108.9327,127.7534 109.2622,128.5455 109.6106,129.3318 109.9778,130.112 110.3637,130.8858 110.7684,131.6529 111.1917,132.4129 111.6338,133.1655 112.0944,133.9104 112.5736,134.6472 113.0714,135.3757 113.5878,136.0954 114.1225,136.8061 114.6758,137.5075 115.2474,138.1992 115.8375,138.8809 116.4458,139.5523 117.0725,140.213 117.7175,140.8627 118.3806,141.5012 119.062,142.128 119.768,142.7429 120.4881,143.3315 121.2217,143.8949 121.9683,144.4341 122.7273,144.9502 123.498,145.4443 124.2801,145.9174 125.0728,146.3705 125.8757,146.8047 126.6881,147.2211 127.5095,147.6206 128.3394,148.0044 129.1771,148.3735 130.0221,148.729 130.8739,149.0718 131.7318,149.4031 132.5954,149.7239 133.464,150.0353 134.337,150.3382 135.214,150.6338 136.0944,150.9231 136.9775,151.2072 137.8629,151.4871 138.7499,151.7638 139.638,152.0385 140.5267,152.3121 141.4153,152.5857 142.3033,152.8604 143.1901,153.1371 144.0752,153.4171 144.9581,153.7012 145.838,153.9906 146.7146,154.2864 147.5871,154.5895 148.4551,154.901 149.318,155.2219 150.1752,155.5534 151.0262,155.8965 151.8703,156.2522 152.7071,156.6215 153.5359,157.0056 154.3562,157.4054 155.1675,157.8221 155.9691,158.2566 156.7605,158.7101 157.5412,159.1835 158.3105,159.6779 159.0679,160.1945 159.8129,160.7341 160.5449,161.2979 161.2632,161.887 161.9675,162.5023 162.657,163.145 163.3312,163.816 163.9896,164.5165 164.6315,165.2475 165.2565,166.0099 165.864,166.805 166.5,167.501 166.5,167.5" stroke="black" /><polyline fill="none" points="13.245,227.755 13.1639,226.7536 13.083,225.7522 13.0022,224.7506 12.9215,223.749 12.8409,222.7473 12.7605,221.7455 12.6802,220.7436 12.6001,219.7417 12.5201,218.7397 12.4402,217.7375 12.3604,216.7354 12.2809,215.7331 12.2014,214.7308 12.1221,213.7283 12.043,212.7259 11.964,211.7233 11.8851,210.7206 11.8065,209.7179 11.7279,208.7151 11.6496,207.7123 11.5713,206.7094 11.4933,205.7063 11.4154,204.7033 11.3377,203.7001 11.2601,202.6969 11.1827,201.6936 11.1055,200.6903 11.0285,199.6869 10.9516,198.6834 10.8749,197.6798 10.7984,196.6762 10.7221,195.6725 10.6459,194.6688 10.5699,193.665 10.4941,192.6611 10.4185,191.6572 10.3431,190.6532 10.2679,189.6491 10.1929,188.645 10.118,187.6408 10.0434,186.6366 9.9689,185.6322 9.8947,184.6279 9.8206,183.6235 9.7468,182.619 9.6731,181.6145 9.5997,180.6099 9.5265,179.6053 9.4535,178.6006 9.3806,177.5958 9.3081,176.591 9.2357,175.5862 9.1635,174.5813 9.0916,173.5763 9.0198,172.5713 8.9483,171.5662 8.877,170.5611 8.806,169.556 8.7352,168.5508 8.6646,167.5455 8.5942,166.5402 8.5241,165.5349 8.4541,164.5295 8.3845,163.524 8.3151,162.5185 8.2459,161.513 8.1769,160.5074 8.1082,159.5018 8.0397,158.4962 7.9715,157.4905 7.9036,156.4848 7.8359,155.479 7.7684,154.4732 7.7012,153.4673 7.6342,152.4614 7.5675,151.4555 7.5011,150.4495 7.4349,149.4435 7.369,148.4375 7.3033,147.4314 7.238,146.4253 7.1728,145.4191 7.108,144.4129 7.0434,143.4067 6.9791,142.4005 6.9151,141.3942 6.8513,140.3879 6.7879,139.3816 6.7247,138.3752 6.6618,137.3688 6.5991,136.3624 6.5368,135.356 6.4747,134.3495 6.413,133.343 6.3515,132.3364 6.2903,131.3299 6.2294,130.3233 6.1688,129.3167 6.1085,128.3101 6.0485,127.3034 5.9888,126.2968 5.9295,125.2901 5.8704,124.2833 5.8116,123.2766 5.7531,122.2699 5.695,121.2631 5.6371,120.2563 5.5796,119.2495 5.5224,118.2426 5.4655,117.2358 5.4089,116.2289 5.3526,115.2221 5.2967,114.2152 5.2411,113.2083 5.1858,112.2014 5.1308,111.1944 5.0762,110.1875 5.0219,109.1805 4.968,108.1736 4.9143,107.1666 4.861,106.1596 4.8081,105.1526 4.7555,104.1456 4.7032,103.1386 4.6513,102.1316 4.5997,101.1245 4.5485,100.1175 4.4976,99.1105 4.447,98.1034 4.3969,97.0964 4.347,96.0894 4.2976,95.0823 4.2485,94.0752 4.1997,93.0682 4.1513,92.0611 4.1033,91.0541 4.0556,90.047 4.0084,89.04 3.9614,88.0329 3.9149,87.0259 3.8687,86.0188 3.8229,85.0118 3.7775,84.0047 3.7324,82.9977 3.6877,81.9907 3.6434,80.9836 3.5995,79.9766 3.556,78.9696 3.5129,77.9626 3.4701,76.9556 3.4278,75.9486 3.3858,74.9416 3.3442,73.9347 3.303,72.9277 3.2622,71.9208 3.2219,70.9138 3.1819,69.9069 3.1423,68.9 3.1031,67.8931 3.0644,66.8862 3.026,65.8793 2.988,64.8725 2.9505,63.8657 2.9134,62.8589 2.8767,61.8521 2.8404,60.8453 2.8045,59.8385 2.769,58.8318 2.734,57.8251 2.6994,56.8184 2.6652,55.8117 2.6314,54.805 2.5981,53.7984 2.5652,52.7918 2.5327,51.7852 2.5007,50.7786 2.4691,49.7721 2.4379,48.7656 2.4072,47.7591 2.3769,46.7526 2.3471,45.7462 2.3177,44.7398 2.2888,43.7334 2.2603,42.7271 2.2322,41.7208 2.2046,40.7145 2.1775,39.7082 2.1508,38.702 2.1246,37.6958 2.0988,36.6897 2.0735,35.6835 2.0487,34.6775 2.0243,33.6714 2.0004,32.6654 1.9769,31.6594 1.954,30.6535 1.9315,29.6476 1.9094,28.6417 1.8879,27.6359 1.8668,26.6301 1.8462,25.6243 1.8261,24.6186 1.8064,23.613 1.7873,22.6073 1.7686,21.6018 1.7504,20.5962 1.7327,19.5907 1.7155,18.5853 1.6988,17.5799 1.6826,16.5745 1.6669,15.5692 1.6517,14.5639 1.637,13.5587 1.6228,12.5535 1.609,11.5484 1.5958,10.5433 1.5831,9.5383 1.5709,8.5333 1.5593,7.5284 1.5481,6.5235 1.5374,5.5187 1.5273,4.514 1.5177,3.5093 1.5086,2.5046 1.5,1.5" stroke="black" /><polyline fill="none" points="224.647,215.68 223.6518,215.8901 222.6564,216.0983 221.6605,216.3047 220.6644,216.5093 219.6679,216.7121 218.6711,216.9131 217.674,217.1124 216.6766,217.3099 215.6789,217.5057 214.6809,217.6998 213.6826,217.8922 212.6839,218.0829 211.685,218.2719 210.6858,218.4593 209.6863,218.6451 208.6866,218.8293 207.6865,219.0118 206.6862,219.1928 205.6855,219.3723 204.6847,219.5502 203.6835,219.7266 202.6821,219.9014 201.6804,220.0748 200.6785,220.2467 199.6763,220.4172 198.6739,220.5862 197.6712,220.7537 196.6683,220.9199 195.6651,221.0847 194.6617,221.2481 193.6581,221.4102 192.6542,221.5709 191.6501,221.7303 190.6458,221.8884 189.6412,222.0452 188.6365,222.2007 187.6315,222.3549 186.6263,222.508 185.6209,222.6598 184.6154,222.8104 183.6096,222.9598 182.6036,223.1081 181.5974,223.2552 180.591,223.4011 179.5845,223.546 178.5778,223.6897 177.5708,223.8324 176.5638,223.974 175.5565,224.1145 174.5491,224.254 173.5415,224.3924 172.5337,224.5299 171.5258,224.6664 170.5177,224.8019 169.5095,224.9365 168.5011,225.0701 167.4926,225.2029 166.4839,225.3347 165.4751,225.4656 164.4662,225.5957 163.4571,225.7249 162.448,225.8533 161.4386,225.9809 160.4292,226.1076 159.4196,226.2336 158.41,226.3588 157.4002,226.4833 156.3903,226.607 155.3803,226.7301 154.3702,226.8524 153.36,226.974 152.3497,227.095 151.3393,227.2154 150.3288,227.3351 149.3183,227.4542 148.3076,227.5727 147.2969,227.6906 146.2861,227.8079 145.2753,227.9247 144.2643,228.041 143.2533,228.1568 142.2423,228.272 141.2312,228.3868 140.22,228.5012 139.2088,228.6151 138.1976,228.7285 137.1862,228.8416 136.1749,228.9542 135.1635,229.0665 134.1521,229.1784 133.1407,229.29 132.1292,229.4012 131.1177,229.5121 130.1062,229.6228 129.0947,229.7332 128.0831,229.8433 127.0715,229.9531 126.06,230.0628 125.0484,230.1722 124.0369,230.2814 123.0253,230.3905 122.0138,230.4994 121.0022,230.6082 119.9907,230.7168 118.9792,230.8253 117.9677,230.9338 116.9562,231.0422 115.9448,231.1505 114.9334,231.2587 113.922,231.367 112.891,231.4773 111.8598,231.5873 110.8284,231.6969 109.7969,231.8058 108.7652,231.9137 107.7333,232.0204 106.7013,232.1256 105.669,232.2291 104.6366,232.3307 103.604,232.4301 102.5712,232.5271 101.5383,232.6214 100.5051,232.7127 99.4718,232.8009 98.4383,232.8857 97.4046,232.9668 96.3708,233.0441 95.3367,233.1172 94.3024,233.1859 93.268,233.2499 92.2333,233.3091 91.1985,233.3632 90.1634,233.4119 89.1282,233.455 88.0928,233.4922 87.0572,233.5234 86.0213,233.5482 84.9853,233.5664 83.9491,233.5777 82.9126,233.582 81.876,233.579 80.8225,233.5683 79.7693,233.5501 78.7163,233.5247 77.6635,233.4925 76.611,233.4538 75.5587,233.4089 74.5067,233.3581 73.4549,233.3018 72.4033,233.2403 71.3519,233.174 70.3007,233.103 69.2497,233.0279 68.199,232.9488 67.1484,232.8662 66.098,232.7803 65.0478,232.6915 63.9977,232.6001 62.9479,232.5065 61.8982,232.4108 60.8486,232.3136 59.7993,232.2151 58.75,232.1156 57.7009,232.0155 56.652,231.915 55.6185,231.8159 54.585,231.7169 53.5515,231.6178 52.518,231.5187 51.4845,231.4196 50.451,231.3206 49.4175,231.2215 48.384,231.1224 47.3505,231.0234 46.317,230.9243 45.2835,230.8252 44.25,230.7262 43.2165,230.6271 42.183,230.528 41.1495,230.429 40.116,230.3299 39.0825,230.2309 38.049,230.1318 37.0155,230.0327 35.982,229.9337 34.9485,229.8346 33.915,229.7356 32.8815,229.6365 31.848,229.5375 30.8145,229.4384 29.781,229.3394 28.7475,229.2403 27.714,229.1413 26.6805,229.0423 25.647,228.9432 24.6135,228.8442 23.58,228.7452 22.5465,228.6461 21.513,228.5471 20.4795,228.4481 19.446,228.3491 18.4125,228.25 17.379,228.151 16.3455,228.052 15.312,227.953 14.2785,227.854 13.245,227.755" stroke="black" /><polyline fill="none" points="216.777,2.107 216.9783,3.0879 217.1773,4.0691 217.374,5.0507 217.5684,6.0325 217.7605,7.0146 217.9504,7.997 218.138,8.9797 218.3234,9.9626 218.5065,10.9459 218.6875,11.9294 218.8662,12.9132 219.0427,13.8973 219.217,14.8817 219.3891,15.8663 219.5591,16.8513 219.7269,17.8365 219.8926,18.8219 220.0562,19.8076 220.2176,20.7936 220.3769,21.7799 220.5341,22.7664 220.6892,23.7532 220.8422,24.7402 220.9932,25.7275 221.1421,26.715 221.2889,27.7028 221.4337,28.6908 221.5765,29.6791 221.7173,30.6676 221.8561,31.6564 221.9928,32.6454 222.1276,33.6347 222.2604,34.6242 222.3913,35.6139 222.5202,36.6039 222.6471,37.594 222.7722,38.5845 222.8953,39.5751 223.0165,40.566 223.1358,41.5571 223.2532,42.5484 223.3687,43.54 223.4824,44.5317 223.5942,45.5237 223.7042,46.5159 223.8124,47.5083 223.9187,48.5009 224.0232,49.4937 224.1259,50.4867 224.2268,51.48 224.326,52.4734 224.4234,53.467 224.519,54.4609 224.6129,55.4549 224.705,56.4491 224.7954,57.4435 224.8841,58.4381 224.9711,59.4329 225.0564,60.4279 225.14,61.4231 225.222,62.4184 225.3023,63.414 225.3809,64.4097 225.4579,65.4056 225.5333,66.4016 225.6071,67.3979 225.6792,68.3943 225.7498,69.3909 225.8188,70.3876 225.8862,71.3845 225.952,72.3816 226.0163,73.3788 226.079,74.3762 226.1402,75.3738 226.1999,76.3715 226.2581,77.3694 226.3148,78.3674 226.37,79.3655 226.4237,80.3639 226.476,81.3623 226.5268,82.3609 226.5762,83.3597 226.6241,84.3586 226.6706,85.3576 226.7157,86.3568 226.7594,87.356 226.8017,88.3555 226.8426,89.355 226.8821,90.3547 226.9203,91.3545 226.9572,92.3545 226.9927,93.3545 227.0269,94.3547 227.0598,95.355 227.0913,96.3554 227.1216,97.356 227.1506,98.3566 227.1783,99.3574 227.2048,100.3582 227.23,101.3592 227.254,102.3603 227.2767,103.3615 227.2982,104.3628 227.3185,105.3642 227.3377,106.3656 227.3556,107.3672 227.3724,108.3689 227.388,109.3706 227.4024,110.3725 227.4157,111.3744 227.4279,112.3764 227.439,113.3786 227.4489,114.3808 227.4577,115.383 227.4655,116.3854 227.4722,117.3878 227.4778,118.3903 227.4824,119.3929 227.4859,120.3955 227.4884,121.3982 227.4898,122.401 227.4903,123.4038 227.4897,124.4067 227.4882,125.4097 227.4856,126.4127 227.4821,127.4158 227.4777,128.4189 227.4723,129.4221 227.4659,130.4254 227.4587,131.4286 227.4505,132.432 227.4414,133.4353 227.4314,134.4388 227.4206,135.4422 227.4088,136.4457 227.3963,137.4493 227.3828,138.4529 227.3685,139.4565 227.3534,140.4601 227.3375,141.4638 227.3207,142.4675 227.3032,143.4712 227.2849,144.4749 227.2658,145.4787 227.2459,146.4825 227.2253,147.4863 227.2039,148.4901 227.1819,149.4939 227.1591,150.4978 227.1355,151.5016 227.1113,152.5055 227.0864,153.5094 227.0608,154.5132 227.0346,155.5171 227.0077,156.521 226.9801,157.5248 226.9519,158.5287 226.9231,159.5326 226.8937,160.5364 226.8637,161.5403 226.833,162.5441 226.8018,163.5479 226.7701,164.5517 226.7377,165.5555 226.7049,166.5593 226.6714,167.5631 226.6375,168.5668 226.6031,169.5705 226.5681,170.5742 226.5326,171.5778 226.4967,172.5814 226.4603,173.585 226.4234,174.5885 226.3861,175.5921 226.3483,176.5955 226.3101,177.599 226.2715,178.6023 226.2325,179.6057 226.1931,180.609 226.1533,181.6122 226.1131,182.6154 226.0725,183.6186 226.0316,184.6217 225.9904,185.6247 225.9488,186.6277 225.9069,187.6306 225.8647,188.6335 225.8222,189.6362 225.7794,190.639 225.7363,191.6416 225.693,192.6442 225.6494,193.6467 225.6055,194.6492 225.5614,195.6515 225.5171,196.6538 225.4726,197.656 225.4279,198.6582 225.383,199.6602 225.3379,200.6622 225.2926,201.664 225.2472,202.6658 225.2016,203.6675 225.1559,204.6691 225.11,205.6706 225.0641,206.672 225.018,207.6733 224.9719,208.6745 224.9256,209.6756 224.8793,210.6767 224.8329,211.6775 224.7865,212.6783 224.74,213.679 224.6935,214.6796 224.647,215.68" stroke="black" /><polyline fill="none" points="1.562,1.876 2.5677,1.8771 3.5734,1.8782 4.5791,1.8792 5.5847,1.8803 6.5904,1.8814 7.5961,1.8825 8.6018,1.8836 9.6075,1.8846 10.6132,1.8857 11.6189,1.8868 12.6245,1.8879 13.6302,1.889 14.6359,1.89 15.6416,1.8911 16.6473,1.8922 17.653,1.8933 18.6587,1.8944 19.6643,1.8954 20.67,1.8965 21.6757,1.8976 22.6814,1.8987 23.6871,1.8997 24.6928,1.9008 25.6985,1.9019 26.7041,1.903 27.7098,1.9041 28.7155,1.9051 29.7212,1.9062 30.7269,1.9073 31.7326,1.9084 32.7382,1.9095 33.7439,1.9105 34.7496,1.9116 35.7553,1.9127 36.761,1.9138 37.7667,1.9149 38.7723,1.9159 39.778,1.917 40.7837,1.9181 41.7894,1.9192 42.7951,1.9203 43.8008,1.9213 44.8064,1.9224 45.8121,1.9235 46.8178,1.9246 47.8235,1.9257 48.8292,1.9267 49.8348,1.9278 50.8405,1.9289 51.8462,1.93 52.8519,1.9311 53.8576,1.9321 54.8633,1.9332 55.8689,1.9343 56.8746,1.9354 57.8803,1.9364 58.886,1.9375 59.8917,1.9386 60.8973,1.9397 61.903,1.9408 62.9087,1.9418 63.9144,1.9429 64.9201,1.944 65.9258,1.9451 66.9314,1.9462 67.9371,1.9472 68.9428,1.9483 69.9485,1.9494 70.9542,1.9505 71.9598,1.9516 72.9655,1.9526 73.9712,1.9537 74.9769,1.9548 75.9826,1.9559 76.9882,1.957 77.9939,1.958 78.9996,1.9591 80.0053,1.9602 81.011,1.9613 82.0166,1.9624 83.0223,1.9634 84.028,1.9645 85.0337,1.9656 86.0394,1.9667 87.045,1.9678 88.0507,1.9688 89.0564,1.9699 90.0621,1.971 91.0678,1.9721 92.0734,1.9731 93.0791,1.9742 94.0848,1.9753 95.0905,1.9764 96.0962,1.9775 97.1018,1.9785 98.1075,1.9796 99.1132,1.9807 100.1189,1.9818 101.1246,1.9829 102.1302,1.9839 103.1359,1.985 104.1416,1.9861 105.1473,1.9872 106.153,1.9883 107.1586,1.9893 108.1643,1.9904 109.17,1.9915 110.1757,1.9926 111.1814,1.9937 112.187,1.9947 113.1927,1.9958 114.1984,1.9969 115.2041,1.998 116.2098,1.9991 117.2154,2.0001 118.2211,2.0012 119.2268,2.0023 120.2325,2.0034 121.2382,2.0045 122.2438,2.0055 123.2495,2.0066 124.2552,2.0077 125.2609,2.0088 126.2666,2.0099 127.2722,2.0109 128.2779,2.012 129.2836,2.0131 130.2893,2.0142 131.295,2.0152 132.3006,2.0163 133.3063,2.0174 134.312,2.0185 135.3177,2.0196 136.3234,2.0206 137.329,2.0217 138.3347,2.0228 139.3404,2.0239 140.3461,2.025 141.3518,2.026 142.3574,2.0271 143.3631,2.0282 144.3688,2.0293 145.3745,2.0304 146.3802,2.0314 147.3858,2.0325 148.3915,2.0336 149.3972,2.0347 150.4029,2.0358 151.4086,2.0368 152.4142,2.0379 153.4199,2.039 154.4256,2.0401 155.4313,2.0412 156.437,2.0422 157.4427,2.0433 158.4483,2.0444 159.454,2.0455 160.4597,2.0466 161.4654,2.0476 162.4711,2.0487 163.4767,2.0498 164.4824,2.0509 165.4881,2.0519 166.4938,2.053 167.4995,2.0541 168.5052,2.0552 169.5108,2.0563 170.5165,2.0573 171.5222,2.0584 172.5279,2.0595 173.5336,2.0606 174.5392,2.0617 175.5449,2.0627 176.5506,2.0638 177.5563,2.0649 178.562,2.066 179.5677,2.0671 180.5733,2.0681 181.579,2.0692 182.5847,2.0703 183.5904,2.0714 184.5961,2.0725 185.6018,2.0735 186.6075,2.0746 187.6131,2.0757 188.6188,2.0768 189.6245,2.0779 190.6302,2.0789 191.6359,2.08 192.6416,2.0811 193.6472,2.0822 194.6529,2.0833 195.6586,2.0843 196.6643,2.0854 197.67,2.0865 198.6757,2.0876 199.6813,2.0886 200.687,2.0897 201.6927,2.0908 202.6984,2.0919 203.7041,2.093 204.7098,2.094 205.7155,2.0951 206.7211,2.0962 207.7268,2.0973 208.7325,2.0984 209.7382,2.0994 210.7439,2.1005 211.7496,2.1016 212.7552,2.1027 213.7609,2.1038 214.7666,2.1048 215.7723,2.1059 216.778,2.107" stroke="black" /></svg>