<?xml version="1.0" encoding="utf-8" ?>
<svg baseProfile="tiny" height="100%" version="1.2" width="100%" xmlns="http://www.w3.org/2000/svg" xmlns:ev="http://www.w3.org/2001/xml-events" xmlns:xlink="http://www.w3.org/1999/xlink"><defs /><polyline fill="none" points="41.06,11.335 95.524,113.778 114.298,148.839" stroke="black" /><polyline fill="none" points="11.597,22.261 30.594,55.23 30.657,55.224 60.8,107.631" stroke="black" /><polyline fill="none" points="2.0,62.389 30.594,55.23 30.657,55.224 125.622,31.266 125.558,31.236 138.894,28.022" stroke="black" /><polyline fill="none" points="73.391,2.362 137.439,126.071" stroke="black" /><polyline fill="none" points="149.902,73.735 149.894,73.738" stroke="black" /><polyline fill="none" points="150.458,47.358 19.852,83.008" stroke="black" /><polyline fill="none" points="67.583,119.758 150.231,101.685" stroke="black" /><polyline fill="none" points="13.098,109.894 166.379,69.423" stroke="black" /><polyline fill="none" points="122.227,2.0 6.123,38.973" stroke="black" /><polyline fill="none" points="30.594,55.23 30.657,55.224" stroke="black" /><polyline fill="none" points="116.752,15.713 157.5,87.041" stroke="black" /><polyline fill="none" points="125.558,31.236 125.622,31.266" stroke="black" /></svg>