<?xml version="1.0" encoding="utf-8" ?>
<svg baseProfile="tiny" height="100%" version="1.2" width="100%" xmlns="http://www.w3.org/2000/svg" xmlns:ev="http://www.w3.org/2001/xml-events" xmlns:xlink="http://www.w3.org/1999/xlink"><defs /><polyline fill="none" points="123.56,4.52 121.642,4.886 120.6463,5.2094 119.6503,5.532 118.654,5.8537 117.6575,6.1747 116.6608,6.4949 115.6638,6.8145 114.6667,7.1335 113.6694,7.4519 112.6719,7.7698 111.6743,8.0873 110.6766,8.4044 109.6788,8.7211 108.6809,9.0376 107.6829,9.3538 106.6848,9.6699 105.6868,9.9858 104.6887,10.3017 103.6906,10.6176 102.6925,10.9335 101.6944,11.2495 100.6964,11.5657 99.6984,11.882 98.7006,12.1987 97.7028,12.5156 96.7051,12.8329 95.7076,13.1507 94.7102,13.4689 93.713,13.7877 92.716,14.107 91.5645,14.477 90.413,14.8476 89.2612,15.2174 88.1087,15.5855 86.9552,15.9506 85.8003,16.3114 84.6437,16.667 83.485,17.016 81.08,18.08" stroke="black" /><polyline fill="none" points="55.64,100.04 54.5545,100.659 53.4209,101.1409 52.2525,101.5215 51.0628,101.8368 49.8652,102.1227 48.673,102.415 47.6343,102.6847 46.5958,102.9552 45.5575,103.2262 44.5193,103.4979 43.4813,103.77 42.4434,104.0426 41.4055,104.3156 40.3678,104.5889 39.3301,104.8625 38.2925,105.1362 37.2549,105.41 36.2173,105.684 35.1798,105.9579 34.1422,106.2317 33.1045,106.5054 32.0668,106.7788 31.0291,107.0521 29.9912,107.3249 28.9533,107.5974 27.9152,107.8694 26.8769,108.1409 25.8386,108.4118 24.8,108.682 23.6268,108.9888 22.4543,109.2985 21.2822,109.6097 20.1102,109.9213 18.9379,110.232 17.7651,110.5406 16.5914,110.8458 15.4165,111.1463 14.24,111.441" stroke="black" /><polyline fill="none" points="41.72,12.44 41.8296,13.897 42.459,15.189 43.007,16.1682 43.544,17.1532 44.073,18.1424 44.5972,19.134 45.1198,20.1265 45.644,21.118 46.173,22.1069 46.71,23.0914 47.258,24.07 48.0732,25.845 48.728,27.698 49.677,28.055 50.0948,29.0223 50.5277,29.9807 50.9741,30.9308 51.4325,31.8736 51.9013,32.8098 52.3791,33.7403 52.8643,34.6658 53.3555,35.5874 53.851,36.5056 54.3494,37.4215 54.8491,38.3357 55.3487,39.2492 55.8465,40.1627 56.3412,41.0771 56.8312,41.9932 57.3148,42.9118 57.7908,43.8338 58.2574,44.7599 58.7132,45.691 59.1567,46.628 59.5863,47.5716 60.0006,48.5226 60.398,49.482 61.463,50.096 61.8705,51.0604 62.2954,52.0156 62.7359,52.9626 63.1902,53.9022 63.6566,54.8354 64.1331,55.7631 64.6181,56.6862 65.1096,57.6057 65.606,58.5223 66.1053,59.4371 66.6059,60.351 67.1058,61.2648 67.6034,62.1796 68.0967,63.0961 68.5841,64.0154 69.0636,64.9383 69.5335,65.8657 69.9921,66.7986 70.4374,67.7378 70.8677,68.6844 71.2811,69.6391 71.676,70.603 72.681,71.175 73.1095,72.1422 73.5508,73.1017 74.0039,74.0541 74.4673,75.0001 74.9398,75.9404 75.4201,76.8757 75.907,77.8067 76.3991,78.7342 76.8952,79.6588 77.394,80.5811 77.8941,81.502 78.3945,82.4221 78.8937,83.3421 79.3904,84.2627 79.8835,85.1846 80.3715,86.1084 80.8533,87.035 81.3276,87.965 81.7931,88.899 82.2484,89.8378 82.6924,90.7821 83.1236,91.7326 83.541,92.69 84.741,93.368 85.087,94.5852 85.5429,95.7579 86.082,96.8976 86.6772,98.0157 87.3017,99.1236 87.9286,100.2329 88.531,101.355 89.0641,102.3869 89.6015,103.4165 90.1426,104.4442 90.6867,105.4703 91.2331,106.4953 91.7812,107.5193 92.3305,108.5428 92.8801,109.5661 93.4295,110.5895 93.978,111.6133 94.525,112.638 95.245,115.046 96.584,115.664 96.9553,116.7815 97.383,117.8736 97.858,118.9443 98.3715,119.9976 98.9144,121.0378 99.4778,122.0687 100.0527,123.0945 100.6301,124.1193 101.2012,125.1471 101.757,126.182 102.2709,127.1603 102.7862,128.138 103.3028,129.115 103.8205,130.0915 104.3392,131.0675 104.8588,132.043 105.3791,133.0182 105.9001,133.993 106.4215,134.9677 106.9434,135.9421 107.4655,136.9164 107.9877,137.8906 108.5098,138.8648 109.0319,139.8391 109.5537,140.8135 110.0751,141.7881 110.596,142.763 111.1579,143.8223 111.717,144.8834 112.277,145.944 112.8417,147.0016 113.4148,148.0537 114.0,149.098 114.5796,150.3477 114.8877,151.6213 114.92,152.961" stroke="black" /><polyline fill="none" points="157.88,89.96 157.524,88.638 156.9592,87.6854 156.3985,86.7304 155.8412,85.7734 155.2869,84.8147 154.735,83.8546 154.1849,82.8935 153.6359,81.9316 153.0877,80.9694 152.5396,80.007 151.991,79.045 151.2736,77.6469 150.767,76.266 149.524,75.576 148.4422,75.9775 147.3536,76.351 146.2591,76.6999 145.1598,77.0279 144.0564,77.3383 142.95,77.6349 141.8413,77.9212 140.7314,78.2006 139.6212,78.4768 138.5115,78.7533 137.4033,79.0336 136.2975,79.3213 135.195,79.62 134.148,79.9083 133.1001,80.193 132.0513,80.4746 131.0018,80.7536 129.9517,81.0305 128.9011,81.3057 127.8502,81.5796 126.7991,81.8529 125.7479,82.1259 124.6968,82.3991 123.6458,82.673 122.5951,82.9482 121.5449,83.225 120.4952,83.5039 119.4462,83.7854 118.398,84.07 116.001,85.041" stroke="black" /><polyline fill="none" points="136.52,53.0 135.5167,53.5358 134.4835,53.979 133.4265,54.3487 132.3519,54.664 131.2657,54.9438 130.1743,55.2072 129.0837,55.4733 128.0,55.761 126.9648,56.0532 125.9293,56.3441 124.8934,56.6338 123.8573,56.9224 122.8208,57.2098 121.784,57.4962 120.7469,57.7816 119.7096,58.066 118.672,58.3494 117.6341,58.632 116.596,58.9137 115.5578,59.1947 114.5192,59.4749 113.4806,59.7544 112.4417,60.0332 111.4026,60.3114 110.3634,60.589 109.3241,60.8662 108.2846,61.1428 107.245,61.419 105.7571,61.9502 104.36,62.72" stroke="black" /><polyline fill="none" points="125.0,33.44 123.8728,34.0507 122.6974,34.5113 121.4879,34.8641 120.2583,35.1517 119.0227,35.4165 117.795,35.701 116.7793,35.9582 115.7637,36.2158 114.7482,36.4736 113.7327,36.7316 112.7172,36.9895 111.7016,37.2474 110.686,37.5049 109.6702,37.7621 108.6544,38.0188 107.6383,38.2749 106.6221,38.5302 105.6057,38.7846 104.589,39.0381 103.572,39.2904 102.5548,39.5415 101.5372,39.7912 100.5192,40.0394 99.5008,40.2861 98.482,40.5309 97.4627,40.774 96.443,41.015 93.799,42.32" stroke="black" /><polyline fill="none" points="92.48,41.72 91.3411,42.2148 90.1769,42.623 88.9937,42.9658 87.7977,43.2643 86.5952,43.5397 85.3926,43.8132 84.196,44.106 83.1683,44.3719 82.1402,44.6359 81.1116,44.8982 80.0827,45.1591 79.0534,45.4187 78.0239,45.6773 76.9941,45.9349 75.9641,46.1917 74.934,46.4481 73.9038,46.7041 72.8735,46.9599 71.8432,47.2158 70.813,47.4718 69.7828,47.7283 68.7528,47.9853 67.723,48.2431 66.6934,48.5019 65.664,48.7618 64.635,49.023 63.0988,49.5513 61.639,50.24" stroke="black" /><polyline fill="none" points="127.04,108.2 125.9527,108.7107 124.8297,109.0986 123.6816,109.3969 122.519,109.6384 121.3522,109.8561 120.192,110.083 119.1243,110.3092 118.0572,110.5379 116.9905,110.7687 115.9242,111.0012 114.8582,111.2351 113.7925,111.4701 112.7269,111.7057 111.6613,111.9416 110.5958,112.1774 109.5302,112.4127 108.4644,112.6473 107.3983,112.8807 106.3319,113.1125 105.2651,113.3425 104.1978,113.5702 103.1299,113.7952 102.0614,114.0173 100.9921,114.236 99.922,114.451 98.2406,114.9431 96.68,115.76" stroke="black" /><polyline fill="none" points="114.92,84.56 114.5493,83.4378 114.1118,82.3467 113.6223,81.2801 113.0951,80.2312 112.5448,79.1934 111.9859,78.1599 111.433,77.124 110.8942,76.0932 110.358,75.0612 109.8236,74.0283 109.2903,72.9947 108.7575,71.961 108.2245,70.9274 107.6906,69.8942 107.155,68.8619 106.6172,67.8308 106.0763,66.8012 105.5318,65.7735 104.983,64.748 104.4271,63.1505 103.221,62.081 102.8318,60.8938 102.3768,59.7458 101.87,58.6294 101.3252,57.5373 100.7564,56.4617 100.1773,55.3951 99.6019,54.3301 99.044,53.259 98.5078,52.2001 97.9696,51.1417 97.4284,50.0845 96.8831,49.0293 96.3329,47.9765 95.7766,46.9269 95.2133,45.8812 94.642,44.84 93.806,42.439 92.561,41.682 92.2074,40.5266 91.7803,39.4022 91.2938,38.3029 90.7616,37.2224 90.1977,36.1548 89.6159,35.0938 89.0301,34.0334 88.4542,32.9675 87.902,31.89 87.404,30.8902 86.8992,29.8937 86.3889,28.8999 85.8743,27.9082 85.3567,26.918 84.8373,25.9286 84.3173,24.9395 83.798,23.95 83.2807,22.9595 82.7666,21.9674 82.257,20.973 81.5792,19.4801 80.975,17.988 79.526,17.968 78.0176,18.7575 76.402,19.286 75.385,19.6105 74.368,19.935 73.3509,20.2594 72.3338,20.5837 71.3167,20.9079 70.2995,21.2321 69.2823,21.5561 68.265,21.8801 67.2477,22.2039 66.2304,22.5275 65.213,22.8511 64.1955,23.1744 63.178,23.4976 62.1604,23.8206 61.1428,24.1433 60.1251,24.4659 59.1073,24.7883 58.0895,25.1104 57.0715,25.4322 56.0535,25.7538 55.0354,26.0752 54.0173,26.3962 52.999,26.717 51.4046,27.3666 49.88,28.161" stroke="black" /><polyline fill="none" points="103.04,62.12 102.0245,62.6232 100.988,63.0595 99.9339,63.4399 98.8657,63.7756 97.7869,64.0775 96.701,64.3568 95.6115,64.6244 94.5218,64.8914 93.4355,65.1689 92.356,65.468 91.295,65.7747 90.2327,66.0767 89.1693,66.3747 88.1049,66.6692 87.0397,66.9608 85.9738,67.2502 84.9075,67.5378 83.8409,67.8244 82.7741,68.1104 81.7073,68.3964 80.6407,68.6832 79.5745,68.9711 78.5087,69.2609 77.4436,69.5531 76.3793,69.8482 75.316,70.147 72.92,71.36" stroke="black" /><polyline fill="none" points="137.84,127.88 137.3374,126.92 136.8367,125.9591 136.3375,124.9973 135.8393,124.035 135.3419,123.0724 134.8447,122.1096 134.3475,121.1469 133.8497,120.1844 133.3512,119.2223 132.8513,118.261 132.3498,117.3005 131.8463,116.341 131.3403,115.3828 130.8316,114.4261 130.3196,113.4711 129.804,112.518 128.9556,110.7711 128.399,108.905 127.133,108.174 126.7671,107.0192 126.3358,105.8929 125.8509,104.7897 125.3239,103.7045 124.7667,102.6321 124.1908,101.5673 123.6079,100.505 123.0298,99.44 122.468,98.367 121.9451,97.3384 121.423,96.3093 120.9003,95.2804 120.3755,94.2525 119.8473,93.2264 119.314,92.2027 118.7743,91.1823 118.2267,90.1659 117.6697,89.1542 117.102,88.148 116.478,86.6894 116.001,85.137 114.438,84.796 113.3438,85.2368 112.2359,85.6305 111.1167,85.9848 109.9884,86.3076 108.8532,86.607 107.7136,86.8908 106.5718,87.1668 105.4301,87.4431 104.2907,87.7276 103.156,88.028 102.1193,88.3121 101.0822,88.5943 100.0445,88.8748 99.0064,89.1537 97.9678,89.431 96.9288,89.7069 95.8895,89.9813 94.8497,90.2544 93.8096,90.5263 92.7692,90.797 91.7285,91.0666 90.6875,91.3352 89.6462,91.603 88.6047,91.8699 87.563,92.136 86.1551,92.6524 84.799,93.321" stroke="black" /><polyline fill="none" points="71.6,70.76 70.4901,71.2646 69.358,71.6983 68.2084,72.0757 67.0458,72.4116 65.8748,72.7206 64.7001,73.0172 63.5263,73.3161 62.358,73.632 61.263,73.9399 60.1672,74.2449 59.0708,74.5475 57.9738,74.848 56.8764,75.147 55.7787,75.4449 54.6808,75.742 53.5827,76.0388 52.4847,76.3357 51.3868,76.6332 50.2892,76.9316 49.192,77.2315 48.0952,77.5331 46.999,77.837 44.468,78.939 42.939,78.325 42.5946,77.043 42.0895,75.8378 41.4756,74.6868 40.8051,73.5677 40.13,72.458 39.575,71.517 39.0241,70.5736 38.4763,69.6285 37.9307,68.682 37.3865,67.7348 36.8427,66.7874 36.2985,65.8402 35.753,64.8939 35.2053,63.9488 34.6544,63.0055 34.0995,62.0647 33.5396,61.1266 32.974,60.192 32.205,57.876 30.683,57.074 29.6419,57.5238 28.5872,57.9259 27.5208,58.2868 26.4447,58.6132 25.3607,58.9114 24.2706,59.1881 23.1764,59.4497 22.08,59.7028 20.9831,59.9539 19.8877,60.2094 18.7957,60.4759 17.709,60.76 16.6256,61.0522 15.5409,61.3394 14.4548,61.6223 13.3677,61.9015 12.2797,62.1777 11.1911,62.4516 10.1019,62.7238 9.0124,62.9948 7.9227,63.2655 6.8331,63.5363 5.7438,63.8081 4.6549,64.0813 3.5665,64.3568 2.479,64.635 2.0,64.64" stroke="black" /><polyline fill="none" points="48.56,27.8 47.563,28.2734 46.5518,28.7059 45.5284,29.1034 44.495,29.4721 43.4536,29.8177 42.4062,30.1463 41.3551,30.4639 40.3022,30.7763 39.2497,31.0897 38.1996,31.4099 37.154,31.743 36.0693,32.0981 34.9845,32.4529 33.8993,32.807 32.8137,33.16 31.7276,33.5115 30.6409,33.861 29.5534,34.2083 28.465,34.5529 27.3757,34.8945 26.2852,35.2325 25.1935,35.5667 24.1005,35.8967 23.006,36.222 20.359,37.52" stroke="black" /><polyline fill="none" points="60.32,49.64 59.2905,50.131 58.2388,50.5474 57.1689,50.9027 56.0848,51.2103 54.9907,51.4833 53.8904,51.7353 52.7882,51.9795 51.6881,52.2293 50.594,52.498 49.5573,52.7667 48.5204,53.0347 47.4833,53.3018 46.4459,53.568 45.4081,53.8329 44.37,54.0964 43.3315,54.3584 42.2926,54.6187 41.2532,54.8771 40.2132,55.1335 39.1726,55.3877 38.1315,55.6395 37.0897,55.8887 36.0472,56.1353 35.004,56.379 33.52,56.9136 32.12,57.68" stroke="black" /><polyline fill="none" points="95.12,115.16 93.9909,115.6689 92.8274,116.052 91.6399,116.3461 90.4386,116.588 89.2339,116.8144 88.036,117.062 86.9979,117.297 85.9595,117.5302 84.9206,117.7617 83.8814,117.9918 82.8418,118.2205 81.802,118.448 80.762,118.6745 79.7218,118.9002 78.6814,119.1253 77.6409,119.3498 76.6003,119.574 75.5596,119.798 74.519,120.022 73.4784,120.2462 72.4378,120.4707 71.3974,120.6958 70.3571,120.9215 69.317,121.148 68.24,121.4" stroke="black" /><polyline fill="none" points="83.36,92.84 82.1756,93.4125 80.9559,93.8763 79.7105,94.2607 78.4491,94.595 77.1814,94.9084 75.917,95.23 74.8218,95.5209 73.7264,95.8109 72.6308,96.1001 71.5349,96.3887 70.4389,96.6768 69.3428,96.9646 68.2467,97.2522 67.1506,97.5398 66.0544,97.8275 64.9584,98.1156 63.8625,98.404 62.7668,98.693 61.6712,98.9827 60.576,99.2734 59.481,99.565 57.08,100.64" stroke="black" /><polyline fill="none" points="42.8,78.44 41.6872,79.1107 40.5154,79.6156 39.3022,80.0021 38.0653,80.3177 36.822,80.6098 35.59,80.926 34.5035,81.2307 33.4161,81.5322 32.3279,81.8312 31.2392,82.1281 30.15,82.4235 29.0605,82.718 27.971,83.0122 26.8814,83.3066 25.7921,83.6019 24.7031,83.8984 23.6147,84.197 22.5269,84.4979 21.44,84.802 19.039,85.039" stroke="black" /><polyline fill="none" points="152.12,103.34 150.9674,103.4432 149.8269,103.6108 148.6956,103.8267 147.5705,104.0748 146.4485,104.339 145.3267,104.6031 144.202,104.851 143.1001,105.0817 141.9987,105.3149 140.8978,105.5504 139.7973,105.7879 138.6971,106.0271 137.5972,106.2675 136.4976,106.5089 135.3981,106.7511 134.2986,106.9936 133.1992,107.2361 132.0997,107.4783 131.0,107.72 128.36,108.8" stroke="black" /><polyline fill="none" points="117.08,16.4 117.1159,17.7575 117.4854,19.0241 118.122,20.263 118.6831,21.2025 119.2393,22.145 119.7914,23.0901 120.3402,24.0371 120.8864,24.9857 121.4308,25.9355 121.9741,26.8859 122.5171,27.8365 123.0606,28.7869 123.6053,29.7365 124.152,30.685 125.144,33.318 126.724,34.066 127.0131,35.2048 127.4275,36.2872 127.9363,37.3274 128.5083,38.3399 129.1125,39.3388 129.7178,40.3384 130.293,41.353 130.8736,42.417 131.4683,43.4732 132.0729,44.5237 132.6837,45.5709 133.2966,46.6169 133.9077,47.664 134.5131,48.7144 135.1089,49.7703 135.691,50.834 136.486,52.847 138.023,53.804 138.304,54.9329 138.733,56.0053 139.2676,57.0386 139.8657,58.0504 140.4849,59.058 141.083,60.079 141.6367,61.072 142.1949,62.0625 142.7568,63.0508 143.3217,64.0375 143.889,65.0228 144.4579,66.0072 145.0278,66.991 145.5979,67.9747 146.1675,68.9587 146.7361,69.9433 147.3028,70.9289 147.867,71.9161 148.428,72.905 149.36,75.441" stroke="black" /><polyline fill="none" points="44.48,79.04 44.8239,80.4502 45.4235,81.7419 46.1551,82.9703 46.895,84.191 47.4335,85.136 47.9736,86.0801 48.5151,87.0234 49.0578,87.966 49.6016,88.908 50.1464,89.8495 50.692,90.7904 51.2383,91.731 51.785,92.6713 52.3321,93.6113 52.8794,94.5513 53.4267,95.4911 53.974,96.431 54.8882,98.1275 55.579,99.854 57.157,100.859 57.4597,102.1457 57.973,103.3597 58.6178,104.5309 59.3152,105.6897 59.986,106.866 61.413,109.27 61.76,110.72" stroke="black" /><polyline fill="none" points="12.68,24.92 13.2191,25.9529 13.777,26.975 14.3496,27.9888 14.9328,28.9965 15.5226,30.0006 16.1147,31.0032 16.7053,32.0067 17.2901,33.0136 17.865,34.026 18.6059,35.5024 19.199,37.05 20.215,37.43 20.6437,38.4839 21.1148,39.5093 21.6211,40.5105 22.1551,41.4924 22.7096,42.4594 23.2772,43.4162 23.8506,44.3673 24.4224,45.3174 24.9853,46.2711 25.532,47.233 26.1186,48.2861 26.71,49.3366 27.3061,50.3846 27.9068,51.43 28.5121,52.4727 29.1219,53.5127 29.736,54.55 30.561,56.959" stroke="black" /><polyline fill="none" points="168.68,71.36 167.3126,71.341 165.9821,71.5254 164.6755,71.8402 163.3798,72.2122 162.082,72.568 160.9131,72.8643 159.7464,73.1701 158.581,73.4808 157.4159,73.7921 156.25,74.0995 155.0824,74.3986 153.912,74.685 152.2525,75.2894 150.68,76.04" stroke="black" /><polyline fill="none" points="73.52,2.0 73.5346,3.5181 73.9287,4.9433 74.574,6.334 75.1099,7.3475 75.6531,8.3574 76.1998,9.3657 76.7461,10.3742 77.2883,11.3849 77.8225,12.3996 78.3449,13.4202 78.8516,14.4487 79.3389,15.4869 79.803,16.5367 80.24,17.6" stroke="black" /><polyline fill="none" points="151.64,49.64 149.7445,49.8325 147.927,50.388 146.7038,50.7147 145.4807,51.0429 144.2581,51.3737 143.0366,51.7088 141.8167,52.0494 140.599,52.397 137.96,53.601" stroke="black" /><polyline fill="none" points="140.72,30.32 139.5447,30.3572 138.3964,30.5344 137.2659,30.8031 136.1436,31.115 135.0201,31.4214 133.886,31.674 131.9644,32.1241 130.042,32.611 128.3471,33.1496 126.8,34.04" stroke="black" /><polyline fill="none" points="19.04,37.16 18.0115,37.6481 16.968,38.0931 15.9119,38.5015 14.8453,38.8799 13.7707,39.235 12.6904,39.5734 11.6065,39.9017 10.5214,40.2265 9.4375,40.5544 8.3569,40.892 7.282,41.246 5.6,41.36" stroke="black" /></svg>