<?xml version="1.0" encoding="utf-8" ?>
<svg baseProfile="tiny" height="100%" version="1.2" width="100%" xmlns="http://www.w3.org/2000/svg" xmlns:ev="http://www.w3.org/2001/xml-events" xmlns:xlink="http://www.w3.org/1999/xlink"><defs /><polyline fill="none" points="201.413,140.935 177.406,94.055 126.635,102.589 162.567,65.086 138.556,18.206 184.772,41.906 220.704,4.398 213.334,56.552 259.55,80.252 208.783,88.785 201.413,140.935 201.413,140.935" stroke="black" /><polyline fill="none" points="68.137,190.273 68.1444,189.2646 68.1665,188.2564 68.2033,187.2486 68.2549,186.2414 68.3211,185.2352 68.4021,184.23 68.4977,183.226 68.608,182.2236 68.7329,181.2229 68.8725,180.2242 69.0266,179.2276 69.1953,178.2333 69.3784,177.2416 69.5761,176.2527 69.7881,175.2668 70.0146,174.2841 70.2554,173.3048 70.5105,172.3292 70.7798,171.3573 71.0632,170.3896 71.3608,169.426 71.6725,168.4669 71.9981,167.5125 72.3376,166.5629 72.6909,165.6184 73.0581,164.6791 73.4389,163.7453 73.8333,162.8172 74.2412,161.8949 74.6626,160.9787 75.0973,160.0687 75.5452,159.1652 76.0064,158.2684 76.4805,157.3783 76.9676,156.4953 77.4676,155.6195 77.9803,154.7511 78.5057,153.8903 79.0435,153.0373 79.5938,152.1922 80.1564,151.3552 80.7311,150.5266 81.3179,149.7064 81.9166,148.8949 82.5271,148.0922 83.1492,147.2986 83.7829,146.5141 84.428,145.7389 85.0843,144.9733 85.7518,144.2173 86.4302,143.4712 87.1195,142.735 87.8194,142.0091 88.5299,141.2934 89.2508,140.5881 89.9819,139.8935 90.723,139.2097 91.4741,138.5367 92.2349,137.8748 93.0053,137.224 93.7852,136.5846 94.5743,135.9567 95.3725,135.3404 96.1796,134.7358 96.9954,134.143 97.8199,133.5622 98.6527,132.9936 99.4937,132.4371 100.3428,131.893 101.1998,131.3614 102.0644,130.8424 102.9365,130.336 103.816,129.8425 104.7025,129.3618 105.596,128.8942 106.4962,128.4396 107.4029,127.9983 108.316,127.5702 109.2353,127.1556 110.1605,126.7544 111.0915,126.3668 112.0281,125.9928 112.97,125.6325 113.917,125.2861 114.8691,124.9535 115.8259,124.6349 116.7872,124.3303 117.7529,124.0397 118.7228,123.7633 119.6965,123.5011 120.6741,123.2532 121.6551,123.0196 122.6394,122.8003 123.6268,122.5954 124.6172,122.405 125.6101,122.2291 126.6056,122.0677 127.6033,121.9209 128.6031,121.7886 129.6046,121.671 130.6078,121.5681 131.6124,121.4798 132.6182,121.4061 133.6249,121.3472 134.6324,121.303 135.6404,121.2736 136.6488,121.2588 137.6572,121.2588 138.6656,121.2736 139.6736,121.303 140.6811,121.3472 141.6878,121.4061 142.6936,121.4798 143.6982,121.5681 144.7014,121.671 145.7029,121.7886 146.7027,121.9209 147.7004,122.0677 148.6959,122.2291 149.6888,122.405 150.6792,122.5954 151.6666,122.8003 152.6509,123.0196 153.6319,123.2532 154.6095,123.5011 155.5832,123.7633 156.5531,124.0397 157.5188,124.3303 158.4801,124.6349 159.4369,124.9535 160.389,125.2861 161.336,125.6325 162.2779,125.9928 163.2145,126.3668 164.1455,126.7544 165.0707,127.1556 165.99,127.5702 166.9031,127.9983 167.8098,128.4396 168.71,128.8942 169.6035,129.3618 170.49,129.8425 171.3695,130.336 172.2416,130.8424 173.1062,131.3614 173.9632,131.893 174.8123,132.4371 175.6533,132.9936 176.4861,133.5622 177.3106,134.143 178.1264,134.7358 178.9335,135.3404 179.7317,135.9567 180.5208,136.5846 181.3007,137.224 182.0711,137.8748 182.8319,138.5367 183.583,139.2097 184.3241,139.8935 185.0552,140.5881 185.7761,141.2934 186.4866,142.0091 187.1865,142.735 187.8758,143.4712 188.5542,144.2173 189.2217,144.9733 189.878,145.7389 190.5231,146.5141 191.1568,147.2986 191.7789,148.0922 192.3894,148.8949 192.9881,149.7064 193.5749,150.5266 194.1496,151.3552 194.7122,152.1922 195.2625,153.0373 195.8003,153.8903 196.3257,154.7511 196.8384,155.6195 197.3384,156.4953 197.8255,157.3783 198.2996,158.2684 198.7608,159.1652 199.2087,160.0687 199.6434,160.9787 200.0648,161.8949 200.4727,162.8172 200.8671,163.7453 201.2479,164.6791 201.6151,165.6184 201.9684,166.5629 202.3079,167.5125 202.6335,168.4669 202.9452,169.426 203.2428,170.3896 203.5262,171.3573 203.7955,172.3292 204.0506,173.3048 204.2914,174.2841 204.5179,175.2668 204.7299,176.2527 204.9276,177.2416 205.1107,178.2333 205.2794,179.2276 205.4335,180.2242 205.5731,181.2229 205.698,182.2236 205.8083,183.226 205.9039,184.23 205.9849,185.2352 206.0511,186.2414 206.1027,187.2486 206.1395,188.2564 206.1616,189.2646 206.169,190.273 206.1616,191.2814 206.1395,192.2896 206.1027,193.2974 206.0511,194.3046 205.9849,195.3108 205.9039,196.316 205.8083,197.32 205.698,198.3224 205.5731,199.3231 205.4335,200.3218 205.2794,201.3184 205.1107,202.3127 204.9276,203.3044 204.7299,204.2933 204.5179,205.2792 204.2914,206.2619 204.0506,207.2412 203.7955,208.2168 203.5262,209.1887 203.2428,210.1564 202.9452,211.12 202.6335,212.0791 202.3079,213.0335 201.9684,213.9831 201.6151,214.9276 201.2479,215.8669 200.8671,216.8007 200.4727,217.7288 200.0648,218.6511 199.6434,219.5673 199.2087,220.4773 198.7608,221.3808 198.2996,222.2776 197.8255,223.1677 197.3384,224.0507 196.8384,224.9265 196.3257,225.7949 195.8003,226.6557 195.2625,227.5087 194.7122,228.3538 194.1496,229.1908 193.5749,230.0194 192.9881,230.8396 192.3894,231.6511 191.7789,232.4538 191.1568,233.2474 190.5231,234.0319 189.878,234.8071 189.2217,235.5727 188.5542,236.3287 187.8758,237.0748 187.1865,237.811 186.4866,238.5369 185.7761,239.2526 185.0552,239.9579 184.3241,240.6525 183.583,241.3363 182.8319,242.0093 182.0711,242.6712 181.3007,243.322 180.5208,243.9614 179.7317,244.5893 178.9335,245.2056 178.1264,245.8102 177.3106,246.403 176.4861,246.9838 175.6533,247.5524 174.8123,248.1089 173.9632,248.653 173.1062,249.1846 172.2416,249.7036 171.3695,250.21 170.49,250.7035 169.6035,251.1842 168.71,251.6518 167.8098,252.1064 166.9031,252.5477 165.99,252.9758 165.0707,253.3904 164.1455,253.7916 163.2145,254.1792 162.2779,254.5532 161.336,254.9135 160.389,255.2599 159.4369,255.5925 158.4801,255.9111 157.5188,256.2157 156.5531,256.5063 155.5832,256.7827 154.6095,257.0449 153.6319,257.2928 152.6509,257.5264 151.6666,257.7457 150.6792,257.9506 149.6888,258.141 148.6959,258.3169 147.7004,258.4783 146.7027,258.6251 145.7029,258.7574 144.7014,258.875 143.6982,258.9779 142.6936,259.0662 141.6878,259.1399 140.6811,259.1988 139.6736,259.243 138.6656,259.2724 137.6572,259.2872 136.6488,259.2872 135.6404,259.2724 134.6324,259.243 133.6249,259.1988 132.6182,259.1399 131.6124,259.0662 130.6078,258.9779 129.6046,258.875 128.6031,258.7574 127.6033,258.6251 126.6056,258.4783 125.6101,258.3169 124.6172,258.141 123.6268,257.9506 122.6394,257.7457 121.6551,257.5264 120.6741,257.2928 119.6965,257.0449 118.7228,256.7827 117.7529,256.5063 116.7872,256.2157 115.8259,255.9111 114.8691,255.5925 113.917,255.2599 112.97,254.9135 112.0281,254.5532 111.0915,254.1792 110.1605,253.7916 109.2353,253.3904 108.316,252.9758 107.4029,252.5477 106.4962,252.1064 105.596,251.6518 104.7025,251.1842 103.816,250.7035 102.9365,250.21 102.0644,249.7036 101.1998,249.1846 100.3428,248.653 99.4937,248.1089 98.6527,247.5524 97.8199,246.9838 96.9954,246.403 96.1796,245.8102 95.3725,245.2056 94.5743,244.5893 93.7852,243.9614 93.0053,243.322 92.2349,242.6712 91.4741,242.0093 90.723,241.3363 89.9819,240.6525 89.2508,239.9579 88.5299,239.2526 87.8194,238.5369 87.1195,237.811 86.4302,237.0748 85.7518,236.3287 85.0843,235.5727 84.428,234.8071 83.7829,234.0319 83.1492,233.2474 82.5271,232.4538 81.9166,231.6511 81.3179,230.8396 80.7311,230.0194 80.1564,229.1908 79.5938,228.3538 79.0435,227.5087 78.5057,226.6557 77.9803,225.7949 77.4676,224.9265 76.9676,224.0507 76.4805,223.1677 76.0064,222.2776 75.5452,221.3808 75.0973,220.4773 74.6626,219.5673 74.2412,218.6511 73.8333,217.7288 73.4389,216.8007 73.0581,215.8669 72.6909,214.9276 72.3376,213.9831 71.9981,213.0335 71.6725,212.0791 71.3608,211.12 71.0632,210.1564 70.7798,209.1887 70.5105,208.2168 70.2554,207.2412 70.0146,206.2619 69.7881,205.2792 69.5761,204.2933 69.3784,203.3044 69.1953,202.3127 69.0266,201.3184 68.8725,200.3218 68.7329,199.3231 68.608,198.3224 68.4977,197.32 68.4021,196.316 68.3211,195.3108 68.2549,194.3046 68.2033,193.2974 68.1665,192.2896 68.1444,191.2814 68.137,190.273 68.137,190.273" stroke="black" /><polyline fill="none" points="1.0,7.482 108.214,7.482 108.214,122.075 1.0,122.075 1.0,7.482" stroke="black" /></svg>