<?xml version="1.0" encoding="utf-8" ?>
<svg baseProfile="tiny" height="100%" version="1.2" width="100%" xmlns="http://www.w3.org/2000/svg" xmlns:ev="http://www.w3.org/2001/xml-events" xmlns:xlink="http://www.w3.org/1999/xlink"><defs /><polyline fill="none" points="109.143,125.58 110.1575,125.4958 111.1719,125.404 112.1864,125.3052 113.2008,125.2001 114.2152,125.0893 115.2295,124.9733 116.2438,124.8528 117.258,124.7284 118.2722,124.6007 119.2864,124.4703 120.3004,124.3378 121.3144,124.2039 122.3283,124.0691 123.3421,123.9341 124.3559,123.7995 125.3695,123.6658 126.3831,123.5337 127.3966,123.4038 128.4099,123.2767 129.4231,123.1531 130.4362,123.0335 131.4492,122.9185 132.4621,122.8088 133.4748,122.7049 134.4874,122.6076 135.4998,122.5173 136.5121,122.4347 137.5243,122.3605 138.5362,122.2951 139.548,122.2393 140.5597,122.1936 141.5711,122.1587 142.5824,122.1351 143.5935,122.1235 144.6044,122.1245 145.6151,122.1387 146.6256,122.1668 147.6359,122.2092 148.646,122.2666 149.6558,122.3397 150.6654,122.4291 151.6748,122.5353 152.684,122.659 153.7009,122.8023 154.7144,122.9641 155.7244,123.1441 156.7308,123.3423 157.7332,123.5584 158.7314,123.7922 159.7253,124.0436 160.7146,124.3123 161.6991,124.5981 162.6786,124.9009 163.6529,125.2205 164.6218,125.5566 165.585,125.909 166.5423,126.2777 167.4936,126.6624 168.4386,127.0628 169.3771,127.4789 170.3089,127.9103 171.2337,128.357 172.1515,128.8187 173.0618,129.2952 173.9646,129.7864 174.8596,130.292 175.7466,130.8119 176.6254,131.3459 177.4957,131.8937 178.3575,132.4551 179.2103,133.0301 180.0541,133.6184 180.8886,134.2197 181.7137,134.834 182.529,135.461 183.3344,136.1005 184.1296,136.7523 184.9145,137.4162 185.6889,138.0921 186.4524,138.7798 187.205,139.479 187.9465,140.1894 188.677,140.9106 189.3964,141.6424 190.1047,142.3846 190.802,143.1369 191.4881,143.8994 192.163,144.6716 192.8267,145.4534 193.4793,146.2446 194.1205,147.045 194.7506,147.8545 195.3693,148.6727 195.9767,149.4996 196.5727,150.3349 197.1574,151.1784 197.7307,152.0299 198.2925,152.8893 198.8429,153.7562 199.3817,154.6306 199.9091,155.5122 200.4249,156.4009 200.9292,157.2963 201.4219,158.1984 201.9029,159.1069 202.3723,160.0217 202.83,160.9425 203.276,161.8691 203.7103,162.8013 204.1329,163.739 204.5436,164.6819 204.9425,165.6299 205.3296,166.5827 205.7048,167.5401 206.0682,168.502 206.4196,169.4682 206.759,170.4383 207.0865,171.4123 207.402,172.39 207.7174,173.4123 208.0193,174.4402 208.3067,175.4733 208.5786,176.5112 208.8342,177.5535 209.0724,178.5997 209.2924,179.6496 209.4931,180.7026 209.6736,181.7585 209.833,182.8168 209.9703,183.8772 210.0846,184.9391 210.1749,186.0024 210.2403,187.0665 210.2798,188.131 210.2924,189.1956 210.2773,190.2599 210.2335,191.3235 210.1599,192.386 210.0558,193.4469 209.92,194.506 209.7479,195.5834 209.5435,196.6537 209.3077,197.7168 209.0415,198.7723 208.746,199.8201 208.4223,200.86 208.0712,201.8915 207.6939,202.9146 207.2913,203.929 206.8645,204.9344 206.4145,205.9307 205.9424,206.9174 205.4491,207.8945 204.9356,208.8617 204.403,209.8187 203.8524,210.7652 203.2846,211.7011 202.7008,212.6261 202.102,213.54 201.538,214.3725 200.9625,215.1959 200.3756,216.0103 199.7776,216.8156 199.1685,217.612 198.5487,218.3994 197.9182,219.1779 197.2773,219.9474 196.6261,220.708 195.9648,221.4597 195.2935,222.2025 194.6125,222.9365 193.922,223.6617 193.2221,224.378 192.513,225.0856 191.7948,225.7844 191.0678,226.4744 190.3321,227.1557 189.588,227.8283 188.8355,228.4922 188.0749,229.1474 187.3063,229.794 186.53,230.4319 185.746,231.0612 184.9547,231.682 184.1561,232.2941 183.3504,232.8978 182.5378,233.4928 181.7186,234.0794 180.8927,234.6575 180.0606,235.2271 179.2223,235.7882 178.378,236.3409 177.5278,236.8853 176.6721,237.4212 175.8109,237.9487 174.9444,238.4679 174.0728,238.9788 173.1962,239.4813 172.315,239.9756 171.4292,240.4616 170.5389,240.9393 169.6445,241.4088 168.746,241.8701 167.8437,242.3232 166.9378,242.7682 166.0283,243.205 165.1155,243.6336 164.1996,244.0542 163.2807,244.4666 162.359,244.871 161.4087,245.2786 160.4544,245.6782 159.496,246.0694 158.5338,246.4519 157.5678,246.8252 156.5979,247.1889 155.6245,247.5427 154.6474,247.8861 153.6668,248.2188 152.6827,248.5403 151.6953,248.8503 150.7047,249.1483 149.7108,249.434 148.7137,249.707 147.7137,249.9668 146.7106,250.2131 145.7047,250.4455 144.6959,250.6635 143.6844,250.8669 142.6702,251.0551 141.6535,251.2278 140.6342,251.3846 139.6125,251.525 138.5885,251.6488 137.5621,251.7555 136.5336,251.8447 135.503,251.916 134.4303,251.9704 133.3568,252.0049 132.2829,252.0194 131.2088,252.0141 130.1351,251.989 129.0619,251.944 127.9898,251.8794 126.919,251.7951 125.8499,251.6911 124.783,251.5676 123.7184,251.4245 122.6567,251.262 121.5982,251.08 120.5432,250.8786 119.4921,250.6579 118.4453,250.4178 117.4031,250.1586 116.366,249.8801 115.3341,249.5825 114.308,249.2658 113.288,248.93 112.3047,248.5861 111.3283,248.2249 110.3589,247.8469 109.3965,247.4523 108.4412,247.0414 107.493,246.6145 106.5521,246.1719 105.6186,245.7139 104.6923,245.2409 103.7736,244.7531 102.8623,244.2509 101.9586,243.7345 101.0626,243.2042 100.1742,242.6604 99.2937,242.1033 98.421,241.5333 97.5563,240.9506 96.6995,240.3556 95.8508,239.7486 95.0102,239.1299 94.1778,238.4997 93.3537,237.8585 92.5379,237.2064 91.7306,236.5438 90.9317,235.871 90.1413,235.1883 89.3595,234.496 88.5865,233.7944 87.8221,233.0839 87.0666,232.3646 86.32,231.637 85.5689,230.8872 84.8263,230.1279 84.0926,229.3592 83.3683,228.5811 82.6537,227.7937 81.9494,226.997 81.2556,226.191 80.5729,225.3757 79.9016,224.5513 79.2421,223.7177 78.5949,222.875 77.9604,222.0232 77.339,221.1624 76.7311,220.2925 76.1372,219.4137 75.5576,218.5259 74.9927,217.6293 74.4431,216.7238 73.909,215.8095 73.3909,214.8864 72.8893,213.9545 72.4046,213.014 71.937,212.0648 71.4872,211.1069 71.0555,210.1405 70.6423,209.1655 70.248,208.182 69.873,207.19 69.5419,206.2594 69.229,205.3244 68.9343,204.3852 68.6576,203.442 68.3987,202.495 68.1575,201.5444 67.9339,200.5903 67.7276,199.6331 67.5386,198.6727 67.3667,197.7096 67.2117,196.7438 67.0735,195.7755 66.952,194.805 66.8469,193.8325 66.7582,192.858 66.6857,191.8819 66.6293,190.9044 66.5887,189.9255 66.564,188.9456 66.5548,187.9648 66.561,186.9832 66.5826,186.0012 66.6193,185.0189 66.6711,184.0364 66.7377,183.0541 66.819,182.072 66.9149,181.0904 67.0251,180.1095 67.1497,179.1294 67.2883,178.1504 67.4409,177.1726 67.6074,176.1963 67.7875,175.2217 67.9811,174.2488 68.1881,173.2781 68.4083,172.3095 68.6416,171.3434 68.8878,170.3798 69.1468,169.4191 69.4184,168.4614 69.7024,167.5069 69.9988,166.5558 70.3074,165.6083 70.628,164.6646 70.9605,163.7249 71.3047,162.7893 71.6605,161.8582 72.0277,160.9315 72.4062,160.0097 72.7958,159.0928 73.1964,158.1811 73.6079,157.2747 74.0301,156.3738 74.4627,155.4787 74.9058,154.5895 75.3591,153.7065 75.8225,152.8297 76.2959,151.9595 76.779,151.096 77.2859,150.2191 77.8076,149.3493 78.3438,148.4868 78.8945,147.6322 79.4595,146.786 80.0386,145.9486 80.6317,145.1204 81.2386,144.3019 81.8591,143.4935 82.4932,142.6956 83.1406,141.9089 83.8013,141.1335 84.475,140.3701 85.1616,139.6191 85.861,138.8809 86.573,138.156 87.2974,137.4447 88.0341,136.7477 88.7829,136.0652 89.5437,135.3979 90.3164,134.746 91.1007,134.1101 91.8966,133.4906 92.7038,132.8879 93.5222,132.3026 94.3518,131.735 95.1922,131.1856 96.0434,130.6549 96.9052,130.1432 97.7774,129.6512 98.66,129.1791 99.5527,128.7274 100.4553,128.2967 101.3679,127.8872 102.2901,127.4996 103.2218,127.1342 104.163,126.7915 105.1133,126.472 106.0728,126.176 107.0411,125.904 108.0183,125.6565 109.004,125.434" stroke="black" /><polyline fill="none" points="140.843,11.852 141.4567,12.4362 142.0948,13.0146 142.7563,13.5873 143.4405,14.1546 144.1465,14.7167 144.8734,15.2735 145.6206,15.8254 146.387,16.3724 147.172,16.9147 147.9746,17.4526 148.794,17.986 149.6295,18.5153 150.4801,19.0404 151.345,19.5617 152.2235,20.0792 153.1147,20.5932 154.0177,21.1037 154.9317,21.6109 155.8559,22.115 156.7895,22.6162 157.7316,23.1145 158.6814,23.6102 159.6381,24.1034 160.6009,24.5942 161.5688,25.0829 162.5411,25.5695 163.517,26.0543 164.4956,26.5373 165.476,27.0188 166.4576,27.4989 167.4394,27.9777 168.4205,28.4554 169.4003,28.9322 170.3777,29.4083 171.3521,29.8836 172.3226,30.3586 173.2883,30.8332 174.2484,31.3076 175.2021,31.7821 176.1486,32.2567 177.087,32.7316 178.0165,33.207 178.9362,33.683 179.8454,34.1598 180.7433,34.6375 181.6288,35.1163 182.5014,35.5964 183.36,36.0779 184.2039,36.5609 185.0323,37.0456 185.8443,37.5323 186.6391,38.0209 187.4159,38.5117 188.1738,39.0049 188.912,39.5006 189.6297,39.9989 190.326,40.5 191.1118,39.6188 191.8815,38.7481 192.6358,37.8875 193.3755,37.0368 194.1013,36.1957 194.814,35.3639 195.5142,34.5412 196.2028,33.7273 196.8805,32.922 197.548,32.125 198.206,31.3359 198.8553,30.5547 199.4967,29.7809 200.1309,29.0143 200.7586,28.2547 201.3805,27.5018 201.9975,26.7553 202.6102,26.015 203.2194,25.2805 203.8259,24.5517 204.4303,23.8283 205.0334,23.1099 205.636,22.3964 206.2387,21.6875 206.8424,20.9828 207.4478,20.2822 208.0556,19.5854 208.6666,18.892 209.2815,18.2019 209.901,17.5148 210.5259,16.8304 211.1569,16.1485 211.7948,15.4687 212.4403,14.7908 213.0942,14.1146 213.7571,13.4397 214.4299,12.766 215.1133,12.0931 215.8079,11.4208 216.5146,10.7488 217.2342,10.0769 217.9672,9.4048 218.7146,8.7321 219.477,8.0588 220.2551,7.3844 221.0497,6.7088 221.8616,6.0316 222.6915,5.3526 223.5401,4.6716 224.4082,3.9882 225.2965,3.3022 226.2057,2.6134 227.1366,1.9214 228.09,1.226 228.0258,2.38 227.9546,3.5166 227.8763,4.6366 227.791,5.7403 227.6985,6.8286 227.5988,7.9019 227.492,8.9609 227.3779,10.0062 227.2566,11.0384 227.1279,12.058 226.9919,13.0658 226.8486,14.0623 226.6978,15.048 226.5396,16.0237 226.3739,16.9899 226.2007,17.9473 226.02,18.8963 225.8317,19.8377 225.6358,20.772 225.4323,21.6999 225.221,22.6219 225.0021,23.5387 224.7754,24.4508 224.5409,25.3589 224.2986,26.2635 224.0484,27.1653 223.7904,28.0649 223.5244,28.9629 223.2505,29.8598 222.9686,30.7564 222.6786,31.6531 222.3806,32.5506 222.0745,33.4496 221.7603,34.3505 221.4379,35.2541 221.1074,36.1608 220.7686,37.0714 220.4215,37.9864 220.0661,38.9065 219.7024,39.8322 219.3303,40.7641 218.9498,41.7028 218.5609,42.6491 218.1635,43.6033 217.7576,44.5663 217.3432,45.5385 216.9202,46.5205 216.4885,47.5131 216.0482,48.5167 215.5993,49.532 215.1416,50.5595 214.6752,51.6 214.2,52.654 215.1354,52.8899 216.0695,53.1432 217.0025,53.4133 217.9342,53.6995 218.8649,54.0011 219.7944,54.3174 220.723,54.6476 221.6506,54.9911 222.5773,55.3472 223.5031,55.7152 224.4281,56.0944 225.3523,56.484 226.2759,56.8834 227.1987,57.292 228.121,57.7089 229.0427,58.1335 229.9639,58.565 230.8846,59.0029 231.8049,59.4464 232.7249,59.8947 233.6446,60.3473 234.564,60.8033 235.4832,61.2622 236.4022,61.7231 237.3211,62.1855 238.24,62.6485 239.1589,63.1115 240.0778,63.5739 240.9968,64.0348 241.916,64.4937 242.8353,64.9497 243.7549,65.4023 244.6748,65.8506 245.5951,66.2941 246.5157,66.732 247.4369,67.1635 248.3585,67.5881 249.2806,68.005 250.2034,68.4136 251.1268,68.813 252.0509,69.2026 252.9758,69.5818 253.9014,69.9498 254.828,70.3059 255.7554,70.6494 256.6838,70.9796 257.6132,71.2959 258.5436,71.5975 259.4752,71.8837 260.4079,72.1538 261.3418,72.4071 262.277,72.643 261.4668,73.2569 260.6499,73.839 259.8265,74.39 258.9968,74.9109 258.1607,75.4026 257.3185,75.866 256.4702,76.302 255.616,76.7114 254.756,77.0952 253.8903,77.4541 253.019,77.7893 252.1421,78.1014 251.2599,78.3915 250.3725,78.6603 249.4799,78.9089 248.5823,79.138 247.6798,79.3486 246.7724,79.5416 245.8604,79.7178 244.9438,79.8782 244.0228,80.0235 243.0974,80.1549 242.1677,80.273 241.2339,80.3789 240.2962,80.4733 239.3545,80.5572 238.4091,80.6315 237.46,80.6971 236.5074,80.7549 235.5513,80.8057 234.5919,80.8504 233.6292,80.89 232.6635,80.9253 231.6948,80.9572 230.7233,80.9866 229.7489,81.0144 228.772,81.0415 227.7925,81.0687 226.8106,81.0971 225.8264,81.1273 224.84,81.1605 223.8515,81.1974 222.8611,81.2389 221.8688,81.2859 220.8748,81.3393 219.8792,81.4001 218.8821,81.469 217.8835,81.547 216.8837,81.635 215.8828,81.7339 214.8808,81.8445 213.8779,81.9677 212.8741,82.1045 211.8696,82.2557 210.8645,82.4223 209.859,82.605 209.674,83.4465 209.4915,84.306 209.3116,85.183 209.1345,86.0767 208.96,86.9865 208.7884,87.9117 208.6197,88.8517 208.4539,89.8058 208.2912,90.7734 208.1315,91.7538 207.9751,92.7464 207.8218,93.7504 207.6719,94.7653 207.5253,95.7904 207.3821,96.8249 207.2425,97.8684 207.1064,98.9201 206.974,99.9793 206.8452,101.0454 206.7203,102.1177 206.5992,103.1957 206.4821,104.2785 206.3689,105.3657 206.2597,106.4564 206.1547,107.5501 206.0539,108.6461 205.9574,109.7438 205.8651,110.8424 205.7773,111.9413 205.6939,113.0399 205.6151,114.1376 205.5409,115.2336 205.4713,116.3273 205.4065,117.418 205.3465,118.5051 205.2914,119.588 205.2412,120.6659 205.196,121.7383 205.156,122.8044 205.121,123.8636 205.0913,124.9153 205.0669,125.9587 205.0479,126.9933 205.0342,128.0183 205.0261,129.0332 205.0235,130.0372 205.0266,131.0298 205.0354,132.0102 205.0499,132.9778 205.0703,133.9319 205.0966,134.8719 205.1288,135.7971 205.1671,136.7068 205.2115,137.6005 205.2621,138.4775 205.319,139.337 204.7824,138.6006 204.2437,137.852 203.7032,137.0914 203.1613,136.3193 202.6182,135.5359 202.0744,134.7417 201.53,133.9369 200.9855,133.1219 200.4412,132.2971 199.8974,131.4628 199.3543,130.6192 198.8123,129.7669 198.2718,128.906 197.7331,128.037 197.1964,127.1602 196.6621,126.276 196.1306,125.3846 195.6021,124.4864 195.0769,123.5818 194.5555,122.6711 194.038,121.7546 193.5248,120.8328 193.0163,119.9058 192.5128,118.9742 192.0145,118.0381 191.5219,117.098 191.0352,116.1542 190.5547,115.207 190.0807,114.2568 189.6137,113.3039 189.1539,112.3487 188.7016,111.3915 188.2571,110.4326 187.8208,109.4725 187.393,108.5113 186.974,107.5496 186.5642,106.5875 186.1637,105.6255 185.7731,104.6639 185.3925,103.7031 185.0224,102.7433 184.6629,101.7849 184.3146,100.8284 183.9776,99.8739 183.6523,98.9218 183.3389,97.9726 183.038,97.0265 182.7497,96.0839 182.4743,95.1451 182.2123,94.2104 181.9638,93.2803 181.7293,92.3549 181.5091,91.4348 181.3034,90.5202 181.1126,89.6115 180.937,88.709 180.777,87.813 179.697,87.756 178.6257,87.715 177.5628,87.6897 176.508,87.6797 175.461,87.6847 174.4215,87.7044 173.3892,87.7383 172.3638,87.7862 171.345,87.8477 170.3324,87.9225 169.3259,88.0102 168.325,88.1105 167.3295,88.223 166.3391,88.3475 165.3535,88.4835 164.3723,88.6307 163.3953,88.7888 162.4222,88.9574 161.4527,89.1362 160.4864,89.3248 159.5231,89.523 158.5625,89.7303 157.6042,89.9464 156.6479,90.171 155.6935,90.4037 154.7405,90.6443 153.7886,90.8923 152.8376,91.1473 151.8872,91.4092 150.937,91.6774 149.9867,91.9518 149.0361,92.2318 148.0849,92.5173 147.1326,92.8078 146.1792,93.103 145.2241,93.4026 144.2672,93.7062 143.3081,94.0135 142.3466,94.3242 141.3823,94.6378 140.4149,94.954 139.4441,95.2726 138.4697,95.5932 137.4913,95.9153 136.5086,96.2388 135.5213,96.5632 134.5292,96.8882 133.5318,97.2134 132.529,97.5386 131.5204,97.8633 130.5057,98.1872 129.4846,98.5101 128.4568,98.8314 127.422,99.151 127.9816,98.2877 128.5502,97.4303 129.1277,96.5789 129.714,95.7335 130.3091,94.8944 130.9129,94.0614 131.5253,93.2348 132.1462,92.4145 132.7755,91.6007 133.4133,90.7935 134.0593,89.9929 134.7136,89.199 135.3761,88.4118 136.0466,87.6315 136.7251,86.8582 137.4115,86.0919 138.1058,85.3326 138.8079,84.5806 139.5176,83.8357 140.235,83.0983 140.9599,82.3682 141.6923,81.6456 142.4321,80.9305 143.1792,80.2231 143.9335,79.5235 144.6951,78.8316 145.4637,78.1476 146.2393,77.4715 147.0218,76.8035 147.8112,76.1436 148.6074,75.4919 149.4103,74.8485 150.2199,74.2134 151.0359,73.5867 151.8585,72.9685 152.6875,72.359 153.5228,71.758 154.3644,71.1658 155.2122,70.5825 156.066,70.008 157.6064,68.8443 158.597,67.286 158.8399,66.9209 159.4078,66.2848 160.2264,65.4377 161.2215,64.4399 162.3187,63.3517 163.4438,62.233 164.5225,61.1443 165.4806,60.1456 166.2437,59.2972 166.7376,58.6593 166.888,58.292 166.6475,57.2266 166.3867,56.1873 166.1061,55.1732 165.8065,54.1834 165.4887,53.2169 165.1532,52.2728 164.8008,51.3501 164.4321,50.448 164.0479,49.5654 163.6488,48.7014 163.2355,47.8552 162.8088,47.0257 162.3692,46.212 161.9176,45.4132 161.4546,44.6284 160.9808,43.8566 160.497,43.0968 160.0039,42.3482 159.5021,41.6098 158.9923,40.8807 158.4753,40.1598 157.9517,39.4464 157.4222,38.7394 156.8875,38.0379 156.3483,37.341 155.8053,36.6478 155.2592,35.9572 154.7106,35.2684 154.1603,34.5804 153.6089,33.8923 153.0571,33.2032 152.5057,32.5121 151.9553,31.8181 151.4066,31.1201 150.8603,30.4174 150.317,29.709 149.7776,28.9939 149.2426,28.2712 148.7128,27.5399 148.1888,26.7992 147.6713,26.048 147.1611,25.2855 146.6588,24.5106 146.165,23.7226 145.6806,22.9203 145.2062,22.103 144.7424,21.2696 144.2901,20.4192 143.8497,19.5509 143.4221,18.6638 143.008,17.7569 142.608,16.8292 142.2228,15.8798 141.8531,14.9079 141.4996,13.9124 141.163,12.8924 140.844,11.847" stroke="black" /><polyline fill="none" points="7.98,0.84 8.9895,0.8479 9.999,0.8569 11.0085,0.8669 12.018,0.8781 13.0274,0.8903 14.0369,0.9037 15.0463,0.9181 16.0557,0.9337 17.0651,0.9503 18.0745,0.968 19.0838,0.9868 20.0931,1.0067 21.1024,1.0277 22.1117,1.0498 23.121,1.073 24.1302,1.0973 25.1394,1.1227 26.1485,1.1491 27.1577,1.1767 28.1668,1.2053 29.1758,1.235 30.1849,1.2659 31.1939,1.2978 32.2028,1.3308 33.2118,1.3649 34.2207,1.4001 35.2295,1.4364 36.2383,1.4737 37.2471,1.5122 38.2558,1.5517 39.2645,1.5924 40.2731,1.6341 41.2817,1.677 42.2902,1.7209 43.2987,1.7659 44.3072,1.812 45.3156,1.8592 46.3239,1.9074 47.3322,1.9568 48.3404,2.0073 49.3486,2.0588 50.3567,2.1115 51.3648,2.1652 52.3728,2.22 53.3807,2.2759 54.3886,2.3329 55.3964,2.391 56.4042,2.4502 57.4118,2.5104 58.4195,2.5718 59.427,2.6342 60.4345,2.6978 61.4419,2.7624 62.4493,2.8281 63.4565,2.8949 64.4637,2.9628 65.4709,3.0318 66.4779,3.1018 67.4849,3.173 68.4918,3.2452 69.4986,3.3185 70.5054,3.393 71.512,3.4685 72.5186,3.5451 73.5251,3.6227 74.5315,3.7015 75.5378,3.7814 76.5441,3.8623 77.5502,3.9443 78.5563,4.0275 79.5623,4.1117 80.5681,4.197 81.5739,4.2833 82.5796,4.3708 83.5852,4.4594 84.5907,4.549 85.5962,4.6397 86.6015,4.7315 87.6067,4.8244 88.6118,4.9184 89.6168,5.0135 90.6217,5.1097 91.6265,5.2069 92.6312,5.3052 93.6358,5.4047 94.6403,5.5052 95.6447,5.6068 96.6489,5.7094 97.6531,5.8132 98.6572,5.918 99.6611,6.024 100.6649,6.131 101.6686,6.2391 102.6722,6.3483 103.6757,6.4586 104.679,6.5699 105.6823,6.6824 106.6854,6.7959 107.6884,6.9105 108.6913,7.0262 109.694,7.143 110.979,7.56 111.491,9.565 111.4362,10.5777 111.3813,11.5905 111.3265,12.6032 111.2717,13.616 111.2169,14.6287 111.162,15.6414 111.1072,16.6542 111.0524,17.6669 110.9976,18.6797 110.9427,19.6924 110.8879,20.7051 110.8331,21.7179 110.7783,22.7306 110.7234,23.7433 110.6686,24.7561 110.6138,25.7688 110.559,26.7815 110.5042,27.7943 110.4493,28.807 110.3945,29.8197 110.3397,30.8325 110.2849,31.8452 110.2301,32.8579 110.1752,33.8706 110.1204,34.8834 110.0656,35.8961 110.0108,36.9088 109.956,37.9215 109.9012,38.9343 109.8463,39.947 109.7915,40.9597 109.7367,41.9724 109.6819,42.9852 109.6271,43.9979 109.5723,45.0106 109.5174,46.0233 109.4626,47.036 109.4078,48.0487 109.353,49.0615 109.2982,50.0742 109.2434,51.0869 109.1886,52.0996 109.1337,53.1123 109.0789,54.125 109.0241,55.1377 108.9693,56.1504 108.9145,57.1631 108.8597,58.1758 108.8048,59.1885 108.75,60.2012 108.6952,61.2139 108.6404,62.2267 108.5856,63.2393 108.5308,64.2521 108.476,65.2647 108.4212,66.2774 108.3663,67.2901 108.3115,68.3028 108.2567,69.3155 108.2019,70.3282 108.1471,71.3409 108.0923,72.3536 108.0374,73.3663 107.9826,74.379 107.9278,75.3917 107.873,76.4044 107.8182,77.417 107.7634,78.4297 107.7086,79.4424 107.6537,80.4551 107.5989,81.4678 107.5441,82.4804 107.4893,83.4931 107.4345,84.5058 107.3797,85.5185 107.3248,86.5311 107.27,87.5438 107.2152,88.5565 107.1604,89.5691 107.1056,90.5818 107.0508,91.5945 106.9959,92.6071 106.9411,93.6198 106.8863,94.6325 106.8315,95.6451 106.7767,96.6578 106.7218,97.6704 106.667,98.6831 106.6122,99.6957 106.5574,100.7084 106.5025,101.721 106.4477,102.7337 106.3929,103.7463 106.3381,104.759 106.2833,105.7716 106.2284,106.7843 106.1736,107.7969 106.1188,108.8096 106.064,109.8222 106.0091,110.8348 105.9543,111.8475 105.8995,112.8601 105.8447,113.8727 105.7898,114.8854 105.735,115.898 105.549,117.4175 104.871,118.715 102.44,119.609 101.4386,119.7429 100.4369,119.8718 99.4348,119.9957 98.4324,120.1147 97.4297,120.2289 96.4267,120.3382 95.4233,120.4427 94.4197,120.5425 93.4158,120.6376 92.4116,120.728 91.4072,120.8138 90.4024,120.8951 89.3975,120.9718 88.3922,121.044 87.3868,121.1117 86.3811,121.1751 85.3752,121.2341 84.369,121.2887 83.3627,121.3391 82.3561,121.3853 81.3494,121.4272 80.3425,121.465 79.3354,121.4986 78.3281,121.5282 77.3206,121.5538 76.313,121.5754 75.3053,121.593 74.2974,121.6068 73.2894,121.6166 72.2813,121.6227 71.273,121.6249 70.2647,121.6235 69.2562,121.6183 68.2476,121.6095 67.239,121.5971 66.2303,121.5811 65.2215,121.5615 64.2126,121.5385 63.2037,121.5121 62.1948,121.4822 61.1858,121.449 60.1768,121.4125 59.1677,121.3727 58.1587,121.3297 57.1496,121.2834 56.1405,121.2341 55.1314,121.1816 54.1224,121.126 53.1134,121.0675 52.1044,121.0059 51.0954,120.9414 50.0865,120.874 49.0776,120.8038 48.0688,120.7308 47.0601,120.6549 46.0514,120.5764 45.0429,120.4951 44.0344,120.4112 43.026,120.3248 42.0178,120.2357 41.0096,120.1441 40.0016,120.0501 38.9937,119.9536 37.9859,119.8547 36.9783,119.7535 35.9708,119.65 34.9635,119.5442 33.9564,119.4361 32.9494,119.3259 31.9427,119.2136 30.9361,119.0991 29.9297,118.9826 28.9236,118.8641 27.9176,118.7436 26.9119,118.6212 25.9064,118.4969 24.9011,118.3707 23.8961,118.2427 22.8913,118.113 21.8869,117.9815 20.8826,117.8484 19.8787,117.7136 18.875,117.5772 17.8716,117.4393 16.8686,117.2999 15.8658,117.159 14.8634,117.0166 13.8612,116.8729 12.8595,116.7279 11.858,116.5815 10.8569,116.4339 9.8562,116.285 8.8558,116.135 7.8557,115.9838 6.8561,115.8316 5.8569,115.6783 4.858,115.524 2.792,114.73 2.084,112.325 2.038,111.2433 1.9928,110.1616 1.9484,109.0798 1.9048,107.9981 1.8618,106.9164 1.8196,105.8346 1.7779,104.7529 1.7367,103.6711 1.6961,102.5893 1.6558,101.5075 1.6159,100.4257 1.5764,99.3438 1.5371,98.2619 1.498,97.18 1.4613,96.1638 1.4247,95.1474 1.3881,94.1309 1.3517,93.1143 1.3155,92.0975 1.2795,91.0806 1.2438,90.0635 1.2084,89.0463 1.1734,88.029 1.1387,87.0116 1.1045,85.9941 1.0708,84.9765 1.0376,83.9588 1.0049,82.941 0.9729,81.9232 0.9416,80.9052 0.9109,79.8872 0.881,78.8691 0.8519,77.851 0.8237,76.8329 0.7963,75.8147 0.7698,74.7964 0.7443,73.7781 0.7198,72.7598 0.6963,71.7415 0.674,70.7232 0.6528,69.7048 0.6327,68.6865 0.6139,67.6682 0.5964,66.6499 0.5801,65.6316 0.5653,64.6133 0.5518,63.595 0.5398,62.5768 0.5292,61.5587 0.5202,60.5406 0.5128,59.5225 0.5069,58.5045 0.5028,57.4866 0.5003,56.4687 0.4996,55.4509 0.5007,54.4332 0.5036,53.4156 0.5083,52.3981 0.515,51.3807 0.5237,50.3635 0.5344,49.3463 0.5471,48.3292 0.5619,47.3123 0.5789,46.2955 0.598,45.2789 0.6194,44.2624 0.6431,43.2461 0.669,42.2299 0.6973,41.2139 0.728,40.198 0.7612,39.1823 0.7968,38.1669 0.8349,37.1516 0.8757,36.1365 0.919,35.1216 0.965,34.1069 1.0137,33.0924 1.0652,32.0782 1.1195,31.0641 1.1765,30.0503 1.2365,29.0368 1.2994,28.0235 1.3652,27.0104 1.4341,25.9976 1.506,24.9851 1.581,23.9728 1.6591,22.9608 1.7404,21.9491 1.825,20.9377 1.9128,19.9265 2.0039,18.9157 2.0984,17.9052 2.1963,16.895 2.2976,15.8851 2.4024,14.8755 2.5107,13.8663 2.6226,12.8574 2.7381,11.8488 2.8573,10.8406 2.9802,9.8327 3.1068,8.8252 3.2373,7.8181 3.3715,6.8113 3.5097,5.805 3.6517,4.799 3.7977,3.7934 3.9478,2.7882 4.1018,1.7834 4.26,0.779 5.6753,1.3431 7.1833,1.5596 8.7,1.417" stroke="black" /></svg>