<?xml version="1.0" encoding="utf-8" ?>
<svg baseProfile="tiny" height="100%" version="1.2" width="100%" xmlns="http://www.w3.org/2000/svg" xmlns:ev="http://www.w3.org/2001/xml-events" xmlns:xlink="http://www.w3.org/1999/xlink"><defs /><polyline fill="none" points="40.832,126.13 39.2968,126.1003 37.8215,126.0395 36.4075,125.9475 35.0559,125.8242 33.7679,125.6692 32.545,125.4826 31.3883,125.2641 30.299,125.0136 29.2786,124.7309 28.3281,124.4159 27.4489,124.0685 26.6422,123.6883 25.9093,123.2754 25.2515,122.8295 24.6699,122.3504 24.1659,121.8381 23.7408,121.2924 23.3957,120.7131 23.132,120.1 22.9501,119.4448 22.8556,118.7643 22.8472,118.0592 22.9239,117.3301 23.0845,116.5778 23.3278,115.8029 23.6527,115.0061 24.0582,114.188 24.543,113.3494 25.106,112.4908 25.7461,111.6131 26.4622,110.7167 27.2531,109.8025 28.1176,108.871 29.0547,107.923 30.0632,106.9591 31.142,105.98 31.4718,107.0015 31.8153,108.0173 32.1726,109.0274 32.5434,110.0316 32.9277,111.0299 33.3254,112.0223 33.7364,113.0085 34.1606,113.9886 34.5979,114.9624 35.0483,115.9299 35.5115,116.891 35.9875,117.8455 36.4762,118.7935 36.9776,119.7348 37.4914,120.6694 38.0177,121.5971 38.5563,122.5178 39.1071,123.4316 39.6701,124.3383 40.2451,125.2378 40.832,126.13" stroke="black" /><polyline fill="none" points="204.662,68.77 204.4606,67.7314 204.2451,66.6972 204.0156,65.6677 203.7722,64.6429 203.5151,63.6228 203.2443,62.6076 202.9599,61.5974 202.6619,60.5922 202.3507,59.5921 202.0261,58.5973 201.6883,57.6077 201.3374,56.6236 200.9736,55.645 200.5968,54.6719 200.2073,53.7045 199.805,52.7429 199.3902,51.7871 198.9628,50.8372 198.5231,49.8934 198.071,48.9557 197.6068,48.0241 197.1304,47.0989 196.642,46.18 198.1334,46.1838 199.5726,46.2151 200.9585,46.2742 202.2901,46.3612 203.5663,46.4761 204.786,46.6191 205.9483,46.7904 207.052,46.99 208.0961,47.218 209.0796,47.4747 210.0013,47.76 210.8603,48.0742 211.6554,48.4174 212.3857,48.7896 213.05,49.1911 213.6473,49.6219 214.1766,50.0821 214.6367,50.5719 215.0267,51.0914 215.3455,51.6407 215.592,52.22 215.7629,52.8254 215.859,53.4525 215.8813,54.1008 215.8306,54.7698 215.7078,55.4589 215.5137,56.1675 215.2494,56.8952 214.9156,57.6413 214.5133,58.4053 214.0433,59.1867 213.5066,59.9849 212.9039,60.7994 212.2363,61.6295 211.5046,62.4748 210.7096,63.3347 209.8524,64.2087 208.9336,65.0961 207.9543,65.9966 206.9154,66.9094 205.8176,67.834 204.662,68.77 204.662,68.77" stroke="black" /><polyline fill="none" points="204.662,68.77 204.1339,69.1872 203.5948,69.6064 203.0447,70.0277 202.4838,70.4509 201.9121,70.876 201.3297,71.3029 200.7366,71.7317 200.1329,72.1622 199.5188,72.5945 198.8943,73.0284 198.2594,73.4639 197.6143,73.901 196.9591,74.3396 196.2937,74.7797 195.6183,75.2213 194.9329,75.6642 194.2377,76.1084 193.5326,76.554 192.8179,77.0007 192.0935,77.4487 191.3596,77.8978 190.6161,78.3481 189.8633,78.7993 189.1011,79.2516 188.3297,79.7048 187.5491,80.159 186.7593,80.614 185.9606,81.0698 185.1529,81.5264 184.3363,81.9837 183.5109,82.4416 182.6768,82.9002 181.8341,83.3594 180.9828,83.8191 180.123,84.2793 179.2548,84.7399 178.3783,85.2009 177.4935,85.6623 176.6005,86.1239 175.6994,86.5858 174.7903,87.0479 173.8732,87.5102 172.9483,87.9725 172.0155,88.4349 171.075,88.8973 170.1269,89.3597 169.1712,89.822 168.208,90.2841 167.2374,90.7461 166.2595,91.2079 165.2743,91.6693 164.2819,92.1305 163.2824,92.5913 162.2758,93.0517 161.2623,93.5116 160.242,93.9709 159.2148,94.4298 158.1809,94.888 157.1403,95.3456 156.0932,95.8025 155.0396,96.2586 153.9795,96.7139 152.9131,97.1684 151.8405,97.622 150.7617,98.0746 149.6767,98.5263 148.5857,98.977 147.4888,99.4265 146.3859,99.875 145.2773,100.3222 144.1629,100.7682 143.0429,101.213 141.9173,101.6565 140.7862,102.0986 139.6497,102.5392 138.5078,102.9785 137.3607,103.4162 136.2084,103.8523 135.0509,104.2869 133.8884,104.7198 132.721,105.151 131.5486,105.5805 130.3715,106.0082 129.1896,106.434 128.0031,106.858 126.812,107.28 125.6083,107.7026 124.4071,108.1207 123.2083,108.5344 122.0121,108.9436 120.8186,109.3482 119.6279,109.7484 118.44,110.144 117.2551,110.5351 116.0732,110.9216 114.8944,111.3036 113.7189,111.681 112.5467,112.0539 111.3779,112.4221 110.2126,112.7858 109.0509,113.1448 107.8929,113.4992 106.7387,113.849 105.5883,114.1941 104.442,114.5346 103.2996,114.8704 102.1614,115.2015 101.0275,115.5279 99.8979,115.8496 98.7727,116.1666 97.6521,116.4788 96.536,116.7864 95.4247,117.0891 94.3181,117.3871 93.2164,117.6804 92.1198,117.9688 91.0281,118.2525 89.9417,118.5313 88.8605,118.8053 87.7846,119.0745 86.7142,119.3389 85.6493,119.5984 84.59,119.853 83.5365,120.1028 82.4888,120.3476 81.4469,120.5876 80.4111,120.8227 79.3813,121.0528 78.3577,121.278 77.3404,121.4983 76.3294,121.7136 75.3249,121.9239 74.3269,122.1292 73.3356,122.3296 72.351,122.525 71.3732,122.7153 70.4024,122.9007 69.4385,123.0809 68.4817,123.2562 67.5321,123.4264 66.5898,123.5915 65.6549,123.7515 64.7275,123.9065 63.8076,124.0563 62.8953,124.201 61.9908,124.3406 61.0941,124.4751 60.2054,124.6044 59.3246,124.7285 58.452,124.8475 57.5876,124.9613 56.7315,125.0699 55.8837,125.1732 55.0445,125.2714 54.2138,125.3643 53.3918,125.452 52.5785,125.5345 51.7741,125.6117 50.9786,125.6836 50.1921,125.7502 49.4148,125.8115 48.6467,125.8675 47.8879,125.9182 47.1385,125.9636 46.3986,126.0036 45.6682,126.0383 44.9476,126.0676 44.2367,126.0915 43.5357,126.11 42.8446,126.1231 42.1636,126.1308 41.4927,126.1331 40.832,126.13 40.2451,125.2378 39.6701,124.3383 39.1071,123.4316 38.5563,122.5178 38.0177,121.5971 37.4914,120.6694 36.9776,119.7348 36.4762,118.7935 35.9875,117.8455 35.5115,116.891 35.0483,115.9299 34.5979,114.9624 34.1606,113.9886 33.7364,113.0085 33.3254,112.0223 32.9277,111.0299 32.5434,110.0316 32.1726,109.0274 31.8153,108.0173 31.4718,107.0015 31.142,105.98 30.8083,104.8892 30.4898,103.792 30.1868,102.6885 29.8995,101.5788 29.6281,100.4629 29.3729,99.3411 29.1341,98.2134 28.912,97.08 28.7208,96.0162 28.5443,94.9478 28.3826,93.875 28.2358,92.7978 28.1039,91.7163 27.9872,90.6306 27.8856,89.5408 27.7994,88.447 27.7286,87.3492 27.6734,86.2475 27.6338,85.142 27.61,84.0328 27.602,82.92 27.6075,81.9985 27.6238,81.0794 27.651,80.1628 27.6889,79.2486 27.7375,78.3371 27.7968,77.4282 27.8667,76.5219 27.9472,75.6184 28.0381,74.7177 28.1394,73.8198 28.2512,72.9247 28.3732,72.0326 28.5055,71.1436 28.648,70.2575 28.8006,69.3745 28.9634,68.4947 29.1361,67.6181 29.3189,66.7447 29.5115,65.8747 29.714,65.008 29.9264,64.1447 30.1484,63.2848 30.3802,62.4285 30.6216,61.5758 30.8726,60.7266 31.133,59.8811 31.403,59.0394 31.6824,58.2014 31.9711,57.3673 32.2691,56.537 32.5764,55.7107 32.8928,54.8883 33.2184,54.07 33.553,53.2558 33.8967,52.4457 34.2493,51.6398 34.6107,50.8381 34.9811,50.0408 35.3602,49.2478 35.7481,48.4592 36.1446,47.675 36.5497,46.8954 36.9634,46.1203 37.3857,45.3498 37.8163,44.584 38.2553,43.823 38.7027,43.0666 39.1584,42.3151 39.6222,41.5685 40.0943,40.8268 40.5744,40.0901 41.0626,39.3584 41.5588,38.6318 42.0629,37.9104 42.5749,37.1941 43.0947,36.483 43.6223,35.7773 44.1576,35.0769 44.7005,34.3819 45.251,33.6923 45.8091,33.0083 46.3747,32.3298 46.9477,31.6569 47.528,30.9896 48.1157,30.3281 48.7106,29.6723 49.3128,29.0224 49.922,28.3783 50.5384,27.7402 51.1618,27.108 51.7921,26.4818 52.4294,25.8617 53.0736,25.2478 53.7245,24.64 54.3822,24.0385 55.0466,23.4432 55.7176,22.8543 56.3952,22.2718 57.0793,21.6957 57.7698,21.1261 58.4668,20.5631 59.1702,20.0067 59.8798,19.4569 60.5956,18.9138 61.3177,18.3775 62.0458,17.848 62.7801,17.3254 63.5203,16.8096 64.2665,16.3009 65.0186,15.7992 65.7765,15.3045 66.5403,14.8169 67.3097,14.3366 68.0848,13.8634 68.8655,13.3976 69.6518,12.9391 70.4436,12.4879 71.2409,12.0442 72.0435,11.608 72.8514,11.1794 73.6646,10.7583 74.4831,10.3449 75.3067,9.9392 76.1354,9.5412 76.9691,9.151 77.8079,8.7687 78.6516,8.3943 79.5001,8.0279 80.3535,7.6695 81.2116,7.3191 82.0745,6.9769 82.942,6.6428 83.8141,6.317 84.6907,5.9994 85.5718,5.6902 86.4574,5.3893 87.3473,5.0969 88.2415,4.8129 89.14,4.5375 90.0427,4.2707 90.9495,4.0126 91.8604,3.7631 92.7753,3.5224 93.6942,3.2904 94.617,3.0674 95.5437,2.8532 96.4742,2.648 97.4084,2.4518 98.3463,2.2646 99.2878,2.0866 100.2329,1.9177 101.1816,1.7581 102.1337,1.6077 103.0892,1.4666 104.048,1.3349 105.0102,1.2127 105.9755,1.0999 106.9441,0.9967 107.9158,0.903 108.8905,0.819 109.8683,0.7446 110.849,0.6801 111.8326,0.6253 112.819,0.5803 113.8082,0.5452 114.8002,0.5201 115.7948,0.505 116.792,0.5 117.8476,0.5057 118.9003,0.5226 119.9501,0.5507 120.9967,0.59 122.0402,0.6404 123.0805,0.7017 124.1176,0.7741 125.1513,0.8573 126.1816,0.9514 127.2084,1.0563 128.2317,1.1718 129.2514,1.298 130.2675,1.4348 131.2798,1.5822 132.2882,1.7399 133.2929,1.9081 134.2935,2.0867 135.2902,2.2755 136.2828,2.4745 137.2713,2.6837 138.2555,2.9029 139.2355,3.1322 140.2111,3.3715 141.1824,3.6206 142.1491,3.8796 143.1113,4.1484 144.0689,4.4269 145.0218,4.7151 145.97,5.0129 146.9133,5.3202 147.8518,5.6369 148.7853,5.9631 149.7138,6.2986 150.6373,6.6434 151.5555,6.9974 152.4686,7.3606 153.3764,7.7329 154.2788,8.1142 155.1758,8.5045 156.0673,8.9037 156.9533,9.3118 157.8336,9.7286 158.7083,10.1542 159.5772,10.5884 160.4403,11.0312 161.2975,11.4826 162.1488,11.9425 162.994,12.4107 163.8331,12.8874 164.6661,13.3723 165.4928,13.8654 166.3133,14.3667 167.1274,14.8761 167.935,15.3936 168.7362,15.919 169.5308,16.4524 170.3188,16.9936 171.1001,17.5426 171.8746,18.0994 172.6423,18.6638 173.4031,19.2358 174.1569,19.8154 174.9037,20.4025 175.6434,20.9969 176.3759,21.5988 177.1013,22.2079 177.8192,22.8243 178.5299,23.4479 179.2331,24.0785 179.9288,24.7162 180.6169,25.3609 181.2974,26.0126 181.9702,26.6711 182.6352,27.3364 183.2923,28.0084 183.9416,28.6871 184.5829,29.3725 185.2161,30.0644 185.8413,30.7627 186.4583,31.4676 187.067,32.1787 187.6674,32.8962 188.2594,33.62 188.843,34.3499 189.4181,35.0859 189.9846,35.828 190.5425,36.5761 191.0916,37.3301 191.632,38.09 192.3107,39.0697 192.9745,40.0586 193.6232,41.0567 194.257,42.0638 194.8757,43.0797 195.4795,44.1045 196.0683,45.138 196.642,46.18 197.1304,47.0989 197.6068,48.0241 198.071,48.9557 198.5231,49.8934 198.9628,50.8372 199.3902,51.7871 199.805,52.7429 200.2073,53.7045 200.5968,54.6719 200.9736,55.645 201.3374,56.6236 201.6883,57.6077 202.0261,58.5973 202.3507,59.5921 202.6619,60.5922 202.9599,61.5974 203.2443,62.6076 203.5151,63.6228 203.7722,64.6429 204.0156,65.6677 204.2451,66.6972 204.4606,67.7314 204.662,68.77 204.662,68.77" stroke="black" /><polyline fill="none" points="205.922,85.76 205.8828,86.6798 205.8328,87.5969 205.772,88.5114 205.7004,89.4232 205.6182,90.3322 205.5254,91.2383 205.4221,92.1416 205.3082,93.042 205.1839,93.9394 205.0493,94.8338 204.9043,95.725 204.749,96.6132 204.5836,97.4981 204.408,98.3798 204.2223,99.2582 204.0266,100.1332 203.8209,101.0048 203.6053,101.873 203.3798,102.7376 203.1445,103.5987 202.8995,104.4562 202.6448,105.3099 202.3805,106.16 202.1066,107.0062 201.8232,107.8487 201.5303,108.6872 201.228,109.5218 200.9164,110.3524 200.5956,111.179 200.2655,112.0014 199.9262,112.8197 199.5778,113.6338 199.2204,114.4437 198.8539,115.2492 198.4786,116.0503 198.0943,116.847 197.7013,117.6393 197.2995,118.427 196.8889,119.2101 196.4698,119.9886 196.042,120.7624 195.6057,121.5315 195.1609,122.2958 194.7077,123.0552 194.2462,123.8097 193.7764,124.5593 193.2983,125.3038 192.812,126.0433 192.3176,126.7777 191.8151,127.5069 191.3046,128.2309 190.7862,128.9496 190.2599,129.663 189.7257,130.371 189.1837,131.0736 188.634,131.7706 188.0767,132.4622 187.5117,133.1481 186.9392,133.8284 186.3592,134.503 185.7718,135.1718 185.177,135.8348 184.5749,136.492 183.9655,137.1432 183.3489,137.7885 182.7251,138.4277 182.0943,139.0609 181.4564,139.6879 180.8116,140.3088 180.1598,140.9234 179.5012,141.5318 178.8358,142.1337 178.1636,142.7293 177.4847,143.3185 176.7993,143.9011 176.1072,144.4772 175.4086,145.0467 174.7036,145.6095 173.9922,146.1656 173.2745,146.7149 172.5504,147.2574 171.8202,147.7931 171.0838,148.3218 170.3412,148.8435 169.5926,149.3582 168.8381,149.8658 168.0775,150.3662 167.3112,150.8595 166.5389,151.3455 165.761,151.8242 164.9773,152.2955 164.188,152.7594 163.393,153.2159 162.5926,153.6649 161.7867,154.1062 160.9753,154.54 160.1586,154.9661 159.3366,155.3844 158.5094,155.795 157.677,156.1977 156.8394,156.5926 155.9968,156.9795 155.1491,157.3584 154.2966,157.7292 153.4391,158.092 152.5767,158.4466 151.7096,158.793 150.8378,159.1311 149.9613,159.4609 149.0802,159.7823 148.1945,160.0953 147.3044,160.3999 146.4098,160.6959 145.5108,160.9833 144.6075,161.2621 143.6999,161.5322 142.7882,161.7935 141.8723,162.0461 140.9523,162.2898 140.0282,162.5246 139.1003,162.7504 138.1683,162.9673 137.2326,163.175 136.293,163.3737 135.3497,163.5632 134.4026,163.7434 133.452,163.9144 132.4978,164.076 131.5401,164.2283 130.5789,164.3711 129.6143,164.5045 128.6464,164.6283 127.6752,164.7425 126.7008,164.847 125.7232,164.9419 124.7425,165.027 123.7588,165.1022 122.7721,165.1676 121.7824,165.2231 120.7898,165.2687 119.7945,165.3042 118.7963,165.3296 117.7955,165.3449 116.792,165.35 115.7339,165.3443 114.6787,165.3273 113.6265,165.299 112.5774,165.2596 111.5315,165.209 110.4888,165.1473 109.4494,165.0746 108.4133,164.9909 107.3807,164.8964 106.3515,164.791 105.326,164.6749 104.304,164.5481 103.2857,164.4107 102.2712,164.2626 101.2605,164.1041 100.2538,163.9351 99.2509,163.7558 98.2522,163.5661 97.2575,163.3662 96.267,163.156 95.2807,162.9358 94.2987,162.7054 93.3211,162.4651 92.3479,162.2148 91.3793,161.9547 90.4152,161.6847 89.4557,161.4049 88.501,161.1155 87.551,160.8165 86.6059,160.5078 85.6657,160.1897 84.7305,159.8622 83.8003,159.5252 82.8753,159.179 81.9554,158.8234 81.0407,158.4588 80.1314,158.0849 79.2275,157.702 78.329,157.3102 77.4361,156.9093 76.5487,156.4996 75.667,156.0811 74.7911,155.6539 73.9209,155.2179 73.0565,154.7733 72.1982,154.3202 71.3457,153.8586 70.4994,153.3885 69.6592,152.9101 68.8252,152.4233 67.9974,151.9283 67.176,151.4252 66.361,150.9139 65.5525,150.3945 64.7505,149.8672 63.9551,149.3319 63.1663,148.7888 62.3843,148.2378 61.6092,147.6791 60.8408,147.1127 60.0795,146.5387 59.3251,145.9572 58.5778,145.3681 57.8377,144.7717 57.1048,144.1678 56.3791,143.5567 55.6609,142.9383 54.95,142.3128 54.2466,141.6801 53.5508,141.0404 52.8625,140.3936 52.182,139.74 53.0171,139.6312 53.8571,139.5188 54.702,139.4028 55.5518,139.2832 56.4063,139.1601 57.2657,139.0334 58.1297,138.9031 58.9984,138.7693 59.8718,138.6319 60.7497,138.491 61.6322,138.3466 62.5192,138.1985 63.4106,138.047 64.3064,137.8919 65.2066,137.7333 66.1111,137.5712 67.0199,137.4055 67.9329,137.2363 68.8502,137.0636 69.7715,136.8874 70.6969,136.7077 71.6264,136.5245 72.5599,136.3378 73.4974,136.1475 74.4388,135.9538 75.384,135.7566 76.3331,135.5559 77.286,135.3518 78.2426,135.1441 79.2029,134.933 80.1669,134.7184 81.1345,134.5004 82.1056,134.2788 83.0802,134.0539 84.0584,133.8254 85.0399,133.5936 86.0249,133.3582 87.0132,133.1195 88.0048,132.8773 88.9996,132.6316 89.9977,132.3825 90.9989,132.13 92.0032,131.8741 93.0107,131.6148 94.0211,131.352 95.0345,131.0858 96.0509,130.8163 97.0702,130.5433 98.0923,130.2669 99.1172,129.9871 100.145,129.7039 101.1754,129.4174 102.2085,129.1274 103.2442,128.8341 104.2825,128.5374 105.3234,128.2373 106.3668,127.9338 107.4126,127.627 108.4608,127.3168 109.5114,127.0033 110.5644,126.6864 111.6196,126.3662 112.677,126.0426 113.7366,125.7156 114.7984,125.3854 115.8622,125.0518 116.9281,124.7148 117.9961,124.3745 119.066,124.031 120.1378,123.684 121.2115,123.3338 122.287,122.9803 123.3643,122.6234 124.4434,122.2633 125.5242,121.8998 126.6066,121.5331 127.6906,121.163 128.7762,120.7897 129.8634,120.4131 130.952,120.0332 132.042,119.65 133.1272,119.2659 134.2092,118.8802 135.2881,118.4929 136.3638,118.104 137.4362,117.7135 138.5053,117.3215 139.5711,116.928 140.6336,116.533 141.6926,116.1365 142.7482,115.7386 143.8004,115.3393 144.849,114.9385 145.8941,114.5365 146.9356,114.133 147.9735,113.7283 149.0078,113.3222 150.0383,112.9149 151.0651,112.5064 152.0882,112.0966 153.1075,111.6856 154.1229,111.2735 155.1344,110.8602 156.1421,110.4458 157.1458,110.0303 158.1455,109.6137 159.1412,109.196 160.1328,108.7774 161.1204,108.3577 162.1038,107.9371 163.083,107.5155 164.0581,107.0929 165.0289,106.6695 165.9954,106.2452 166.9576,105.8201 167.9155,105.3941 168.869,104.9673 169.818,104.5397 170.7626,104.1114 171.7027,103.6823 172.6382,103.2525 173.5692,102.822 174.4956,102.3909 175.4174,101.9592 176.3344,101.5268 177.2468,101.0938 178.1544,100.6603 179.0571,100.2262 179.9551,99.7917 180.8482,99.3566 181.7364,98.9211 182.6197,98.4851 183.498,98.0487 184.3713,97.612 185.2395,97.1748 186.1027,96.7373 186.9607,96.2995 187.8136,95.8614 188.6613,95.4231 189.5037,94.9845 190.3409,94.5456 191.1728,94.1066 191.9993,93.6674 192.8205,93.228 193.6362,92.7886 194.4465,92.349 195.2513,91.9093 196.0506,91.4696 196.8444,91.0299 197.6325,90.5902 198.415,90.1505 199.1918,89.7108 199.9629,89.2712 200.7283,88.8317 201.4879,88.3924 202.2417,87.9531 202.9896,87.5141 203.7316,87.0752 204.4677,86.6366 205.1979,86.1981 205.922,85.76" stroke="black" /><polyline fill="none" points="205.922,85.76 205.1979,86.1981 204.4677,86.6366 203.7316,87.0752 202.9896,87.5141 202.2417,87.9531 201.4879,88.3924 200.7283,88.8317 199.9629,89.2712 199.1918,89.7108 198.415,90.1505 197.6325,90.5902 196.8444,91.0299 196.0506,91.4696 195.2513,91.9093 194.4465,92.349 193.6362,92.7886 192.8205,93.228 191.9993,93.6674 191.1728,94.1066 190.3409,94.5456 189.5037,94.9845 188.6613,95.4231 187.8136,95.8614 186.9607,96.2995 186.1027,96.7373 185.2395,97.1748 184.3713,97.612 183.498,98.0487 182.6197,98.4851 181.7364,98.9211 180.8482,99.3566 179.9551,99.7917 179.0571,100.2262 178.1544,100.6603 177.2468,101.0938 176.3344,101.5268 175.4174,101.9592 174.4956,102.3909 173.5692,102.822 172.6382,103.2525 171.7027,103.6823 170.7626,104.1114 169.818,104.5397 168.869,104.9673 167.9155,105.3941 166.9576,105.8201 165.9954,106.2452 165.0289,106.6695 164.0581,107.0929 163.083,107.5155 162.1038,107.9371 161.1204,108.3577 160.1328,108.7774 159.1412,109.196 158.1455,109.6137 157.1458,110.0303 156.1421,110.4458 155.1344,110.8602 154.1229,111.2735 153.1075,111.6856 152.0882,112.0966 151.0651,112.5064 150.0383,112.9149 149.0078,113.3222 147.9735,113.7283 146.9356,114.133 145.8941,114.5365 144.849,114.9385 143.8004,115.3393 142.7482,115.7386 141.6926,116.1365 140.6336,116.533 139.5711,116.928 138.5053,117.3215 137.4362,117.7135 136.3638,118.104 135.2881,118.4929 134.2092,118.8802 133.1272,119.2659 132.042,119.65 130.952,120.0332 129.8634,120.4131 128.7762,120.7897 127.6906,121.163 126.6066,121.5331 125.5242,121.8998 124.4434,122.2633 123.3643,122.6234 122.287,122.9803 121.2115,123.3338 120.1378,123.684 119.066,124.031 117.9961,124.3745 116.9281,124.7148 115.8622,125.0518 114.7984,125.3854 113.7366,125.7156 112.677,126.0426 111.6196,126.3662 110.5644,126.6864 109.5114,127.0033 108.4608,127.3168 107.4126,127.627 106.3668,127.9338 105.3234,128.2373 104.2825,128.5374 103.2442,128.8341 102.2085,129.1274 101.1754,129.4174 100.145,129.7039 99.1172,129.9871 98.0923,130.2669 97.0702,130.5433 96.0509,130.8163 95.0345,131.0858 94.0211,131.352 93.0107,131.6148 92.0032,131.8741 90.9989,132.13 89.9977,132.3825 88.9996,132.6316 88.0048,132.8773 87.0132,133.1195 86.0249,133.3582 85.0399,133.5936 84.0584,133.8254 83.0802,134.0539 82.1056,134.2788 81.1345,134.5004 80.1669,134.7184 79.2029,134.933 78.2426,135.1441 77.286,135.3518 76.3331,135.5559 75.384,135.7566 74.4388,135.9538 73.4974,136.1475 72.5599,136.3378 71.6264,136.5245 70.6969,136.7077 69.7715,136.8874 68.8502,137.0636 67.9329,137.2363 67.0199,137.4055 66.1111,137.5712 65.2066,137.7333 64.3064,137.8919 63.4106,138.047 62.5192,138.1985 61.6322,138.3466 60.7497,138.491 59.8718,138.6319 58.9984,138.7693 58.1297,138.9031 57.2657,139.0334 56.4063,139.1601 55.5518,139.2832 54.702,139.4028 53.8571,139.5188 53.0171,139.6312 52.182,139.74 50.7047,139.9254 49.2435,140.0993 47.7986,140.2618 46.3702,140.4128 44.9588,140.5524 43.5643,140.6804 42.1873,140.7969 40.8278,140.9018 39.4861,140.9952 38.1626,141.077 36.8574,141.1471 35.5708,141.2056 34.303,141.2524 33.0543,141.2876 31.8249,141.311 30.6152,141.3227 29.4253,141.3226 28.2555,141.3107 27.1061,141.287 25.9772,141.2515 24.8693,141.2042 23.7824,141.1449 22.7169,141.0738 21.6729,140.9907 20.6509,140.8957 19.651,140.7887 18.6734,140.6697 17.7184,140.5388 16.7863,140.3957 15.8773,140.2406 14.9917,140.0735 14.1298,139.8942 13.2916,139.7028 12.4776,139.4992 11.688,139.2835 10.923,139.0555 10.1829,138.8154 9.4679,138.563 8.7783,138.2983 8.1143,138.0213 7.4763,137.732 6.8643,137.4304 6.2787,137.1164 5.7198,136.7901 5.1877,136.4513 4.6828,136.1001 4.2053,135.7365 3.7554,135.3603 3.3335,134.9717 2.9396,134.5706 2.5742,134.1569 2.2374,133.7306 1.9295,133.2918 1.6508,132.8403 1.4015,132.3762 1.1818,131.8994 0.992,131.41 0.8226,130.8723 0.6891,130.3245 0.5912,129.7666 0.5288,129.1989 0.5016,128.6215 0.5092,128.0346 0.5515,127.4384 0.6282,126.833 0.739,126.2186 0.8837,125.5954 1.0619,124.9636 1.2736,124.3233 1.5183,123.6747 1.7958,123.0179 2.1059,122.3532 2.4483,121.6807 2.8227,121.0006 3.229,120.3131 3.6668,119.6183 4.1358,118.9164 4.6359,118.2076 5.1667,117.492 5.728,116.7698 6.3195,116.0413 6.941,115.3064 7.5922,114.5656 8.2729,113.8188 8.9828,113.0663 9.7216,112.3083 10.4891,111.5449 11.285,110.7762 12.109,110.0026 12.961,109.2241 13.8406,108.4409 14.7476,107.6532 15.6817,106.8611 16.6427,106.0649 17.6302,105.2646 18.6441,104.4605 19.6841,103.6528 20.75,102.8416 21.8413,102.0271 22.958,101.2094 24.0998,100.3888 25.2663,99.5654 26.4573,98.7393 27.6727,97.9108 28.912,97.08 29.1341,98.2134 29.3729,99.3411 29.6281,100.4629 29.8995,101.5788 30.1868,102.6885 30.4898,103.792 30.8083,104.8892 31.142,105.98 30.0632,106.9591 29.0547,107.923 28.1176,108.871 27.2531,109.8025 26.4622,110.7167 25.7461,111.6131 25.106,112.4908 24.543,113.3494 24.0582,114.188 23.6527,115.0061 23.3278,115.8029 23.0845,116.5778 22.9239,117.3301 22.8472,118.0592 22.8556,118.7643 22.9501,119.4448 23.132,120.1 23.3957,120.7131 23.7408,121.2924 24.1659,121.8381 24.6699,122.3504 25.2515,122.8295 25.9093,123.2754 26.6422,123.6883 27.4489,124.0685 28.3281,124.4159 29.2786,124.7309 30.299,125.0136 31.3883,125.2641 32.545,125.4826 33.7679,125.6692 35.0559,125.8242 36.4075,125.9475 37.8215,126.0395 39.2968,126.1003 40.832,126.13 41.4927,126.1331 42.1636,126.1308 42.8446,126.1231 43.5357,126.11 44.2367,126.0915 44.9476,126.0676 45.6682,126.0383 46.3986,126.0036 47.1385,125.9636 47.8879,125.9182 48.6467,125.8675 49.4148,125.8115 50.1921,125.7502 50.9786,125.6836 51.7741,125.6117 52.5785,125.5345 53.3918,125.452 54.2138,125.3643 55.0445,125.2714 55.8837,125.1732 56.7315,125.0699 57.5876,124.9613 58.452,124.8475 59.3246,124.7285 60.2054,124.6044 61.0941,124.4751 61.9908,124.3406 62.8953,124.201 63.8076,124.0563 64.7275,123.9065 65.6549,123.7515 66.5898,123.5915 67.5321,123.4264 68.4817,123.2562 69.4385,123.0809 70.4024,122.9007 71.3732,122.7153 72.351,122.525 73.3356,122.3296 74.3269,122.1292 75.3249,121.9239 76.3294,121.7136 77.3404,121.4983 78.3577,121.278 79.3813,121.0528 80.4111,120.8227 81.4469,120.5876 82.4888,120.3476 83.5365,120.1028 84.59,119.853 85.6493,119.5984 86.7142,119.3389 87.7846,119.0745 88.8605,118.8053 89.9417,118.5313 91.0281,118.2525 92.1198,117.9688 93.2164,117.6804 94.3181,117.3871 95.4247,117.0891 96.536,116.7864 97.6521,116.4788 98.7727,116.1666 99.8979,115.8496 101.0275,115.5279 102.1614,115.2015 103.2996,114.8704 104.442,114.5346 105.5883,114.1941 106.7387,113.849 107.8929,113.4992 109.0509,113.1448 110.2126,112.7858 111.3779,112.4221 112.5467,112.0539 113.7189,111.681 114.8944,111.3036 116.0732,110.9216 117.2551,110.5351 118.44,110.144 119.6279,109.7484 120.8186,109.3482 122.0121,108.9436 123.2083,108.5344 124.4071,108.1207 125.6083,107.7026 126.812,107.28 128.0031,106.858 129.1896,106.434 130.3715,106.0082 131.5486,105.5805 132.721,105.151 133.8884,104.7198 135.0509,104.2869 136.2084,103.8523 137.3607,103.4162 138.5078,102.9785 139.6497,102.5392 140.7862,102.0986 141.9173,101.6565 143.0429,101.213 144.1629,100.7682 145.2773,100.3222 146.3859,99.875 147.4888,99.4265 148.5857,98.977 149.6767,98.5263 150.7617,98.0746 151.8405,97.622 152.9131,97.1684 153.9795,96.7139 155.0396,96.2586 156.0932,95.8025 157.1403,95.3456 158.1809,94.888 159.2148,94.4298 160.242,93.9709 161.2623,93.5116 162.2758,93.0517 163.2824,92.5913 164.2819,92.1305 165.2743,91.6693 166.2595,91.2079 167.2374,90.7461 168.208,90.2841 169.1712,89.822 170.1269,89.3597 171.075,88.8973 172.0155,88.4349 172.9483,87.9725 173.8732,87.5102 174.7903,87.0479 175.6994,86.5858 176.6005,86.1239 177.4935,85.6623 178.3783,85.2009 179.2548,84.7399 180.123,84.2793 180.9828,83.8191 181.8341,83.3594 182.6768,82.9002 183.5109,82.4416 184.3363,81.9837 185.1529,81.5264 185.9606,81.0698 186.7593,80.614 187.5491,80.159 188.3297,79.7048 189.1011,79.2516 189.8633,78.7993 190.6161,78.3481 191.3596,77.8978 192.0935,77.4487 192.8179,77.0007 193.5326,76.554 194.2377,76.1084 194.9329,75.6642 195.6183,75.2213 196.2937,74.7797 196.9591,74.3396 197.6143,73.901 198.2594,73.4639 198.8943,73.0284 199.5188,72.5945 200.1329,72.1622 200.7366,71.7317 201.3297,71.3029 201.9121,70.876 202.4838,70.4509 203.0447,70.0277 203.5948,69.6064 204.1339,69.1872 204.662,68.77 205.8176,67.834 206.9154,66.9094 207.9543,65.9966 208.9336,65.0961 209.8524,64.2087 210.7096,63.3347 211.5046,62.4748 212.2363,61.6295 212.9039,60.7994 213.5066,59.9849 214.0433,59.1867 214.5133,58.4053 214.9156,57.6413 215.2494,56.8952 215.5137,56.1675 215.7078,55.4589 215.8306,54.7698 215.8813,54.1008 215.859,53.4525 215.7629,52.8254 215.592,52.22 215.3455,51.6407 215.0267,51.0914 214.6367,50.5719 214.1766,50.0821 213.6473,49.6219 213.05,49.1911 212.3857,48.7896 211.6554,48.4174 210.8603,48.0742 210.0013,47.76 209.0796,47.4747 208.0961,47.218 207.052,46.99 205.9483,46.7904 204.786,46.6191 203.5663,46.4761 202.2901,46.3612 200.9585,46.2742 199.5726,46.2151 198.1334,46.1838 196.642,46.18 196.0683,45.138 195.4795,44.1045 194.8757,43.0797 194.257,42.0638 193.6232,41.0567 192.9745,40.0586 192.3107,39.0697 191.632,38.09 193.1236,37.9116 194.5982,37.7451 196.0556,37.5905 197.4954,37.4478 198.9174,37.3172 200.3215,37.1985 201.7072,37.0919 203.0743,36.9973 204.4225,36.9148 205.7517,36.8444 207.0614,36.7862 208.3516,36.74 209.6218,36.7061 210.8718,36.6843 212.1014,36.6747 213.3103,36.6774 214.4982,36.6924 215.6649,36.7197 216.8101,36.7592 217.9335,36.8111 219.0349,36.8754 220.1139,36.9521 221.1704,37.0412 222.2041,37.1427 223.2146,37.2566 224.2018,37.3831 225.1654,37.5221 226.1051,37.6736 227.0206,37.8376 227.9117,38.0143 228.7781,38.2035 229.6195,38.4054 230.4357,38.6199 231.2264,38.8471 231.9913,39.087 232.7303,39.3397 233.4429,39.6051 234.129,39.8832 234.7883,40.1742 235.4204,40.478 236.0253,40.7946 236.6025,41.1241 237.1518,41.4665 237.673,41.8218 238.1657,42.1901 238.6298,42.5713 239.0649,42.9656 239.4708,43.3728 239.8473,43.7931 240.194,44.2264 240.5107,44.6729 240.7971,45.1324 241.0529,45.6051 241.278,46.091 241.472,46.59 241.6308,47.0879 241.7586,47.5946 241.8557,48.1099 241.9222,48.6338 241.9584,49.1661 241.9645,49.7066 241.9406,50.2552 241.8871,50.8118 241.8041,51.3762 241.6917,51.9483 241.5503,52.528 241.38,53.1151 241.1811,53.7095 240.9537,54.311 240.698,54.9195 240.4143,55.5349 240.1027,56.157 239.7635,56.7858 239.3969,57.4209 239.0031,58.0624 238.5823,58.7101 238.1346,59.3638 237.6604,60.0235 237.1598,60.6889 236.633,61.3599 236.0803,62.0364 235.5017,62.7183 234.8977,63.4053 234.2682,64.0975 233.6137,64.7946 232.9342,65.4965 232.23,66.2031 231.5012,66.9142 230.7482,67.6297 229.9711,68.3494 229.17,69.0733 228.3453,69.8011 227.4971,70.5328 226.6256,71.2681 225.7311,72.007 224.8137,72.7494 223.8736,73.495 222.9111,74.2438 221.9264,74.9956 220.9197,75.7503 219.8911,76.5077 218.8409,77.2678 217.7693,78.0302 216.6766,78.795 215.5628,79.562 214.4282,80.331 213.2731,81.102 212.0976,81.8747 210.902,82.649 209.6864,83.4249 208.4511,84.2021 207.1962,84.9805 205.922,85.76 205.922,85.76" stroke="black" /></svg>