<?xml version="1.0" encoding="utf-8" ?>
<svg baseProfile="tiny" height="100%" version="1.2" width="100%" xmlns="http://www.w3.org/2000/svg" xmlns:ev="http://www.w3.org/2001/xml-events" xmlns:xlink="http://www.w3.org/1999/xlink"><defs /><polyline fill="none" points="145.624,120.87 145.7563,121.3408 145.8637,121.8159 145.9464,122.2953 146.0046,122.7787 146.0385,123.2662 146.0482,123.7575 146.034,124.2525 145.9961,124.7511 145.9346,125.2532 145.8497,125.7586 145.7416,126.2672 145.6106,126.7789 145.4567,127.2935 145.2802,127.811 145.0812,128.3311 144.86,128.8537 144.6168,129.3788 144.3516,129.9062 144.0648,130.4358 143.7565,130.9674 143.4269,131.5009 143.0761,132.0362 142.7045,132.5731 142.312,133.1116 141.899,133.6514 141.4657,134.1925 141.0121,134.7348 140.5386,135.278 140.0453,135.8221 139.5323,136.367 138.9999,136.9124 138.4482,137.4584 137.8775,138.0047 137.288,138.5512 136.6797,139.0978 136.053,139.6444 135.408,140.1909 134.7448,140.737 134.0637,141.2827 133.3649,141.8279 132.6485,142.3724 131.9147,142.9161 131.1638,143.4588 130.3959,144.0005 129.6112,144.541 128.8098,145.0801 127.9921,145.6178 127.1581,146.1539 126.308,146.6883 125.4421,147.2208 124.5605,147.7514 123.6635,148.2799 122.7511,148.8061 121.8236,149.33 120.8812,149.8514 119.924,150.3701 118.9524,150.8861 117.9663,151.3993 116.9661,151.9094 115.9519,152.4164 114.9239,152.9201 113.8823,153.4204 112.8272,153.9172 111.7589,154.4103 110.6776,154.8997 109.5835,155.3851 108.4766,155.8665 107.3573,156.3437 106.2257,156.8166 105.082,157.2851 103.9263,157.749 102.759,158.2083 101.5801,158.6627 100.3898,159.1121 99.1884,159.5565 97.9759,159.9957 96.7527,160.4295 95.5189,160.8579 94.2747,161.2806 93.0203,161.6977 91.7558,162.1089 90.4814,162.5141 89.1974,162.9131 87.904,163.306 86.6012,163.6925 85.2893,164.0724 83.9685,164.4458 82.639,164.8123 81.301,165.172 79.9752,165.5193 78.6526,165.8568 77.3335,166.1845 76.0181,166.5025 74.7066,166.8107 73.3992,167.1091 72.0962,167.3978 70.7978,167.6768 69.5042,167.9461 68.2156,168.2057 66.9322,168.4557 65.6544,168.696 64.3823,168.9267 63.1161,169.1478 61.8561,169.3593 60.6024,169.5613 59.3554,169.7536 58.1152,169.9365 56.8821,170.1098 55.6563,170.2736 54.438,170.4279 53.2274,170.5728 52.0249,170.7082 50.8305,170.8341 49.6445,170.9507 48.4672,171.0578 47.2987,171.1556 46.1393,171.2439 44.9893,171.323 43.8488,171.3927 42.7181,171.453 41.5974,171.5041 40.4869,171.5459 39.3868,171.5784 38.2975,171.6017 37.219,171.6158 36.1517,171.6206 35.0957,171.6162 34.0513,171.6027 33.0187,171.58 31.9981,171.5481 30.9898,171.5071 29.994,171.457 29.0108,171.3978 28.0406,171.3295 27.0836,171.2522 26.1399,171.1658 25.2099,171.0703 24.2937,170.9659 23.3915,170.8525 22.5036,170.7301 21.6303,170.5987 20.7716,170.4584 19.928,170.3092 19.0995,170.1511 18.2864,169.984 17.489,169.8081 16.7075,169.6234 15.942,169.4298 15.1929,169.2273 14.4602,169.0161 13.7444,168.7961 13.0455,168.5673 12.3639,168.3297 11.6997,168.0834 11.0532,167.8284 10.4246,167.5647 9.8141,167.2923 9.2219,167.0112 8.6483,166.7215 8.0935,166.4231 7.5578,166.1162 7.0412,165.8006 6.5442,165.4764 6.0669,165.1437 5.6094,164.8024 5.1722,164.4526 4.7553,164.0942 4.359,163.7274 3.9835,163.3521 3.6291,162.9683 3.296,162.576 2.9843,162.1754 2.6944,161.7663 2.4265,161.3488 2.1807,160.9229 1.9574,160.4887 1.7567,160.0461 1.5788,159.5952 1.424,159.136 1.2917,158.6652 1.1843,158.1901 1.1016,157.7107 1.0434,157.2273 1.0096,156.7398 0.9998,156.2485 1.014,155.7535 1.0519,155.2549 1.1134,154.7528 1.1983,154.2474 1.3064,153.7388 1.4374,153.2271 1.5913,152.7125 1.7678,152.1951 1.9668,151.6749 2.188,151.1523 2.4312,150.6272 2.6964,150.0998 2.9832,149.5702 3.2915,149.0386 3.6211,148.5051 3.9719,147.9698 4.3435,147.4329 4.736,146.8944 5.149,146.3546 5.5823,145.8135 6.0359,145.2713 6.5094,144.728 7.0027,144.1839 7.5157,143.6391 8.0481,143.0936 8.5998,142.5476 9.1704,142.0013 9.76,141.4548 10.3683,140.9082 10.995,140.3616 11.64,139.8151 12.3032,139.269 12.9843,138.7233 13.6831,138.1781 14.3995,137.6336 15.1333,137.0899 15.8842,136.5472 16.6521,136.0055 17.4368,135.465 18.2382,134.9259 19.0559,134.3882 19.8899,133.8521 20.74,133.3177 21.6059,132.7852 22.4875,132.2546 23.3845,131.7261 24.2969,131.1999 25.2244,130.676 26.1668,130.1546 27.124,129.6359 28.0956,129.1199 29.0817,128.6067 30.0819,128.0966 31.0961,127.5896 32.1241,127.0859 33.1657,126.5856 34.2208,126.0888 35.2891,125.5957 36.3704,125.1063 37.4645,124.6209 38.5714,124.1395 39.6907,123.6623 40.8223,123.1894 41.966,122.7209 43.1217,122.257 44.289,121.7977 45.4679,121.3433 46.6582,120.8939 47.8596,120.4495 49.0721,120.0103 50.2953,119.5765 51.5291,119.1481 52.7733,118.7254 54.0277,118.3083 55.2922,117.8971 56.5666,117.4919 57.8506,117.0929 59.144,116.7 60.4468,116.3135 61.7587,115.9336 63.0795,115.5602 64.409,115.1937 65.747,114.834 67.0728,114.4867 68.3954,114.1492 69.7145,113.8215 71.0299,113.5035 72.3414,113.1953 73.6488,112.8969 74.9518,112.6082 76.2502,112.3292 77.5439,112.0599 78.8324,111.8003 80.1158,111.5503 81.3936,111.31 82.6657,111.0793 83.9319,110.8582 85.1919,110.6467 86.4456,110.4447 87.6926,110.2524 88.9328,110.0695 90.1659,109.8962 91.3917,109.7324 92.61,109.5781 93.8206,109.4332 95.0231,109.2978 96.2175,109.1719 97.4035,109.0553 98.5808,108.9482 99.7493,108.8504 100.9087,108.7621 102.0587,108.683 103.1992,108.6133 104.3299,108.553 105.4506,108.5019 106.5611,108.4601 107.6612,108.4276 108.7505,108.4043 109.829,108.3902 110.8963,108.3854 111.9523,108.3898 112.9967,108.4033 114.0293,108.426 115.0499,108.4579 116.0582,108.4989 117.054,108.549 118.0372,108.6082 119.0074,108.6765 119.9644,108.7538 120.9081,108.8402 121.8381,108.9357 122.7543,109.0401 123.6565,109.1535 124.5444,109.2759 125.4177,109.4073 126.2764,109.5476 127.12,109.6968 127.9485,109.8549 128.7616,110.022 129.559,110.1979 130.3405,110.3826 131.106,110.5762 131.8551,110.7787 132.5878,110.9899 133.3036,111.2099 134.0025,111.4387 134.6841,111.6763 135.3483,111.9226 135.9948,112.1776 136.6234,112.4413 137.2339,112.7137 137.8261,112.9948 138.3997,113.2845 138.9545,113.5829 139.4902,113.8898 140.0067,114.2054 140.5038,114.5296 140.9811,114.8623 141.4386,115.2036 141.8758,115.5534 142.2927,115.9118 142.689,116.2786 143.0645,116.654 143.4189,117.0377 143.752,117.43 144.0637,117.8307 144.3536,118.2397 144.6215,118.6572 144.8673,119.0831 145.0906,119.5173 145.2914,119.9599 145.4692,120.4108 145.624,120.87" stroke="black" /><polyline fill="none" points="100.121,37.631 99.9137,36.5825 99.6774,35.5446 99.4126,34.5174 99.1195,33.501 98.7985,32.4954 98.4501,31.5006 98.0746,30.5166 97.6725,29.5436 97.244,28.5815 96.7896,27.6304 96.3097,26.6904 95.8046,25.7614 95.2747,24.8436 94.7204,23.937 94.1421,23.0416 93.5402,22.1574 92.915,21.2845 92.267,20.423 91.6184,19.5975 90.9569,18.7885 90.2827,17.9959 89.5957,17.2198 88.8959,16.4602 88.1834,15.7173 87.4581,14.991 86.7201,14.2814 85.9694,13.5885 85.206,12.9125 84.4299,12.2533 83.6411,11.611 82.8396,10.9856 82.0255,10.3773 81.1988,9.7859 80.3594,9.2117 79.5074,8.6546 78.6428,8.1147 77.7657,7.592 76.8759,7.0866 75.9736,6.5986 75.0587,6.1279 74.1313,5.6746 73.1914,5.2389 72.2389,4.8207 71.274,4.42 70.2553,4.0215 69.232,3.6465 68.204,3.295 67.1713,2.9675 66.1338,2.6641 65.0914,2.3852 64.0442,2.131 62.992,1.9018 61.9348,1.6979 60.8726,1.5195 59.8054,1.3669 58.7329,1.2403 57.6553,1.1401 56.5725,1.0665 55.4844,1.0198 54.3909,1.0002 53.292,1.008 52.1878,1.0435 51.078,1.107 49.992,1.1951 48.9151,1.3074 47.8475,1.444 46.7894,1.6048 45.7406,1.7899 44.7014,1.9992 43.6718,2.2328 42.6518,2.4906 41.6416,2.7728 40.6413,3.0792 39.6509,3.4099 38.6705,3.7649 37.7002,4.1442 36.74,4.5478 35.7901,4.9758 34.8505,5.428 33.9213,5.9047 33.0026,6.4056 32.0945,6.9309 31.197,7.4806 30.3102,8.0546 29.4342,8.653 28.5691,9.2758 27.715,9.923 26.8991,10.5728 26.1036,11.2385 25.3283,11.9198 24.5731,12.6166 23.838,13.3288 23.1229,14.0561 22.4277,14.7986 21.7523,15.5559 21.0967,16.328 20.4608,17.1146 19.8445,17.9158 19.2476,18.7312 18.6702,19.5607 18.1122,20.4043 17.5735,21.2617 17.0539,22.1328 16.5535,23.0175 16.0721,23.9156 15.6097,24.8268 15.1661,25.7512 14.7414,26.6885 14.3354,27.6387 13.948,28.6014 13.5792,29.5767 13.2289,30.5642 12.897,31.564 12.5806,32.5954 12.2918,33.6288 12.0297,34.6641 11.7933,35.7012 11.5818,36.7402 11.3942,37.7809 11.2295,38.8233 11.0869,39.8673 10.9653,40.9128 10.8639,41.9598 10.7817,43.0083 10.7179,44.058 10.6713,45.1091 10.6412,46.1614 10.6265,47.2148 10.6264,48.2694 10.6399,49.3249 10.6661,50.3815 10.7041,51.4389 10.7528,52.4972 10.8114,53.5562 10.879,54.616 10.9597,55.708 11.0533,56.7993 11.1595,57.8898 11.2777,58.9794 11.4073,60.0678 11.548,61.155 11.6992,62.2408 11.8603,63.325 12.031,64.4074 12.2107,65.488 12.3988,66.5666 12.595,67.643 12.8049,68.7582 13.0195,69.8727 13.2393,70.9863 13.4647,72.099 13.6961,73.2105 13.9338,74.3208 14.1784,75.4299 14.4301,76.5375 14.6895,77.6436 14.9569,78.748 15.2328,79.8507 15.5175,80.9515 15.8114,82.0503 16.115,83.147 16.4005,84.1477 16.6923,85.1456 16.9907,86.1409 17.2954,87.1334 17.6065,88.1233 17.9241,89.1105 18.2481,90.0949 18.5785,91.0767 18.9154,92.0558 19.2587,93.0322 19.6084,94.0059 19.9645,94.9769 20.3271,95.9452 20.6962,96.9108 21.0716,97.8738 21.4536,98.834 21.8419,99.7916 22.2367,100.7465 22.638,101.6987 23.0456,102.6482 23.4598,103.595 23.8804,104.5391 24.3074,105.4806 24.7409,106.4194 25.1809,107.3555 25.6273,108.2889 26.0802,109.2196 26.5395,110.1476 27.0053,111.073 27.4776,111.9957 27.9564,112.9157 28.4416,113.833 28.9332,114.7477 29.4314,115.6597 29.936,116.569 30.5361,117.6245 31.1498,118.6726 31.775,119.7144 32.4096,120.7507 33.0513,121.7826 33.698,122.811 34.936,124.727 35.7194,125.9208 36.526,127.1342 37.2659,128.2243 37.849,129.048 38.4911,129.9228 39.1289,130.8011 39.7652,131.6803 40.4029,132.5583 41.045,133.4327 41.6942,134.3011 42.3534,135.1613 43.0255,136.0108 43.7134,136.8473 44.4199,137.6686 45.148,138.4722 45.9005,139.2559 46.6802,140.0173 47.49,140.754 48.3462,141.4548 49.2191,142.0722 50.1067,142.6055 51.007,143.0542 51.918,143.4176 52.8377,143.6953 53.7642,143.8866 54.6954,143.991 55.6295,144.0078 56.5644,143.9366 57.4981,143.7768 58.4287,143.5277 59.3541,143.1888 60.2724,142.7596 61.1817,142.2395 62.0799,141.6278 62.965,140.924 63.7884,140.1902 64.5774,139.4281 65.3344,138.6397 66.0617,137.8272 66.7616,136.9926 67.4363,136.138 68.0881,135.2656 68.7194,134.3774 69.3325,133.4755 69.9295,132.562 70.5129,131.6391 71.0849,130.7087 71.6479,129.7729 72.204,128.834 72.7755,127.8515 73.3331,126.8694 73.8782,125.8872 74.4121,124.9047 74.9361,123.9212 75.4515,122.9365 75.9597,121.95 76.4619,120.9614 76.9594,119.9701 77.4536,118.9759 77.9458,117.9782 78.4372,116.9766 78.9292,115.9708 79.4232,114.9602 79.9203,113.9444 80.422,112.923 81.63,110.555 82.3102,109.2465 82.9836,107.9566 83.6261,106.7237 84.2138,105.5864 84.7224,104.583 85.128,103.752 85.5715,102.8051 86.0081,101.8556 86.4381,100.9035 86.8616,99.949 87.2788,98.992 87.6899,98.0328 88.0951,97.0713 88.4947,96.1077 88.8887,95.1419 89.2775,94.1742 89.6611,93.2046 90.0398,92.2332 90.4139,91.26 90.7834,90.2851 91.1486,89.3087 91.5096,88.3307 91.8668,87.3513 92.2202,86.3706 92.57,85.3886 92.9165,84.4054 93.2599,83.4211 93.6003,82.4358 93.938,81.4496 94.2732,80.4625 94.6059,79.4746 94.9365,78.486 95.2651,77.4968 95.592,76.507 95.9281,75.4718 96.2555,74.4332 96.5739,73.3914 96.8833,72.3465 97.1834,71.2985 97.4739,70.2476 97.7546,69.1938 98.0254,68.1373 98.286,67.0781 98.5362,66.0164 98.7757,64.9522 99.0044,63.8857 99.2221,62.817 99.4285,61.7461 99.6234,60.6731 99.8066,59.5982 99.9779,58.5215 100.137,57.443 100.2859,56.346 100.4213,55.2473 100.5425,54.147 100.6486,53.0455 100.739,51.943 100.8128,50.8396 100.8692,49.7358 100.9074,48.6317 100.9268,47.5275 100.9263,46.4236 100.9054,45.3201 100.8632,44.2174 100.7989,43.1156 100.7118,42.015 100.601,40.916 100.4658,39.8186 100.3054,38.7232 100.119,37.63 100.121,37.631" stroke="black" /><polyline fill="none" points="46.374,25.11 47.3256,24.5338 48.2994,24.0137 49.2942,23.5481 50.3088,23.1356 51.3421,22.7746 52.393,22.4636 53.4602,22.2009 54.5428,21.9851 55.6394,21.8147 56.749,21.688 56.938,21.688 58.9541,21.6497 60.89,21.937 62.0194,22.2522 63.0915,22.6206 64.1069,23.0395 65.0664,23.5068 65.9705,24.0198 66.82,24.5762 67.6155,25.1735 68.3577,25.8093 69.0472,26.4812 69.6847,27.1866 70.2708,27.9233 70.8063,28.6888 71.2918,29.4806 71.728,30.2962 72.1154,31.1334 72.4548,31.9895 72.7469,32.8623 72.9923,33.7492 73.1916,34.6479 73.3456,35.5558 73.4549,36.4706 73.5201,37.3898 73.542,38.311 73.5204,39.401 73.4548,40.474 73.3453,41.5299 73.1921,42.5682 72.9955,43.5886 72.7554,44.5909 72.4722,45.5747 72.146,46.5397 71.7769,47.4856 71.3652,48.412 70.9109,49.3187 70.4143,50.2053 69.8756,51.0715 69.2948,51.917 68.6723,52.7415 68.008,53.5447 67.3023,54.3262 66.5552,55.0858 65.767,55.823 64.9288,56.5448 64.071,57.2201 63.193,57.846 62.2944,58.4197 61.3746,58.9381 60.4329,59.3984 59.4689,59.7977 58.482,60.133 57.4717,60.4013 56.4374,60.5999 55.3786,60.7257 54.2947,60.7758 53.1852,60.7474 52.0494,60.6374 50.887,60.443 49.8992,60.2163 48.9377,59.9412 48.0037,59.619 47.0982,59.2513 46.2223,58.8393 45.3771,58.3846 44.5636,57.8885 43.783,57.3524 43.0364,56.7777 42.3247,56.1658 41.6492,55.5182 41.0109,54.8362 40.4109,54.1213 39.8502,53.3747 39.33,52.5981 38.8513,51.7927 38.4153,50.96 38.0229,50.1013 37.6754,49.2181 37.3737,48.3118 37.119,47.3838 36.9124,46.4354 36.7549,45.4682 36.6476,44.4834 36.5916,43.4825 36.588,42.467 36.6368,41.3662 36.7329,40.2883 36.8762,39.2337 37.0665,38.2026 37.3037,37.1953 37.5876,36.212 37.918,35.253 38.2947,34.3184 38.7177,33.4087 39.1867,32.524 39.7017,31.6646 40.2623,30.8307 40.8685,30.0227 41.5201,29.2406 42.2169,28.4849 42.9588,27.7558 43.7457,27.0535 44.5772,26.3782 45.4534,25.7303 46.374,25.11 46.374,25.11" stroke="black" /></svg>