<?xml version="1.0" encoding="utf-8" ?>
<svg baseProfile="tiny" height="100%" version="1.2" width="100%" xmlns="http://www.w3.org/2000/svg" xmlns:ev="http://www.w3.org/2001/xml-events" xmlns:xlink="http://www.w3.org/1999/xlink"><defs /><polyline fill="none" points="205.98,82.923 205.9731,83.9627 205.9523,84.9994 205.9177,86.0329 205.8694,87.0631 205.8076,88.0901 205.7322,89.1136 205.6434,90.1337 205.5412,91.1503 205.4258,92.1633 205.2971,93.1726 205.1553,94.1781 205.0005,95.1798 204.8328,96.1776 204.6522,97.1714 204.4588,98.1611 204.2527,99.1468 204.0339,100.1282 203.8026,101.1053 203.5589,102.078 203.3027,103.0464 203.0343,104.0102 202.7536,104.9694 202.4608,105.924 202.156,106.8738 201.8392,107.8188 201.5104,108.759 201.1699,109.6941 200.8176,110.6243 200.4537,111.5493 200.0782,112.4691 199.6913,113.3837 199.2929,114.2929 198.8832,115.1968 198.4622,116.0951 198.0301,116.9879 197.5869,117.875 197.1328,118.7564 196.6677,119.632 196.1917,120.5018 195.705,121.3656 195.2077,122.2234 194.6997,123.0751 194.1812,123.9207 193.6523,124.76 193.1131,125.593 192.5636,126.4196 192.0039,127.2397 191.4341,128.0533 190.8543,128.8603 190.2645,129.6606 189.6649,130.4541 189.0555,131.2408 188.4364,132.0205 187.8077,132.7933 187.1694,133.559 186.5217,134.3175 185.8647,135.0688 185.1983,135.8129 184.5227,136.5495 183.838,137.2788 183.1443,138.0005 182.4416,138.7146 181.73,139.421 181.0484,140.0826 180.3589,140.7371 179.6617,141.3846 178.9568,142.025 178.2443,142.6581 177.5243,143.284 176.7968,143.9026 176.0619,144.5138 175.3197,145.1175 174.5701,145.7137 173.8134,146.3024 173.0496,146.8834 172.2787,147.4567 171.5009,148.0222 170.7161,148.5799 169.9245,149.1297 169.126,149.6715 168.3209,150.2053 167.5091,150.731 166.6908,151.2486 165.8659,151.758 165.0346,152.259 164.197,152.7518 163.353,153.2361 162.5029,153.7119 161.6465,154.1792 160.7841,154.6379 159.9156,155.088 159.0412,155.5293 158.1609,155.9619 157.2748,156.3855 156.383,156.8003 155.4854,157.2061 154.5823,157.6028 153.6736,157.9904 152.7595,158.3689 151.84,158.7381 150.9151,159.098 149.9849,159.4485 149.0496,159.7897 148.1092,160.1213 147.1637,160.4434 146.2132,160.7558 145.2577,161.0586 144.2975,161.3516 143.3324,161.6349 142.3627,161.9082 141.3883,162.1716 140.4093,162.425 139.4259,162.6683 138.438,162.9015 137.4457,163.1245 136.4491,163.3373 135.4483,163.5397 134.4434,163.7318 133.4344,163.9134 132.4213,164.0845 131.4043,164.245 130.3834,164.3949 129.3587,164.534 128.3303,164.6624 127.2981,164.78 126.2624,164.8867 125.2231,164.9824 124.1804,165.0671 123.1343,165.1407 122.0848,165.2032 121.0321,165.2544 119.9762,165.2944 118.9172,165.323 117.8551,165.3402 116.79,165.346 115.7123,165.3401 114.6376,165.3225 113.566,165.2932 112.4977,165.2522 111.4326,165.1998 110.3709,165.1358 109.3125,165.0605 108.2577,164.9738 107.2065,164.8758 106.1588,164.7666 105.1149,164.6463 104.0747,164.5149 103.0384,164.3725 102.006,164.2191 100.9776,164.0548 99.9532,163.8797 98.933,163.6939 97.917,163.4974 96.9053,163.2903 95.8979,163.0726 94.8949,162.8444 93.8964,162.6058 92.9025,162.3568 91.9132,162.0976 90.9286,161.8281 89.9487,161.5484 88.9737,161.2587 88.0037,160.959 87.0386,160.6492 86.0786,160.3296 85.1237,160.0002 84.174,159.661 83.2478,159.319 82.3268,158.9676 81.4109,158.6071 80.5003,158.2375 79.5951,157.8588 78.6953,157.471 77.8009,157.0744 76.9121,156.6688 76.0289,156.2544 75.1514,155.8313 74.2796,155.3995 73.4137,154.959 72.5536,154.5099 71.6995,154.0524 70.8513,153.5864 70.0093,153.112 69.1734,152.6292 68.3438,152.1383 67.5204,151.6391 66.7033,151.1318 65.8927,150.6164 65.0886,150.093 64.291,149.5616 63.5001,149.0224 62.7158,148.4753 61.9384,147.9205 61.1677,147.3579 60.4039,146.7877 59.6471,146.21 58.8973,145.6247 58.1546,145.032 57.419,144.4319 56.6907,143.8245 55.9697,143.2098 55.2561,142.5879 54.5499,141.9588 53.8512,141.3227 53.16,140.6796 52.4765,140.0295 51.8007,139.3725 51.1326,138.7087 50.4724,138.0381 49.8201,137.3609 49.1758,136.6769 48.5395,135.9864 47.9113,135.2894 47.2913,134.586 46.6795,133.8761 46.0761,133.1599 45.481,132.4374 44.8943,131.7088 44.3162,130.974 43.7467,130.2331 43.1858,129.4862 42.6336,128.7333 42.0902,127.9746 41.5556,127.21 41.0299,126.4396 40.5133,125.6636 40.0057,124.8818 39.5072,124.0946 39.0179,123.3017 38.5378,122.5035 38.0671,121.6998 37.6057,120.8908 37.1538,120.0766 36.7115,119.2571 36.2787,118.4325 35.8556,117.6028 35.4422,116.768 35.0386,115.9284 34.6448,115.0838 34.261,114.2344 33.8872,113.3802 33.5234,112.5213 33.1698,111.6577 32.8264,110.7896 32.4932,109.917 32.1704,109.0399 31.858,108.1584 31.556,107.2725 31.2646,106.3824 30.9837,105.4881 30.7136,104.5896 30.4542,103.687 30.2056,102.7804 29.9678,101.8699 29.741,100.9555 29.5252,100.0372 29.3205,99.1151 29.1269,98.1893 28.9445,97.2599 28.7734,96.3269 28.6137,95.3904 28.4654,94.4504 28.3285,93.507 28.2032,92.5602 28.0895,91.6102 27.9875,90.657 27.8972,89.7006 27.8188,88.7412 27.7522,87.7787 27.6976,86.8132 27.655,85.8449 27.6245,84.8737 27.6061,83.8997 27.6,82.923 27.6067,81.9042 27.6266,80.8884 27.6598,79.8756 27.7062,78.8659 27.7656,77.8594 27.8379,76.8561 27.9232,75.8561 28.0214,74.8595 28.1323,73.8663 28.2558,72.8767 28.392,71.8907 28.5407,70.9083 28.7019,69.9297 28.8755,68.9549 29.0613,67.9839 29.2594,67.0169 29.4696,66.0539 29.6919,65.095 29.9262,64.1403 30.1724,63.1898 30.4304,62.2436 30.7002,61.3017 30.9817,60.3643 31.2748,59.4315 31.5794,58.5032 31.8955,57.5795 32.223,56.6606 32.5618,55.7465 32.9118,54.8373 33.2729,53.933 33.6452,53.0337 34.0284,52.1394 34.4226,51.2504 34.8276,50.3665 35.2433,49.488 35.6698,48.6148 36.1069,47.747 36.5545,46.8848 37.0126,46.0281 37.481,45.177 37.9598,44.3317 38.4488,43.4922 38.948,42.6585 39.4572,41.8308 39.9765,41.009 40.5057,40.1934 41.0447,39.3838 41.5935,38.5805 42.152,37.7835 42.7201,36.9928 43.2978,36.2085 43.8849,35.4308 44.4814,34.6596 45.0872,33.895 45.7023,33.1371 46.3265,32.3861 46.9598,31.6418 47.6022,30.9045 48.2534,30.1742 48.9135,29.451 49.5824,28.7348 50.26,28.0259 50.9462,27.3243 51.641,26.63 52.3442,25.9431 53.0558,25.2637 53.7758,24.5919 54.504,23.9276 55.2403,23.2711 55.9848,22.6224 56.7372,21.9815 57.4976,21.3485 58.2659,20.7235 59.0419,20.1065 59.8256,19.4976 60.617,18.897 61.3872,18.3257 62.1645,17.7621 62.9485,17.2064 63.7394,16.6585 64.5371,16.1186 65.3414,15.5867 66.1524,15.0628 66.9698,14.547 67.7938,14.0395 68.6241,13.5402 69.4608,13.0492 70.3038,12.5666 71.153,12.0924 72.0082,11.6267 72.8696,11.1696 73.7369,10.7212 74.6102,10.2814 75.4893,9.8504 76.3742,9.4283 77.2649,9.015 78.1611,8.6106 79.063,8.2153 79.9704,7.8291 80.8832,7.452 81.8013,7.0841 82.7248,6.7254 83.6536,6.3761 84.5875,6.0362 85.5265,5.7058 86.4705,5.3849 87.4195,5.0735 88.3734,4.7719 89.3321,4.4799 90.2956,4.1977 91.2637,3.9253 92.2365,3.6629 93.2139,3.4104 94.1957,3.1679 95.1819,2.9356 96.1725,2.7134 97.1673,2.5014 98.1664,2.2997 99.1696,2.1083 100.1769,1.9274 101.1882,1.7569 102.2034,1.597 103.2224,1.4477 104.2453,1.309 105.2719,1.1811 106.3022,1.0639 107.336,0.9576 108.3734,0.8623 109.4142,0.7779 110.4585,0.7045 111.506,0.6423 112.5568,0.5912 113.6107,0.5514 114.6678,0.5229 115.7279,0.5057 116.791,0.5 117.8547,0.5057 118.9155,0.5229 119.9732,0.5515 121.0278,0.5914 122.0792,0.6425 123.1274,0.7048 124.1722,0.7782 125.2137,0.8627 126.2516,0.9582 127.2861,1.0646 128.317,1.1819 129.3442,1.31 130.3676,1.4488 131.3873,1.5983 132.4031,1.7585 133.4149,1.9291 134.4228,2.1103 135.4266,2.3019 136.4262,2.5038 137.4216,2.7161 138.4127,2.9386 139.3995,3.1712 140.3818,3.4139 141.3597,3.6667 142.333,3.9295 143.3017,4.2022 144.2657,4.4847 145.2249,4.7771 146.1792,5.0791 147.1287,5.3908 148.0732,5.7122 149.0127,6.043 149.9471,6.3833 150.8763,6.7331 151.8002,7.0921 152.7188,7.4605 153.632,7.838 154.5398,8.2247 155.4421,8.6206 156.3388,9.0254 157.2298,9.4392 158.1151,9.8619 158.9946,10.2934 159.8682,10.7337 160.7359,11.1827 161.5976,11.6404 162.4532,12.1066 163.3027,12.5813 164.146,13.0646 164.983,13.5561 165.8137,14.0561 166.6379,14.5643 167.4557,15.0806 168.2669,15.6052 169.0714,16.1378 169.8693,16.6784 170.6605,17.2269 171.4448,17.7833 172.2222,18.3476 172.9927,18.9196 173.7561,19.4993 174.5124,20.0866 175.2616,20.6815 176.0034,21.2839 176.7381,21.8937 177.4653,22.5109 178.1851,23.1354 178.8973,23.7672 179.602,24.4061 180.299,25.0522 180.9883,25.7053 181.6699,26.3654 182.3435,27.0324 183.0093,27.7063 183.667,28.387 184.3568,29.1174 185.0374,29.8553 185.7087,30.6007 186.3707,31.3534 187.0233,32.1134 187.6663,32.8807 188.2998,33.6551 188.9236,34.4366 189.5376,35.225 190.1418,36.0204 190.736,36.8226 191.3203,37.6316 191.8944,38.4473 192.4584,39.2695 193.0121,40.0983 193.5555,40.9336 194.0885,41.7753 194.611,42.6232 195.1229,43.4774 195.6241,44.3378 196.1146,45.2042 196.5942,46.0766 197.063,46.955 197.5207,47.8392 197.9674,48.7292 198.4029,49.6248 198.8271,50.5261 199.2401,51.433 199.6416,52.3453 200.0316,53.263 200.4101,54.186 200.7769,55.1143 201.132,56.0477 201.4752,56.9862 201.8066,57.9297 202.1259,58.8782 202.4332,59.8315 202.7284,60.7896 203.0113,61.7524 203.2819,62.7199 203.5401,63.6919 203.7858,64.6684 204.019,65.6492 204.2395,66.6345 204.4473,67.6239 204.6423,68.6175 204.8244,69.6153 204.9935,70.617 205.1496,71.6227 205.2925,72.6323 205.4222,73.6456 205.5386,74.6627 205.6416,75.6834 205.7312,76.7077 205.8072,77.7355 205.8695,78.7667 205.9182,79.8012 205.953,80.839 205.974,81.8799 205.981,82.924 205.98,82.923" stroke="black" /><polyline fill="none" points="241.475,46.594 241.3449,46.2493 241.2001,45.9109 241.0406,45.5786 240.8666,45.2526 240.678,44.9328 240.4751,44.6193 240.2578,44.3119 240.0263,44.0107 239.7807,43.7157 239.521,43.4269 239.2473,43.1442 238.9598,42.8677 238.6585,42.5973 238.3434,42.3331 238.0148,42.0751 237.6726,41.8231 237.317,41.5773 236.948,41.3376 236.5657,41.104 236.1702,40.8765 235.7617,40.6551 235.3401,40.4398 234.9056,40.2306 234.4582,40.0274 233.9981,39.8303 233.5254,39.6392 233.04,39.4542 232.5422,39.2752 232.0319,39.1022 231.5093,38.9353 230.9745,38.7743 230.4276,38.6194 229.8686,38.4705 229.2976,38.3275 228.7147,38.1906 228.12,38.0596 227.5137,37.9346 226.8956,37.8155 226.2661,37.7024 225.6251,37.5953 224.9727,37.494 224.3091,37.3987 223.6342,37.3094 222.9483,37.2259 222.2513,37.1483 221.5434,37.0767 220.8246,37.0109 220.0951,36.951 219.3549,36.8969 218.6041,36.8488 217.8428,36.8065 217.0712,36.77 216.2892,36.7394 215.4969,36.7146 214.6945,36.6957 213.882,36.6825 213.0596,36.6752 212.2272,36.6737 211.385,36.6779 210.5332,36.688 209.6717,36.7038 208.8006,36.7255 207.9201,36.7528 207.0302,36.786 206.131,36.8248 205.2227,36.8695 204.3052,36.9198 203.3787,36.9759 202.4432,37.0377 201.4989,37.1052 200.5458,37.1784 199.5841,37.2573 198.6138,37.3419 197.6349,37.4321 196.6476,37.5281 195.652,37.6297 194.6482,37.7369 193.6362,37.8498 192.6161,37.9684 191.588,38.0925 190.5521,38.2223 189.5083,38.3577 188.4568,38.4988 187.3977,38.6454 186.331,38.7976 185.2568,38.9554 184.1753,39.1188 183.0864,39.2877 181.9904,39.4622 180.8873,39.6423 179.7771,39.8279 178.6599,40.019 177.5359,40.2157 176.4052,40.4179 175.2677,40.6256 174.1237,40.8389 172.9731,41.0576 171.8161,41.2818 170.6528,41.5115 169.4833,41.7467 168.3075,41.9873 167.1257,42.2334 165.9379,42.485 164.7442,42.742 163.5446,43.0044 162.3394,43.2723 161.1285,43.5456 159.912,43.8243 158.6901,44.1084 157.4627,44.3979 156.2301,44.6928 154.9923,44.9931 153.7493,45.2987 152.5013,45.6097 151.2484,45.9261 149.9906,46.2479 148.728,46.5749 147.4607,46.9074 146.1888,47.2451 144.9124,47.5882 143.6315,47.9366 142.3464,48.2902 141.0569,48.6492 139.7633,49.0135 138.4656,49.383 137.1639,49.7579 135.8583,50.138 134.5489,50.5233 133.2357,50.9139 131.9189,51.3098 130.5985,51.7108 129.2747,52.1172 127.9474,52.5287 126.6168,52.9454 125.2831,53.3674 123.9462,53.7945 122.6062,54.2268 121.2633,54.6643 119.9175,55.107 118.569,55.5549 117.2177,56.0079 115.8638,56.466 114.5075,56.9293 113.1486,57.3978 111.7874,57.8713 110.424,58.35 109.0619,58.8325 107.7048,59.3176 106.3528,59.8052 105.0059,60.2953 103.6641,60.7878 102.3277,61.2827 100.9965,61.7799 99.6708,62.2794 98.3506,62.7811 97.0359,63.285 95.7268,63.791 94.4234,64.2991 93.1258,64.8093 91.8341,65.3214 90.5482,65.8355 89.2684,66.3514 87.9946,66.8692 86.7269,67.3888 85.4654,67.9101 84.2103,68.4331 82.9614,68.9578 81.719,69.4841 80.4831,70.0119 79.2537,70.5412 78.031,71.072 76.815,71.6042 75.6058,72.1378 74.4034,72.6726 73.208,73.2087 72.0196,73.7461 70.8382,74.2846 69.664,74.8242 68.497,75.3649 67.3373,75.9066 66.185,76.4492 65.04,76.9928 63.9026,77.5373 62.7728,78.0826 61.6507,78.6287 60.5362,79.1755 59.4296,79.7229 58.3308,80.2711 57.24,80.8198 56.1571,81.369 55.0824,81.9187 54.0158,82.4689 52.9575,83.0194 51.9075,83.5703 50.8658,84.1215 49.8326,84.673 48.8079,85.2246 47.7918,85.7764 46.7843,86.3283 45.7857,86.8802 44.7958,87.4322 43.8148,87.9841 42.8427,88.5359 41.8797,89.0876 40.9258,89.639 39.981,90.1903 39.0455,90.7412 38.1194,91.2919 37.2026,91.8421 36.2952,92.3919 35.3974,92.9413 34.5092,93.4901 33.6307,94.0383 32.762,94.5859 31.903,95.1328 31.054,95.679 30.2149,96.2245 29.3859,96.7691 28.567,97.3129 27.7583,97.8557 26.9598,98.3976 26.1717,98.9385 25.3939,99.4783 24.6267,100.017 23.87,100.5546 23.1239,101.0909 22.3885,101.626 21.6638,102.1598 20.9501,102.6923 20.2472,103.2233 19.5553,103.7529 18.8744,104.281 18.2047,104.8076 17.5462,105.3326 16.8989,105.8559 16.263,106.3776 15.6385,106.8975 15.0255,107.4156 14.4241,107.9319 13.8343,108.4464 13.2562,108.9588 12.6899,109.4694 12.1354,109.9779 11.5929,110.4843 11.0623,110.9886 10.5439,111.4907 10.0375,111.9906 9.5434,112.4882 9.0616,112.9836 8.5921,113.4765 8.135,113.967 7.6905,114.4551 7.2585,114.9407 6.8392,115.4237 6.4326,115.9041 6.0388,116.3819 5.6578,116.857 5.2898,117.3293 4.9348,117.7988 4.5929,118.2654 4.2642,118.7292 3.9486,119.19 3.6464,119.6479 3.3575,120.1026 3.0821,120.5543 2.8202,121.0029 2.5719,121.4483 2.3372,121.8904 2.1163,122.3293 1.9092,122.7648 1.7159,123.197 1.5366,123.6257 1.3714,124.0509 1.2202,124.4727 1.0832,124.8908 0.9604,125.3053 0.852,125.7162 0.7579,126.1234 0.6783,126.5267 0.6132,126.9263 0.5628,127.322 0.527,127.7138 0.5059,128.1016 0.4997,128.4854 0.5083,128.8652 0.532,129.2409 0.5706,129.6124 0.6244,129.9797 0.6933,130.3428 0.7775,130.7016 0.8771,131.056 0.992,131.406 1.1221,131.7507 1.2669,132.0891 1.4264,132.4214 1.6004,132.7474 1.789,133.0672 1.9919,133.3807 2.2092,133.6881 2.4407,133.9893 2.6863,134.2843 2.946,134.5732 3.2197,134.8558 3.5072,135.1323 3.8085,135.4026 4.1236,135.6669 4.4522,135.9249 4.7944,136.1769 5.15,136.4227 5.519,136.6624 5.9013,136.896 6.2968,137.1235 6.7053,137.3449 7.1269,137.5602 7.5614,137.7694 8.0088,137.9726 8.4689,138.1697 8.9416,138.3608 9.427,138.5458 9.9248,138.7248 10.4351,138.8978 10.9577,139.0647 11.4925,139.2257 12.0394,139.3806 12.5984,139.5295 13.1694,139.6725 13.7523,139.8094 14.347,139.9404 14.9533,140.0654 15.5714,140.1845 16.2009,140.2976 16.8419,140.4047 17.4943,140.506 18.1579,140.6013 18.8328,140.6906 19.5187,140.7741 20.2157,140.8517 20.9236,140.9234 21.6424,140.9891 22.3719,141.049 23.1121,141.1031 23.8629,141.1512 24.6241,141.1935 25.3958,141.23 26.1779,141.2606 26.9701,141.2854 27.7725,141.3043 28.585,141.3175 29.4074,141.3248 30.2398,141.3263 31.082,141.3221 31.9338,141.312 32.7953,141.2962 33.6664,141.2746 34.5469,141.2472 35.4368,141.214 36.336,141.1752 37.2443,141.1305 38.1618,141.0802 39.0883,141.0241 40.0238,140.9623 40.9681,140.8948 41.9212,140.8216 42.8829,140.7427 43.8532,140.6581 44.8321,140.5679 45.8194,140.4719 46.815,140.3703 47.8188,140.2631 48.8308,140.1502 49.8509,140.0316 50.879,139.9075 51.9149,139.7777 52.9587,139.6423 54.0102,139.5012 55.0693,139.3546 56.136,139.2024 57.2102,139.0446 58.2917,138.8812 59.3806,138.7123 60.4766,138.5378 61.5797,138.3577 62.6899,138.1721 63.8071,137.981 64.931,137.7843 66.0618,137.5821 67.1993,137.3744 68.3433,137.1611 69.4939,136.9424 70.6508,136.7182 71.8142,136.4885 72.9837,136.2533 74.1595,136.0127 75.3413,135.7666 76.5291,135.515 77.7228,135.258 78.9224,134.9956 80.1276,134.7277 81.3385,134.4544 82.555,134.1757 83.7769,133.8916 85.0043,133.6021 86.2369,133.3072 87.4747,133.0069 88.7177,132.7013 89.9657,132.3903 91.2186,132.0739 92.4764,131.7521 93.739,131.425 95.0063,131.0926 96.2782,130.7549 97.5546,130.4118 98.8355,130.0634 100.1206,129.7098 101.4101,129.3508 102.7037,128.9865 104.0014,128.617 105.3031,128.2421 106.6087,127.862 107.9181,127.4767 109.2313,127.0861 110.5481,126.6902 111.8685,126.2892 113.1923,125.8828 114.5196,125.4713 115.8502,125.0546 117.1839,124.6326 118.5208,124.2055 119.8608,123.7732 121.2037,123.3357 122.5495,122.893 123.898,122.4451 125.2493,121.9921 126.6031,121.534 127.9595,121.0707 129.3184,120.6022 130.6796,120.1287 132.043,119.65 133.4051,119.1675 134.7622,118.6824 136.1142,118.1948 137.4611,117.7047 138.8029,117.2122 140.1393,116.7173 141.4705,116.2201 142.7962,115.7206 144.1165,115.2189 145.4312,114.715 146.7402,114.209 148.0436,113.7009 149.3412,113.1908 150.633,112.6786 151.9188,112.1646 153.1987,111.6486 154.4725,111.1308 155.7401,110.6113 157.0016,110.0899 158.2568,109.5669 159.5056,109.0422 160.748,108.516 161.984,107.9881 163.2133,107.4588 164.4361,106.928 165.6521,106.3959 166.8613,105.8623 168.0636,105.3275 169.2591,104.7914 170.4475,104.254 171.6289,103.7155 172.8031,103.1759 173.9701,102.6353 175.1298,102.0936 176.2822,101.5509 177.4271,101.0073 178.5645,100.4629 179.6943,99.9176 180.8165,99.3715 181.9309,98.8247 183.0376,98.2772 184.1364,97.7291 185.2272,97.1804 186.31,96.6312 187.3848,96.0815 188.4514,95.5313 189.5097,94.9808 190.5598,94.4299 191.6014,93.8787 192.6347,93.3273 193.6594,92.7756 194.6755,92.2238 195.6829,91.672 196.6816,91.12 197.6715,90.5681 198.6525,90.0162 199.6246,89.4644 200.5876,88.9127 201.5415,88.3613 202.4863,87.81 203.4218,87.2591 204.348,86.7085 205.2648,86.1582 206.1721,85.6084 207.0699,85.0591 207.9581,84.5103 208.8366,83.9621 209.7054,83.4145 210.5643,82.8675 211.4133,82.3213 212.2524,81.7759 213.0815,81.2313 213.9004,80.6875 214.7091,80.1447 215.5076,79.6028 216.2957,79.0619 217.0735,78.5221 217.8407,77.9834 218.5974,77.4458 219.3435,76.9095 220.0789,76.3744 220.8036,75.8406 221.5174,75.3082 222.2203,74.7771 222.9122,74.2475 223.593,73.7194 224.2627,73.1928 224.9212,72.6679 225.5685,72.1445 226.2044,71.6229 226.8289,71.1029 227.4419,70.5848 228.0433,70.0685 228.6331,69.5541 229.2112,69.0416 229.7775,68.5311 230.332,68.0226 230.8746,67.5162 231.4051,67.0119 231.9236,66.5098 232.4299,66.0099 232.924,65.5122 233.4059,65.0169 233.8753,64.5239 234.3324,64.0334 234.7769,63.5453 235.2089,63.0597 235.6282,62.5767 236.0348,62.0963 236.4286,61.6185 236.8096,61.1435 237.1776,60.6711 237.5326,60.2016 237.8745,59.735 238.2032,59.2712 238.5188,58.8104 238.821,58.3525 239.1099,57.8977 239.3853,57.446 239.6472,56.9975 239.8955,56.5521 240.1301,56.1099 240.351,55.6711 240.5582,55.2355 240.7514,54.8034 240.9307,54.3746 241.0959,53.9494 241.2471,53.5276 241.3841,53.1095 241.5068,52.6949 241.6152,52.284 241.7093,51.8769 241.7889,51.4735 241.854,51.0739 241.9044,50.6782 241.9402,50.2864 241.9612,49.8985 241.9675,49.5147 241.9588,49.1349 241.9352,48.7592 241.8965,48.3877 241.8427,48.0204 241.7737,47.6573 241.6895,47.2985 241.59,46.944 241.475,46.594 241.475,46.594" stroke="black" /><polyline fill="none" points="126.812,107.277 125.415,107.7672 124.0213,108.2514 122.631,108.7296 121.2442,109.2017 119.8611,109.6678 118.4818,110.1277 117.1065,110.5816 115.7353,111.0293 114.3683,111.4708 113.0058,111.9062 111.6478,112.3354 110.2945,112.7584 108.946,113.1752 107.6026,113.5858 106.2642,113.9901 104.9311,114.3882 103.6034,114.7799 102.2813,115.1654 100.9649,115.5445 99.6543,115.9172 98.3497,116.2837 97.0512,116.6437 95.759,116.9973 94.4733,117.3446 93.1941,117.6854 91.9216,118.0197 90.6559,118.3476 89.3973,118.669 88.1458,118.9839 86.9015,119.2923 85.6647,119.5941 84.4355,119.8894 83.214,120.1781 82.0004,120.4602 80.7947,120.7357 79.5972,121.0046 78.408,121.2668 77.2273,121.5224 76.0551,121.7713 74.8916,122.0135 73.737,122.249 72.5915,122.4777 71.455,122.6997 70.3279,122.9149 69.2103,123.1234 68.1022,123.325 67.0038,123.5198 65.9153,123.7077 64.8369,123.8888 63.7686,124.0631 62.7106,124.2304 61.6631,124.3908 60.6262,124.5443 59.6,124.6909 58.5847,124.8304 57.5805,124.963 56.5874,125.0886 55.6056,125.2072 54.6353,125.3187 53.6766,125.4232 52.7296,125.5206 51.7946,125.6109 50.8716,125.6942 49.9607,125.7702 49.0622,125.8392 48.1762,125.901 47.3028,125.9556 46.4421,126.003 45.5943,126.0431 44.7596,126.0761 43.9381,126.1018 43.1299,126.1202 42.3352,126.1314 41.5541,126.1352 40.7868,126.1317 40.0334,126.1209 39.2941,126.1028 38.5689,126.0772 37.8581,126.0443 37.1618,126.0039 36.4801,125.9561 35.8132,125.9009 35.1612,125.8382 34.5243,125.768 33.9026,125.6903 33.2962,125.6051 32.7053,125.5124 32.1301,125.4121 31.5707,125.3043 31.0271,125.1888 30.4997,125.0658 29.9885,124.9351 29.4936,124.7968 29.0153,124.6508 28.5536,124.4971 28.1086,124.3358 27.6807,124.1667 27.2698,123.9899 26.8761,123.8053 26.4998,123.613 26.141,123.4129 25.7999,123.205 25.4765,122.9893 25.1711,122.7657 24.8838,122.5343 24.6148,122.295 24.3641,122.0478 24.1319,121.7927 23.9184,121.5297 23.7238,121.2587 23.548,120.9798 23.3914,120.6928 23.254,120.3979 23.136,120.095 23.0379,119.7851 22.9599,119.4692 22.9019,119.1475 22.8637,118.8201 22.8454,118.4869 22.8466,118.1482 22.8674,117.8039 22.9076,117.4541 22.967,117.099 23.0455,116.7385 23.1431,116.3729 23.2596,116.002 23.3948,115.6261 23.5487,115.2452 23.7211,114.8594 23.9119,114.4687 24.121,114.0733 24.3482,113.6731 24.5935,113.2684 24.8566,112.8591 25.1376,112.4453 25.4362,112.0272 25.7523,111.6047 26.0859,111.178 26.4367,110.7471 26.8047,110.3122 27.1898,109.8732 27.5917,109.4304 28.0105,108.9836 28.4459,108.5331 28.8979,108.0789 29.3663,107.6211 29.851,107.1597 30.3519,106.6949 30.8689,106.2266 31.4017,105.7551 31.9504,105.2803 32.5148,104.8023 33.0947,104.3213 33.6901,103.8372 34.3008,103.3502 34.9266,102.8604 35.5676,102.3677 36.2234,101.8724 36.8941,101.3744 37.5795,100.8739 38.2795,100.3709 38.994,99.8655 39.7227,99.3578 40.4657,98.8478 41.2227,98.3357 41.9937,97.8215 42.7785,97.3052 43.5771,96.7871 44.3892,96.267 45.2148,95.7452 46.0537,95.2216 46.9059,94.6964 47.7712,94.1697 48.6494,93.6415 49.5404,93.1119 50.4442,92.5809 51.3606,92.0487 52.2895,91.5153 53.2307,90.9809 54.1842,90.4454 55.1497,89.9089 56.1273,89.3716 57.1167,88.8335 58.1178,88.2947 59.1306,87.7552 60.1548,87.2152 61.1904,86.6747 62.2373,86.1338 63.2952,85.5925 64.3642,85.051 65.4441,84.5093 66.5347,83.9675 67.6359,83.4257 68.7476,82.8839 69.8697,82.3423 71.0021,81.8008 72.1446,81.2597 73.2971,80.7188 74.4595,80.1785 75.6316,79.6386 76.8134,79.0993 78.0047,78.5607 79.2055,78.0228 80.4154,77.4857 81.6345,76.9495 82.8627,76.4143 84.0997,75.8801 85.3456,75.3471 86.6,74.8152 87.863,74.2846 89.1344,73.7554 90.4141,73.2276 91.702,72.7013 92.9979,72.1765 94.3017,71.6535 95.6133,71.1321 96.9325,70.6126 98.2593,70.095 99.5935,69.5793 100.935,69.0656 102.2837,68.5541 103.6395,68.0447 105.0021,67.5377 106.3716,67.0329 107.7477,66.5306 109.1304,66.0308 110.5196,65.5336 111.915,65.039 113.312,64.5488 114.7057,64.0646 116.096,63.5864 117.4828,63.1143 118.8659,62.6482 120.2452,62.1883 121.6205,61.7345 122.9917,61.2867 124.3587,60.8452 125.7212,60.4098 127.0792,59.9806 128.4325,59.5576 129.781,59.1408 131.1244,58.7302 132.4628,58.3259 133.7959,57.9278 135.1236,57.5361 136.4457,57.1507 137.7621,56.7715 139.0727,56.3988 140.3773,56.0323 141.6758,55.6723 142.968,55.3187 144.2537,54.9714 145.5329,54.6306 146.8054,54.2963 148.0711,53.9684 149.3297,53.647 150.5812,53.3321 151.8255,53.0237 153.0623,52.7219 154.2915,52.4266 155.513,52.1379 156.7266,51.8558 157.9323,51.5803 159.1298,51.3114 160.319,51.0492 161.4997,50.7936 162.6719,50.5447 163.8354,50.3025 164.99,50.067 166.1355,49.8383 167.272,49.6163 168.3991,49.4011 169.5168,49.1926 170.6248,48.991 171.7232,48.7962 172.8116,48.6083 173.8901,48.4272 174.9584,48.2529 176.0164,48.0856 177.0639,47.9252 178.1008,47.7717 179.127,47.6251 180.1423,47.4856 181.1465,47.353 182.1396,47.2274 183.1214,47.1088 184.0917,46.9973 185.0504,46.8928 185.9974,46.7954 186.9324,46.7051 187.8554,46.6218 188.7663,46.5458 189.6648,46.4768 190.5508,46.415 191.4242,46.3604 192.2849,46.313 193.1327,46.2729 193.9674,46.2399 194.7889,46.2142 195.5971,46.1958 196.3918,46.1846 197.1729,46.1808 197.9402,46.1843 198.6936,46.1951 199.4329,46.2132 200.1581,46.2388 200.8689,46.2717 201.5652,46.3121 202.2469,46.3599 202.9138,46.4151 203.5658,46.4778 204.2027,46.548 204.8244,46.6257 205.4308,46.7109 206.0217,46.8036 206.5969,46.9039 207.1563,47.0117 207.6999,47.1272 208.2273,47.2502 208.7385,47.3809 209.2334,47.5192 209.7117,47.6652 210.1734,47.8189 210.6184,47.9802 211.0463,48.1493 211.4572,48.3261 211.8509,48.5107 212.2272,48.703 212.586,48.9031 212.9271,49.111 213.2505,49.3267 213.5559,49.5503 213.8432,49.7817 214.1122,50.021 214.3629,50.2682 214.5951,50.5233 214.8085,50.7863 215.0032,51.0573 215.179,51.3362 215.3356,51.6231 215.473,51.9181 215.591,52.221 215.6891,52.5309 215.7671,52.8468 215.8251,53.1685 215.8633,53.4959 215.8816,53.8291 215.8804,54.1678 215.8596,54.5121 215.8194,54.8619 215.76,55.217 215.6815,55.5775 215.5839,55.9431 215.4674,56.314 215.3322,56.6899 215.1783,57.0708 215.0059,57.4566 214.8151,57.8473 214.606,58.2427 214.3788,58.6429 214.1335,59.0476 213.8704,59.4569 213.5894,59.8707 213.2908,60.2888 212.9747,60.7113 212.6411,61.138 212.2903,61.5689 211.9223,62.0038 211.5372,62.4428 211.1353,62.8856 210.7165,63.3324 210.2811,63.7829 209.8291,64.2371 209.3607,64.6949 208.876,65.1563 208.3751,65.6211 207.8581,66.0894 207.3253,66.5609 206.7766,67.0357 206.2122,67.5137 205.6323,67.9947 205.0369,68.4788 204.4263,68.9658 203.8004,69.4556 203.1594,69.9483 202.5036,70.4436 201.8329,70.9416 201.1474,71.4421 200.4475,71.9451 199.733,72.4505 199.0043,72.9582 198.2613,73.4682 197.5043,73.9803 196.7333,74.4945 195.9485,75.0108 195.1499,75.5289 194.3378,76.049 193.5122,76.5708 192.6732,77.0944 191.8211,77.6196 190.9558,78.1463 190.0776,78.6745 189.1866,79.2041 188.2828,79.7351 187.3664,80.2673 186.4375,80.8007 185.4963,81.3351 184.5428,81.8706 183.5773,82.4071 182.5997,82.9444 181.6103,83.4825 180.6092,84.0213 179.5964,84.5608 178.5722,85.1008 177.5366,85.6413 176.4897,86.1822 175.4317,86.7235 174.3628,87.265 173.2829,87.8067 172.1923,88.3485 171.0911,88.8903 169.9794,89.4321 168.8573,89.9737 167.7249,90.5152 166.5824,91.0564 165.4299,91.5972 164.2675,92.1375 163.0954,92.6774 161.9136,93.2167 160.7223,93.7553 159.5215,94.2932 158.3116,94.8303 157.0925,95.3665 155.8643,95.9017 154.6273,96.4359 153.3814,96.9689 152.127,97.5008 150.864,98.0314 149.5926,98.5606 148.3129,99.0884 147.025,99.6147 145.7291,100.1395 144.4253,100.6625 143.1137,101.1839 141.7945,101.7034 140.4677,102.221 139.1335,102.7367 137.792,103.2504 136.4433,103.7619 135.0875,104.2713 133.7249,104.7783 132.3554,105.2831 130.9793,105.7854 129.5966,106.2852 128.2074,106.7824 126.812,107.277 126.812,107.277" stroke="black" /></svg>